<?xml version="1.0" encoding="UTF-8" standalone="no"?>
<!-- Created with Inkscape (http://www.inkscape.org/) -->

<svg
   width="400mm"
   height="100mm"
   viewBox="0 0 400 100"
   version="1.1"
   id="svg1"
   xml:space="preserve"
   sodipodi:docname="Bilder_unten.svg"
   inkscape:version="1.2.2 (732a01da63, 2022-12-09)"
   xmlns:inkscape="http://www.inkscape.org/namespaces/inkscape"
   xmlns:sodipodi="http://sodipodi.sourceforge.net/DTD/sodipodi-0.dtd"
   xmlns="http://www.w3.org/2000/svg"
   xmlns:svg="http://www.w3.org/2000/svg"><sodipodi:namedview
     id="namedview1"
     pagecolor="#ffffff"
     bordercolor="#000000"
     borderopacity="0.25"
     inkscape:showpageshadow="2"
     inkscape:pageopacity="0.0"
     inkscape:pagecheckerboard="0"
     inkscape:deskcolor="#d1d1d1"
     inkscape:document-units="mm"
     inkscape:zoom="0.4204237"
     inkscape:cx="-90.385009"
     inkscape:cy="807.5187"
     inkscape:window-width="2560"
     inkscape:window-height="1378"
     inkscape:window-x="2729"
     inkscape:window-y="571"
     inkscape:window-maximized="1"
     inkscape:current-layer="svg1"
     showgrid="false" /><defs
     id="defs1" /><path
     id="path1"
     style="fill:#000000;stroke:none;stroke-width:0.141111;stroke-dasharray:none"
     d="m 42.681009,14.134534 -0.0639,0.28881 c 2.17505,1.03214 3.90706,2.42843 5.60057,4.11918 l -0.0639,0.28852 c -1.58801,0.33208 -2.81493,1.19381 -4.23565,1.92497 -3.09003,1.59023 -5.80976,2.98992 -7.93441,5.82939 l -0.14429,-0.0319 c -0.85042,-3.73105 -2.12324,-7.04492 -4.20677,-10.25626 -1.06799,-1.64605 -1.16055,-3.4571 -3.67646,-2.69972 3.74112,3.53756 5.86911,7.55914 7.01762,12.5795 0.65865,2.8791 -3.10548,5.45783 -0.3763,8.20795 0.32759,0.3301 0.71979,0.59882 1.15538,0.76459 0.5692,0.21662 1.17968,0.23001 1.77887,0.17028 1.00035,-0.0997 1.97931,-0.35107 2.97994,-0.46015 l 1.3322,1.50696 c -2.74482,1.5423 -5.63631,2.6926 -7.59952,5.28342 -2.13542,2.81806 -2.81225,6.55817 -5.9448,8.61056 -1.48092,0.97027 -3.13134,1.86479 -4.874471,2.23503 -1.38875,0.29496 -3.26428,0.0238 -3.88914,1.60072 -0.86949,2.19414 -0.60639,5.26126 0.0263,7.47475 0.51878,1.81529 1.33663,3.54751 1.39902,5.46022 1.61341,-0.41536 2.39607,-2.29362 3.384541,-3.48758 1.03249,-1.24711 2.63483,-2.34023 4.03888,-3.13319 2.59427,-1.46512 5.25861,-0.21876 8.03539,-0.25342 -0.81622,1.7393 -1.64509,3.55067 -2.71176,5.15258 -0.67583,1.01493 -1.64544,1.66367 -1.80698,2.93429 1.98065,-0.84168 2.87548,-3.11668 3.83011,-4.90716 1.81652,-3.40705 3.30613,-7.13121 4.34516,-10.8518 0.42997,-1.5397 0.41382,-3.31374 0.94084,-4.78983 0.32819,-0.91918 1.20316,-1.54812 1.74175,-2.34038 0.71067,-1.04537 1.16284,-2.26018 1.63844,-3.42391 l 0.70621,0.91396 -0.94585,0.85077 c 1.80623,0.19937 1.85668,1.97924 3.38334,2.49525 1.67021,0.56452 2.95769,-2.23293 4.02674,-3.12507 0.1849,1.02554 0.52352,2.21713 -0.0854,3.16192 -0.76301,1.18386 -2.03737,2.07386 -2.96585,3.12932 -0.39507,0.44907 -0.93309,1.03727 -0.94471,1.6746 -0.0118,0.65321 0.6586,0.76526 1.17403,0.6967 0.77762,-0.10341 2.89648,-1.55726 3.28353,-0.4249 0.30467,0.89134 0.16542,2.02753 0.14834,2.95483 -0.0422,2.28925 -0.26692,4.58337 -0.48086,6.86116 -0.12242,1.30346 -0.88609,2.65528 0.028,3.79301 1.23309,-3.28165 0.9708,-7.2035 1.11502,-10.65884 0.0563,-1.34889 -0.33136,-3.25788 0.41902,-4.45128 0.5331,-0.84783 1.51156,-1.44254 2.27673,-2.06302 1.39794,-1.13359 2.78669,-2.27654 4.09652,-3.5122 5.30387,-5.00354 10.56939,-9.99462 15.75643,-15.11664 1.55341,-1.53392 3.77653,-2.45646 5.14134,-4.16433 1.65986,-2.07709 -0.52221,-5.15129 -2.84261,-5.40394 -2.06597,-0.22495 -2.75768,1.76499 -3.63722,3.21037 -1.19699,1.9671 -2.88091,3.56291 -4.44745,5.2248 -1.65913,1.76014 -3.61543,4.17633 -5.68766,5.42771 -3.36495,2.03202 -7.63938,2.13755 -11.43714,2.13745 1.17279,-1.96151 2.43796,-3.67295 1.96748,-6.07704 -0.22372,-1.14324 -0.97552,-2.17909 -1.11563,-3.3182 -0.20573,-1.67251 1.44982,-2.92604 0.87327,-4.73898 -0.41302,-1.29875 -1.62448,-2.51669 -2.96391,-2.83087 -0.78818,-0.18487 -1.67548,0.0106 -2.40088,-0.4083 -0.73372,-0.42367 -1.32253,-1.18348 -1.97723,-1.72201 -1.29605,-1.06605 -2.56676,-1.83122 -4.17999,-2.31268 z m 34.951,6.28119 c 1.65849,0.17415 3.25851,1.84778 2.56562,3.54178 -0.45105,1.10268 -1.73659,1.62914 -2.83485,1.81385 -0.75911,0.12768 -3.31026,0.37246 -3.76355,-0.46476 -0.24922,-0.46031 0.35247,-1.11884 0.58329,-1.4678 0.73958,-1.11804 1.22379,-3.13661 2.74179,-3.40161 0.23279,-0.0406 0.47077,-0.0463 0.7077,-0.0214 z m -27.74923,-1.09187 c 1.86489,0.008 3.77296,1.0311 3.81505,3.16233 0.0189,0.9579 -0.47567,1.84512 -0.88905,2.67803 -0.8899,-0.91945 -1.62609,-3.14745 -2.8875,-3.48103 -1.10074,-0.29109 -2.29326,0.37524 -3.18481,0.94405 -2.18672,1.39515 -4.31293,2.98839 -6.45921,4.45472 -0.88412,0.60402 -2.15973,1.25933 -2.62796,2.2772 -0.57101,1.24134 0.82615,1.63595 1.7534,1.61941 0.32288,0.69669 0.97543,1.71549 0.62294,2.50553 -0.26014,0.58307 -0.98771,0.81117 -1.5538,0.9606 -1.52945,0.40368 -3.11672,0.13174 -3.87255,-1.40998 -0.8919,-1.81928 0.48238,-4.04683 1.51682,-5.51111 1.26602,-1.7921 2.7934,-3.25868 4.71456,-4.33767 0.94472,-0.53058 2.00067,-0.80851 2.9397,-1.34118 1.7853,-1.01272 3.22509,-2.13835 5.32131,-2.46245 0.25909,-0.0401 0.52469,-0.0596 0.7911,-0.0585 z m -0.67774,3.04122 c 0.45058,0.0146 0.87438,0.15411 1.24465,0.45874 -0.71696,-0.13133 -1.21391,-0.17304 -1.74823,0.36986 1.19265,0.30403 2.28673,0.76876 2.99436,1.83784 0.28631,0.43251 0.557,1.04535 0.15833,1.49535 -1.212,1.36807 -3.21985,1.5928 -4.79693,2.19473 -0.81026,0.30925 -1.45659,0.91296 -2.20891,1.32915 -1.36401,0.75461 -2.68361,1.37056 -3.93698,2.32239 -2.44263,-2.79928 -0.54787,-5.59623 2.73913,-6.20895 l 0.33718,0.52897 c -0.0989,0.49169 -0.20905,1.02525 0.0715,1.48345 0.55829,0.91208 1.32671,0.013 0.98104,-0.77504 -0.11456,-0.26119 -0.28477,-0.48953 -0.44299,-0.72462 l 0.0321,-0.14453 c 1.39172,0.2198 1.89868,-0.44195 2.61355,-1.54132 -0.76063,0.0448 -1.07546,0.40321 -1.44293,1.04339 l -1.79661,-0.0951 c 0.79291,-1.35557 3.24928,-3.63767 5.20175,-3.57433 z m 25.0703,4.01175 c 0.76968,0.0532 1.59689,0.19005 2.00106,0.20154 -1.20816,0.45811 -2.41199,0.33515 -3.65722,0.0984 0.17415,-0.32273 0.88649,-0.35312 1.65616,-0.29989 z m -2.58633,0.39663 0.2888,0.064 c 0.41847,1.29381 1.12225,1.8525 2.35908,2.34069 -1.22659,1.49324 -2.66538,2.76688 -4.05989,4.0988 -1.24996,1.19387 -2.37984,2.60638 -3.78282,3.62575 -1.90555,1.38451 -4.57307,2.46247 -6.82769,3.11079 z m 3.89821,0.86396 c -0.90012,0.58176 -1.63119,0.63615 -2.64654,0.32232 l 0.064,-0.28853 z m -27.80514,-1.61033 c -0.09,-0.0109 -0.18326,-0.003 -0.27644,0.0278 -0.88714,0.29419 -0.13925,1.64579 0.66494,1.32367 0.71922,-0.2881 0.24154,-1.27489 -0.3885,-1.35142 z m 4.2487,1.52503 c 0.1631,2.6e-4 0.33067,0.0234 0.504,0.0754 0.79835,0.2395 1.09966,1.11129 1.24761,1.84935 0.4658,2.32362 -1.01818,3.64695 -1.6952,5.67605 -0.72074,2.16016 1.3849,6.44061 -1.75143,7.18382 -0.59843,0.14182 -1.22817,0.19142 -1.84005,0.23862 -0.63942,0.0493 -1.32854,0.1094 -1.95141,-0.0802 -1.35609,-0.4128 -3.20534,-2.03547 -3.69098,-3.36612 -0.32717,-0.89652 -0.25103,-1.88753 -0.63829,-2.76461 -0.48601,-1.10068 -1.61616,-1.85977 -0.92495,-3.15596 0.66185,-1.24114 2.08682,-1.80681 3.28548,-2.37949 1.53972,-0.73565 2.6748,-1.40984 4.32464,-1.86051 1.07081,-0.29251 1.98885,-1.41816 3.13058,-1.41635 z m -13.11032,1.50179 0.11291,1.53992 c -0.64643,-0.50799 -0.69485,-0.94927 -0.11291,-1.53992 z m 8.34056,1.95323 c -0.51193,0.021 -1.0223,0.28006 -1.34157,0.68076 -0.14478,0.18171 -0.43633,0.77238 0.014,0.78827 0.70998,0.025 3.0715,-1.54056 1.32752,-1.46903 z m 15.81895,3.85567 c -1.43184,2.1478 -3.57308,4.92769 -5.89342,6.14665 -1.40545,0.73834 -3.21814,0.96782 -4.78505,1.02928 l 0.0929,-5.88661 c 3.65356,0.73497 7.07485,-0.61121 10.58559,-1.28932 z m -21.20361,2.72287 c 0.13367,0.83046 0.31188,1.6208 0.69242,2.3781 0.35931,0.715 0.93721,1.38351 0.81898,2.23354 -0.38521,2.76985 -3.16504,4.32454 -4.75612,6.33261 -1.92229,2.42609 -2.65882,6.15522 -5.19047,8.03733 -2.15617,1.60296 -5.10176,1.94458 -7.38326,3.38992 -1.96337,1.24382 -3.135851,3.31396 -4.247841,5.29328 -1.488,-2.39523 -2.15283,-5.50506 -1.89761,-8.29723 0.0839,-0.91785 0.10311,-2.26463 0.91567,-2.87538 0.8551,-0.64272 2.32889,-0.51534 3.335451,-0.81328 2.14744,-0.63567 4.63044,-1.87094 6.14638,-3.55133 1.93506,-2.14504 2.72347,-5.02914 4.36294,-7.36239 1.62286,-2.30962 4.52307,-3.99998 7.20346,-4.76517 z m 21.83207,1.96044 c -3.43589,3.14943 -6.72375,6.6368 -10.64615,9.1949 -1.53487,1.001 -3.05334,2.20041 -4.93824,2.34694 1.35027,-2.10871 3.30291,-3.73793 5.17351,-5.36687 3.08646,-2.68776 6.21753,-5.42816 10.41088,-6.17497 z m 0.77104,1.98898 c -0.53946,1.32759 -1.32172,3.66835 0.75749,4.07942 0.44731,0.0884 0.91062,0.0482 1.362,0.0251 0.0828,0.93878 0.45139,2.13117 0.0908,3.03764 -0.84721,2.12892 -2.54346,0.28474 -2.97658,-0.95058 l -0.2888,-0.064 c -0.20459,2.15123 2.42843,4.3162 3.85339,1.89653 0.65864,-1.11844 0.2433,-2.51949 0.17945,-3.7292 -0.0529,-1.00173 0.1737,-1.98383 0.21476,-2.982 -0.90147,0.19413 -0.8272,1.23896 -1.5257,1.75102 -0.16647,0.12202 -0.37948,0.23862 -0.58963,0.25676 -1.83571,0.15849 -0.62938,-1.92944 -0.63112,-2.73514 -5.6e-4,-0.32738 -0.20426,-0.43004 -0.44585,-0.58555 z m -8.51695,0.83862 -3.22249,2.92104 c -0.10995,-0.55004 -0.29203,-1.20056 -0.0802,-1.74902 0.40673,-1.05338 2.37248,-1.05264 3.30275,-1.17202 z m -5.96658,0.94966 c -0.67228,1.20588 -2.24454,3.3089 -3.26375,1.05779 -0.1345,-0.29708 -0.18735,-0.61019 -0.24893,-0.92756 z m 38.95801,2.82754 0.0267,0.10698 z m -19.6093,-1.26355 c -0.18071,-0.0275 -0.37409,-0.0172 -0.57564,0.0414 -1.64294,0.47788 -0.82857,3.27112 0.9349,2.70555 1.54785,-0.49642 0.90564,-2.55442 -0.35926,-2.74701 z m 3.12472,0.23568 c -1.62212,0.27093 -1.07682,2.69317 0.21621,3.12611 1.48197,0.49618 2.97755,-1.37941 1.773,-2.53363 -0.22886,0.90619 -1.64755,2.66006 -2.10168,0.82969 -0.11693,-0.47129 0.01,-0.96143 0.11245,-1.42217 z m -3.33346,0.71094 c 0.60143,-0.0697 0.92645,0.86276 0.25505,0.99691 -0.66374,0.1326 -0.95027,-0.91626 -0.25505,-0.99691 z m -29.0177,2.41945 c -0.28675,2.74713 -1.12878,5.44294 -2.12494,8.01143 -0.3692,0.9519 -0.76175,2.28246 -1.76691,2.74341 -1.40996,0.64654 -3.34468,-0.0895 -4.76389,-0.40395 1.48871,-0.94845 2.86513,-1.58246 3.92347,-3.06891 1.69989,-2.38751 2.33226,-5.40678 4.73227,-7.28198 z m 19.50661,2.20487 -0.30966,1.59534 -0.76244,3.92041 0.54547,0.27232 c 0.33866,-0.68306 1.13255,-3.80872 2.37149,-2.45536 0.26765,0.29237 0.28488,2.21022 0.56797,2.12614 0.76,-0.22577 0.66136,-1.87977 0.40065,-2.39099 -0.47208,-0.92569 -1.53849,-1.12783 -2.47617,-1.17801 z m 8.62947,0.69838 c -0.45822,1.76581 -1.59791,3.72549 -0.61206,5.50409 0.72127,1.30128 3.9486,1.99044 4.60921,0.38005 -0.36108,0.0685 -0.72851,0.15536 -1.09904,0.13465 -1.93422,-0.10818 -1.06328,-2.4927 -0.55725,-3.53026 0.0899,-0.18427 0.88585,-1.55943 0.42601,-1.66447 -0.39488,-0.0902 -0.80666,0.85132 -0.93477,1.10085 -0.63688,1.24056 -0.5909,2.97361 -1.74857,3.84932 -0.58899,-2.11004 0.0876,-3.58855 0.63835,-5.6143 z m 15.4313,1.45066 -1.24959,2.18477 -1.89242,1.05723 1.44377,0.31986 c -0.1891,0.91023 -0.28824,1.79134 0.29169,2.59227 0.86046,1.18838 2.10847,1.1578 2.38837,-0.33208 l -0.28881,-0.064 c -0.8947,0.83178 -1.97084,0.0136 -1.76855,-1.14879 0.15148,-0.87039 2.9878,-1.71965 1.30429,-2.14329 -0.1955,-0.0492 -0.39935,-0.0831 -0.59644,-0.12388 l 0.65649,-2.27802 z m -26.53884,-0.33992 c -0.32437,-0.026 -0.60558,0.0577 -0.73949,0.35827 -0.15582,0.34976 1.20824,2.90778 -0.16331,2.01679 -0.12562,-0.0816 -0.25148,-0.2233 -0.35482,-0.31912 l -3e-5,2.8e-4 -0.28879,-0.064 c 0.0489,1.40719 2.37147,2.29181 2.55293,0.60923 0.0814,-0.75406 -0.62777,-1.50278 -1.01409,-2.08598 l 1.44403,0.32016 0.0638,-0.28884 c -0.29904,-0.1553 -0.95955,-0.50337 -1.50021,-0.54677 z m 18.72196,2.23771 c -0.27241,-0.0592 -0.55916,-0.0324 -0.85195,0.12077 -0.68063,0.35589 -1.38578,2.30707 -0.67515,2.89749 0.27044,0.2247 0.4908,-0.1606 0.57407,-0.36933 0.17253,-0.43235 0.21527,-2.02381 1.0358,-1.65199 1.492,0.67609 -0.13316,2.34911 0.96868,3.02788 l 0.51278,-0.94666 0.28851,0.0639 c 0.2271,0.33091 0.44832,0.64776 0.77696,0.88795 0.22756,0.16635 0.48506,0.29524 0.75867,0.36549 2.60373,0.66853 1.95979,-3.83945 -0.41894,-3.26514 -0.43203,0.10431 -0.77297,0.38482 -1.11723,0.64848 -0.34547,-0.64789 -1.035,-1.60123 -1.8522,-1.77895 z m -11.19046,-0.72388 c -1.1987,-0.0518 -2.66214,2.04847 -0.85338,3.048 0.26269,0.14515 0.56091,0.19359 0.85748,0.15846 0.42532,-0.0505 0.79567,-0.26402 1.16888,-0.45636 l 0.96314,1.12226 c -0.17007,-1.02999 -0.52552,-1.79624 -1.2528,-2.54954 -0.1474,0.2345 -0.2848,0.48467 -0.49213,0.6739 -0.9185,0.83834 -1.65019,-0.81831 -0.39747,-1.11693 0.3249,-0.0774 0.65971,-0.0247 0.9858,0.01 -0.20968,-0.61599 -0.57996,-0.8722 -0.97952,-0.88946 z m 14.60853,2.65927 c 0.97231,-0.0431 1.36325,1.68042 0.30081,1.77494 -1.08255,0.0963 -1.46407,-1.72338 -0.30081,-1.77494 z m -0.36009,4.65492 c -1.41543,0.48006 -1.8595,2.67197 -1.79441,3.99492 1.15095,-0.24816 1.56536,-2.96424 1.79441,-3.99492 z m -18.15117,-0.34071 c -0.65621,-0.0322 -1.31076,0.23094 -1.8186,0.91331 0.77742,-0.0838 1.64929,-0.2844 2.39796,0.034 0.52426,0.22295 1.30986,1.07274 0.52771,1.50888 -0.46523,0.25942 -1.12028,0.13827 -1.62536,0.10865 l -0.033,-1.219 c -1.03879,0.85657 -2.08683,3.39295 -0.99171,4.47555 l 0.7521,-2.71115 c 1.28051,0.27663 2.24516,0.43721 3.28819,-0.48305 0.7829,1.93778 1.57844,1.62375 3.2993,2.1998 1.50287,0.50305 2.68364,0.98461 4.27871,1.19705 0.88963,0.11849 2.75953,0.54312 3.05257,-0.74777 0.20884,-0.91996 -0.92151,-2.00604 -1.37554,-2.71858 l 1.6045,0.9615 c -0.14723,-1.85949 -3.13465,-1.6502 -1.699,0.33279 0.27288,0.3769 0.61133,0.69461 0.94579,1.01507 -1.99937,0.93534 -3.00148,-1.16645 -4.12353,-2.58003 0.66738,0.16242 1.39682,0.67169 1.82847,-0.0492 -0.47924,-0.22252 -2.94841,-1.14267 -2.56612,0.26572 0.19701,0.72582 1.07506,1.11864 1.1927,1.87241 0.16166,1.03574 -1.23178,0.19828 -1.51274,-0.0514 -1.69281,-0.85945 -2.41426,-4.11909 -4.50852,-2.21101 l -0.28881,-0.064 c -0.43303,-1.12175 -1.5314,-1.9959 -2.62508,-2.04957 z m 4.19689,1.7921 1.0272,0.83347 c -0.12423,0.34914 -0.2381,0.75387 -0.5588,0.97932 -0.50356,0.35402 -1.07862,-0.062 -1.05506,-0.63477 0.0188,-0.45799 0.32411,-0.82986 0.58666,-1.17802 z m 11.34293,4.17992 c 0.0992,1.11753 1.05513,0.57573 0,0 z" /><path
     style="fill:#21221f;stroke:none;stroke-width:0.141111;stroke-dasharray:none"
     d="m 193.8394,17.553244 c -1.15382,-0.63565 -2.06043,-0.98859 -3.38534,-0.75654 l -0.0414,0.34268 c 1.78429,0.58475 2.69456,1.54793 3.24626,3.34726 -3.0117,0.1171 -7.08155,1.05899 -7.51561,4.65502 l -0.19203,0.15065 c -1.3047,-0.27975 -3.18518,-0.64756 -4.42181,0.0202 -1.89351,1.02241 -1.82113,4.62145 -0.45907,6.04131 1.09394,1.14036 3.17393,1.36549 4.65574,1.56007 -0.2788,1.61302 -0.16456,3.08353 0.66568,4.53531 0.43244,0.75616 1.71876,1.86184 1.13295,2.81527 -0.52585,0.85588 -1.84634,1.30519 -2.70804,1.71819 -1.69677,0.81327 -3.24743,1.83375 -4.86559,2.78737 -0.87914,0.5181 -2.08898,1.08097 -2.43135,2.12921 -0.3769,1.15395 0.53622,2.32661 1.12001,3.23763 1.5727,2.45422 3.31737,5.58848 -0.0468,7.29541 l 1.84332,0.57028 -2.82748,4.69973 c 1.84561,-0.61694 2.96033,-3.05064 4.05041,-4.55202 1.90136,-2.61877 2.91153,-5.92275 4.156,-8.88515 1.30588,-3.10862 2.93622,-6.11766 3.42875,-9.49449 2.61453,1.01163 4.92635,1.43392 7.71012,0.93118 0.0791,2.9114 1.11449,5.68282 1.5995,8.53727 0.91941,5.41085 1.28952,10.93946 0.25948,16.37184 1.62368,-1.45053 1.59567,-4.01431 1.70418,-6.05225 0.29084,-5.46246 -0.83843,-10.59206 -2.00956,-15.88785 1.04705,1.47741 1.96267,3.03571 3.03321,4.49936 0.68982,0.94313 1.37574,1.89805 2.18662,2.74283 0.55677,0.58008 1.17363,1.10416 1.89935,1.46049 0.52265,0.25663 1.09523,0.43361 1.67907,0.46358 5.34903,0.27455 2.76777,-7.26124 4.88422,-9.87102 1.48545,-1.83171 5.00695,-2.16454 7.10876,-3.04225 -0.22888,1.30348 -1.09974,3.25555 0.005,4.36365 0.59189,0.59387 1.53608,0.7041 2.3217,0.84527 1.75704,0.31573 3.52649,0.53576 5.29759,0.75366 6.3367,0.77964 12.61595,2.05403 18.93559,2.9817 -0.96597,-1.96829 -4.77191,-1.88982 -6.68131,-2.25295 -4.00907,-0.76246 -8.06949,-1.36214 -12.11022,-1.92161 -2.45059,-0.33934 -4.93643,-0.48497 -7.34592,-1.0682 0.80355,-2.53781 1.02499,-4.31104 3.76692,-5.28159 0.10279,1.54582 1.40671,1.49024 2.66035,1.6747 2.82483,0.41563 5.66802,0.54457 8.46162,1.23304 -0.63611,-1.37325 -1.92972,-1.39816 -3.27524,-1.66841 -2.43233,-0.48855 -5.16025,-0.50587 -7.4834,-1.36929 l 5.67311,-2.35303 2.55536,0.43205 7.70405,0.9813 6.28822,1.1897 c -1.09073,-1.06211 -2.56609,-1.23963 -3.96963,-1.67601 -2.48874,-0.77379 -4.82843,-1.42326 -7.43857,-1.73981 -1.16229,-0.14097 -2.29876,0.0882 -3.46242,-0.11852 l 0.0207,-0.17134 1.89959,-1.3351 c -1.7818,0.0488 -3.46292,0.59244 -5.26929,0.44897 -1.77618,-0.1411 -3.56879,-1.96553 -4.87517,0.0642 1.62692,0.0937 2.77313,0.74391 4.15927,1.54534 l -6.17722,2.20913 1.90376,-15.76288 c 3.39573,0.0633 6.73575,0.56438 10.11548,0.85133 2.88991,0.24536 5.76629,0.27679 8.66028,0.57531 1.48551,0.15323 2.95668,0.35367 4.43476,0.56193 0.39,0.055 1.20927,0.20361 1.39669,-0.29825 0.21083,-0.56451 -0.72676,-0.81381 -1.08805,-0.89443 -1.49444,-0.33347 -3.07623,-0.41294 -4.5952,-0.59638 -4.41371,-0.53303 -8.83682,-0.54695 -13.25496,-1.07931 -1.59985,-0.19278 -4.33984,-0.86877 -5.83207,-0.0503 -1.14776,0.6295 -1.10277,2.93563 -1.30414,4.05579 -0.70999,3.94958 -0.56579,8.0642 -1.64434,11.9599 -0.62426,2.25476 -3.85288,2.92963 -5.88023,3.24035 -0.85791,0.13148 -1.72363,0.0377 -2.49862,0.49838 -1.05929,0.62963 -4.32389,3.29489 -1.19926,2.76316 -0.0397,1.86407 -0.32415,3.65166 -0.62167,5.48737 -0.16471,1.01612 -0.4175,2.10301 -1.46661,2.54895 -1.41475,0.60135 -2.8221,-0.6051 -3.72338,-1.56412 -1.71878,-1.82894 -3.02871,-4.03618 -4.3902,-6.12963 -0.71241,-1.09541 -1.6211,-2.01268 -2.14011,-3.22384 2.75604,-1.06477 5.72155,-2.68256 5.75507,-5.91066 0.82714,-0.007 1.86244,0.0508 2.57651,-0.44351 1.48236,-1.02606 1.22935,-4.25459 0.0834,-5.39534 -0.7177,-0.71441 -1.75678,-0.81796 -2.70951,-0.94671 l 0.0207,-0.17134 0.85669,0.10347 c -1.10736,-4.79293 -5.52546,-6.21444 -9.70654,-7.43037 0.56002,-0.78493 1.34442,-1.44452 1.85349,-2.25186 0.59501,-0.94361 -0.7223,-0.5797 -1.14683,-0.35579 -0.27911,0.14722 -0.53875,0.33694 -0.80102,0.51023 0.0895,-0.6 0.26735,-1.28916 0.12488,-1.89293 -0.21411,-0.90746 -0.71356,-0.0298 -0.80342,0.40448 -0.0474,0.22959 -0.0668,0.46765 -0.0954,0.69965 m 30.96708,8.43361 c 0.88067,-1.04567 1.61009,-0.54453 2.01466,0.59098 l 6.03816,0.38159 c -0.74717,-1.57915 -3.27257,-1.51617 -4.75018,-2.12218 -0.84826,-0.34789 -1.57358,-0.86149 -2.53095,-0.82525 -1.36289,0.0516 -2.13338,1.19256 -0.77169,1.97486 m 17.175,1.72663 c -1.03875,-1.25486 -2.47486,-1.23749 -3.98763,-1.48365 -0.49255,-0.0802 -1.38583,-0.25867 -1.73691,0.23744 -0.25166,0.35559 0.22922,0.5999 0.49814,0.69585 0.86163,0.30742 1.876,0.53917 2.79059,0.55547 0.81522,0.0145 1.61924,-0.0535 2.43581,-0.005 m -38.42397,0.0529 c -2.83917,-0.3429 -6.48806,-1.71235 -8.90366,0.31534 l 0.19782,1.24074 -2.37801,-0.46104 c -0.68127,-3.14451 -2.97136,-2.96271 -5.64497,-3.63697 4.24809,-6.24658 13.85124,-3.42489 16.72882,2.54193 m 39.6614,4.09476 c -0.3032,-0.95336 -1.0782,-0.94641 -1.94169,-1.19838 -1.87466,-0.54706 -3.76986,-0.40818 -5.6298,-0.88072 -0.99885,-0.25378 -1.75587,-1.06025 -2.8341,-1.00261 -1.08119,0.0578 -2.10721,0.88398 -3.19722,0.56457 -1.40983,-0.41314 -4.14131,-2.65836 -5.46375,-0.74777 -0.189,0.27306 -0.16483,0.62757 0.18032,0.74763 0.65425,0.22758 1.4613,-0.20366 2.16807,-0.0564 1.04514,0.21784 1.80272,0.97222 2.79124,1.30082 1.36157,0.45262 2.53756,-0.49442 3.83778,-0.25505 0.55046,0.10133 0.98377,0.50628 1.53199,0.62607 1.38394,0.30238 2.88657,0.10866 4.28895,0.25861 1.46936,0.15709 2.7602,0.67871 4.26821,0.64317 m -60.76843,-5.80321 c 1.71508,-0.61835 4.39146,0.20574 6.12417,0.53863 0.69874,0.13425 1.58817,0.19004 2.16048,0.65916 1.53074,1.2548 -0.71042,4.21882 -1.98721,4.73 -1.70823,0.68391 -5.6542,-0.0307 -6.92933,-1.3855 -1.13517,-1.20611 -1.13448,-3.90545 0.63189,-4.54229 m 15.22027,1.82492 c 0.96046,-0.0563 1.93012,0.22943 2.87167,0.37891 1.47834,0.23466 3.55401,0.16476 4.76659,1.1654 1.9412,1.60192 0.49101,4.14427 -1.61516,4.35561 -2.26598,0.22738 -5.97812,0.55864 -7.8135,-1.1456 -1.37314,-1.27504 0.007,-4.6498 1.79041,-4.75432 m 4.99688,7.25099 c -2.03243,5.37162 -11.54544,6.56009 -15.04738,2.03251 -0.89513,-1.15729 -1.01833,-2.5697 -1.05819,-3.97766 1.27353,-0.033 2.51718,-0.0122 3.53974,-0.89153 0.87618,-0.75341 1.54831,-2.5194 2.93442,-2.32941 1.72104,0.23588 1.0993,2.74116 2.30369,3.62738 1.96623,1.44681 5.02454,1.34071 7.32772,1.53871 m -12.33039,-0.0985 3.87863,0.98995 c -0.46,-2.07318 -2.37442,-2.1549 -3.87863,-0.98995 m 31.96282,5.94633 c -0.034,0.63594 -0.0233,1.23322 0.62746,1.54723 0.90066,0.4346 2.16997,0.25538 3.14625,0.31157 1.79346,0.10321 3.52871,0.44523 5.31291,0.62931 -2.28047,-2.30473 -6.15138,-1.81034 -9.08662,-2.48811 m 23.65017,4.24702 c -2.56069,-2.26996 -6.83871,-1.73898 -9.96087,-2.44567 -0.51621,-0.1168 -3.25808,-0.85604 -3.24528,0.30599 0.008,0.72929 2.58543,0.75383 3.10509,0.85316 3.29112,0.62914 6.7537,1.11421 10.10106,1.28652 m -58.17476,-3.37551 -5.5548,12.88824 c -0.69753,-1.51927 -1.25908,-3.10122 -2.14524,-4.52773 -0.46617,-0.75042 -1.37364,-1.64943 -1.25921,-2.60817 0.11634,-0.97466 1.36236,-1.58551 2.08691,-2.06235 2.1848,-1.43791 4.41672,-2.76444 6.87234,-3.68999 z"
     id="path5" /><g
     inkscape:label="Rendered Gear Rack"
     transform="matrix(0.85407657,0,0,0.85393567,10.046788,81.690604)"
     id="g6"
     style="stroke-width:0.0163933;stroke-dasharray:none"><path
       style="fill:none;stroke:#000000;stroke-width:0.0163933;stroke-dasharray:none"
       d="m 3.852,10.583 h 6.731 L 14.435,0 h 6.732 l 3.852,10.583 H 31.75 L 35.602,0 h 6.731 l 3.852,10.583 h 6.732 L 56.769,0 H 63.5 l 3.852,10.583 h 6.731 L 77.935,0 h 6.732 l 3.852,10.583 H 95.25 L 99.102,0 h 6.731 l 3.852,10.583 h 6.732 L 120.269,0 H 127 l 3.852,10.583 h 6.731 L 141.435,0 h 6.732 l 3.852,10.583 h 6.731 L 162.602,0 h 6.731 l 3.852,10.583 h 6.732 L 183.769,0 h 6.731 l 3.852,10.583 h 6.731 L 204.935,0 h 6.732 l 3.852,10.583 h 6.731 L 226.102,0 h 6.731 l 3.852,10.583 h 6.732 L 247.269,0 H 254 l 3.852,10.583 h 6.731 L 268.435,0 h 6.732 l 3.852,10.583 h 6.731 L 289.602,0 h 6.731 l 3.852,10.583 h 6.732 L 310.769,0 h 6.731 l 3.852,10.583 h 6.731 L 331.935,0 h 6.732 l 3.852,10.583 h 6.731 L 353.102,0 h 6.731 l 3.852,10.583 h 6.732 l 3.93319,-10.4808724 0.11152,-94.5865336 H -0.04658 L 0.02151,0.053745 Z"
       id="path6"
       sodipodi:nodetypes="ccccccccccccccccccccccccccccccccccccccccccccccccccccccccccccccccccccccccccc" /></g><path
     style="fill:#000000;stroke-width:1"
     d="m 129.21704,70.125484 c -0.0463,-0.0512 -0.0843,-0.15869 -0.0843,-0.23886 0,-0.14288 0.25752,-0.61344 0.55668,-1.01712 0.28679,-0.38702 0.73315,-1.16936 0.98655,-1.7291 0.13988,-0.30899 0.31583,-0.64198 0.391,-0.73998 0.17735,-0.23119 0.91243,-1.65315 1.09218,-2.11271 0.0766,-0.196 0.26327,-0.60836 0.41471,-0.91636 0.1514,-0.308 0.34517,-0.77763 0.43057,-1.04363 0.0854,-0.266 0.25478,-0.68981 0.37639,-0.94181 0.12163,-0.252 0.23771,-0.51545 0.25795,-0.58545 0.0202,-0.07 0.1746,-0.41364 0.34299,-0.76364 0.3505,-0.72851 0.93916,-1.96471 1.07879,-2.26543 0.17967,-0.38699 0.442,-1.02111 0.74762,-1.80727 0.16874,-0.434 0.38524,-0.95452 0.48111,-1.15672 0.0959,-0.2022 0.17432,-0.39055 0.17432,-0.41855 0,-0.028 0.0588,-0.18328 0.13056,-0.34508 0.0718,-0.1618 0.17694,-0.43163 0.23361,-0.59963 0.0567,-0.168 0.21347,-0.59182 0.34846,-0.94181 0.26015,-0.6745 0.60895,-1.78467 0.5783,-1.84062 -0.0186,-0.034 -0.29177,-0.19341 -1.46912,-0.85746 -0.36399,-0.20531 -0.76412,-0.44395 -0.88917,-0.53032 -0.12505,-0.0864 -0.3481,-0.22576 -0.49569,-0.30976 -0.99563,-0.56669 -2.08354,-1.28874 -2.20997,-1.46678 -0.0341,-0.048 -0.0783,0.42786 -0.12458,1.33951 -0.0652,1.28543 -0.22189,2.37411 -0.50558,3.5127 -0.15,0.602 -0.28796,1.17472 -0.30656,1.27272 -0.0186,0.098 -0.088,0.35 -0.15422,0.56 -0.11935,0.37858 -0.46944,1.59977 -0.61296,2.13816 -0.0411,0.154 -0.18005,0.58927 -0.3089,0.96727 -0.12883,0.378 -0.286,0.85909 -0.34926,1.06908 -0.0632,0.21 -0.22394,0.65673 -0.3571,0.99273 -0.13315,0.33599 -0.34071,0.89067 -0.4612,1.2326 -0.12051,0.34193 -0.24148,0.66351 -0.26884,0.71462 -0.0273,0.0511 -0.16526,0.47206 -0.30646,0.93545 -0.1412,0.4634 -0.38405,1.16127 -0.5397,1.55082 -0.15564,0.38956 -0.32667,0.82284 -0.38007,0.96284 -0.29289,0.76793 -0.38463,0.97195 -0.59294,1.31851 -0.39623,0.65924 -0.73455,0.84829 -1.01542,0.56743 -0.0872,-0.0872 -0.12495,-0.18134 -0.12495,-0.31141 0,-0.18582 0.24151,-0.8145 0.71244,-1.85453 0.53589,-1.18352 1.33296,-3.19547 1.45213,-3.66543 0.13346,-0.52642 0.41503,-1.37135 0.8228,-2.46908 0.20799,-0.55999 0.43216,-1.2129 0.49813,-1.4509 0.066,-0.238 0.15491,-0.53581 0.19764,-0.66181 0.0427,-0.126 0.15024,-0.49254 0.23892,-0.81454 0.0887,-0.322 0.23947,-0.81367 0.33509,-1.09259 0.0956,-0.27893 0.2305,-0.80583 0.29972,-1.1709 0.0693,-0.36507 0.18333,-0.88114 0.25356,-1.14681 0.0703,-0.26568 0.12772,-0.56777 0.12772,-0.67132 0,-0.10355 0.0459,-0.37872 0.10199,-0.61149 0.19929,-0.82712 0.39112,-2.92295 0.33223,-3.62993 l -0.0357,-0.42924 -0.48577,-0.39071 c -0.55762,-0.4485 -1.99501,-1.88009 -2.31413,-2.30481 -0.11848,-0.15767 -0.25327,-0.32104 -0.29956,-0.36304 -0.0463,-0.042 -0.23833,-0.28254 -0.42677,-0.53454 -0.18843,-0.252 -0.3783,-0.48599 -0.4219,-0.51998 -0.0436,-0.034 -0.11615,-0.11695 -0.16117,-0.18435 -0.54318,-0.81308 -0.78661,-1.19215 -0.86787,-1.35141 -0.0536,-0.10492 -0.20967,-0.36111 -0.34697,-0.56932 -0.23585,-0.35759 -0.61332,-1.00777 -0.86311,-1.48662 -0.14673,-0.28131 -0.14788,-0.4679 -0.004,-0.56904 0.2231,-0.15626 0.34521,-0.10415 0.73894,0.31529 0.37501,0.3995 1.09476,1.36604 1.26054,1.69272 0.0497,0.098 0.15386,0.25896 0.23141,0.35768 0.0775,0.0987 0.2539,0.38509 0.39192,0.63636 0.7516,1.36846 1.19258,1.90955 2.83139,3.47415 0.38805,0.37048 0.72921,0.6736 0.75813,0.6736 0.056,0 0.0295,-0.8346 -0.0622,-1.95999 -0.0273,-0.336 -0.073,-0.98891 -0.10148,-1.4509 -0.0285,-0.462 -0.0731,-1.04618 -0.0993,-1.29818 -0.17262,-1.66085 -0.26957,-2.50465 -0.33632,-2.92725 -0.042,-0.266 -0.0991,-0.69421 -0.12692,-0.95157 -0.0672,-0.62203 -0.2111,-1.24366 -0.70954,-3.06485 -0.14243,-0.52038 -0.30424,-0.87197 -0.4005,-0.87017 -0.019,3.5e-4 -0.20842,0.0561 -0.42072,0.12394 -0.21231,0.0678 -0.76156,0.18448 -1.22056,0.25926 -1.01358,0.16513 -1.92356,0.15809 -2.79705,-0.0217 -0.52474,-0.10797 -0.6862,-0.16025 -1.19636,-0.38735 -0.14,-0.0623 -0.53962,-0.2216 -0.88804,-0.35394 -0.34845,-0.13234 -0.81184,-0.33027 -1.02979,-0.43986 -0.43151,-0.21696 -0.48362,-0.22786 -0.67428,-0.14099 -0.23627,0.10765 -0.37138,0.39183 -0.58949,1.23993 -0.45353,1.76352 -1.46285,4.56521 -2.0174,5.59997 -0.0751,0.14 -0.29611,0.56381 -0.49129,0.94181 -0.19519,0.378 -0.38432,0.72163 -0.42028,0.76363 -0.0361,0.042 -0.15782,0.27109 -0.27077,0.50909 -0.11296,0.238 -0.2788,0.55872 -0.36853,0.71272 -0.0898,0.154 -0.33818,0.64654 -0.55208,1.09454 -0.47216,0.98893 -1.14844,2.28596 -1.30065,2.49453 -0.0613,0.084 -0.23211,0.35891 -0.37956,0.6109 -0.14746,0.252 -0.35741,0.57747 -0.46657,0.72327 -0.10916,0.1458 -0.19848,0.27878 -0.19848,0.29553 0,0.0167 -0.10881,0.19829 -0.24182,0.40344 -0.13299,0.20515 -0.28114,0.43871 -0.3292,0.51902 -0.19477,0.32539 -0.80428,1.27906 -0.93926,1.46963 -0.1913,0.27005 -0.52607,0.83647 -0.52607,0.89008 0,0.0234 -0.0951,0.16288 -0.21129,0.30989 -0.11621,0.14702 -0.28229,0.38736 -0.3691,0.53409 -0.0868,0.14674 -0.21768,0.36642 -0.29087,0.48818 -0.0732,0.12176 -0.24123,0.41611 -0.3734,0.65411 -0.36491,0.65713 -0.66104,1.15878 -0.91654,1.55272 -0.21533,0.33199 -0.3321,0.49946 -0.95054,1.36318 -0.12946,0.18081 -0.37735,0.56661 -0.55086,0.85732 -0.37509,0.62843 -0.80703,1.25325 -1.12282,1.62421 -0.126,0.148 -0.33218,0.41172 -0.45817,0.58604 -0.12601,0.17431 -0.37186,0.49724 -0.54637,0.71762 -0.17449,0.22037 -0.39213,0.49543 -0.48363,0.61123 -0.88932,1.12545 -2.07969,2.3224 -3.10367,3.12085 -0.96787,0.75468 -1.29184,0.99471 -1.56514,1.15961 -0.56905,0.34336 -0.91109,0.11826 -0.59094,-0.38889 0.0686,-0.10871 0.22039,-0.27434 0.33728,-0.36808 0.11687,-0.0937 0.44193,-0.37661 0.72235,-0.6286 0.5086,-0.45704 0.71106,-0.63035 1.31936,-1.12932 0.37574,-0.30822 1.72174,-1.70541 1.94289,-2.01679 0.0835,-0.11763 0.27137,-0.33987 0.41738,-0.49387 0.32343,-0.34111 1.28293,-1.54975 1.53577,-1.93454 0.22889,-0.34837 0.38237,-0.57709 0.90523,-1.34908 0.22756,-0.336 0.50253,-0.77127 0.61104,-0.96727 0.10851,-0.19599 0.26995,-0.45945 0.35875,-0.58545 0.0888,-0.12599 0.23719,-0.37328 0.32976,-0.54952 0.0926,-0.17624 0.25623,-0.4203 0.36366,-0.54236 0.10744,-0.12205 0.19535,-0.23718 0.19535,-0.25584 0,-0.0187 0.0657,-0.12968 0.14587,-0.24673 0.0803,-0.11705 0.20445,-0.32879 0.27602,-0.47055 0.0716,-0.14176 0.1692,-0.29015 0.21694,-0.32977 0.0477,-0.0396 0.1723,-0.24435 0.27681,-0.45498 0.10451,-0.21062 0.26769,-0.51274 0.36264,-0.67138 0.25302,-0.42279 0.76255,-1.24434 0.92197,-1.48661 0.0762,-0.11572 0.21688,-0.3596 0.31273,-0.54194 0.0959,-0.18235 0.24695,-0.42289 0.3358,-0.53454 0.0889,-0.11166 0.23651,-0.32901 0.32815,-0.48301 0.0916,-0.154 0.33641,-0.54713 0.54393,-0.87364 0.20751,-0.3265 0.53765,-0.8736 0.73365,-1.21578 0.196,-0.34218 0.48363,-0.81958 0.63918,-1.06089 0.33913,-0.52606 0.49466,-0.81722 0.95509,-1.78784 0.1926,-0.406 0.48099,-0.94435 0.64086,-1.19635 0.15989,-0.252 0.32947,-0.54933 0.37687,-0.66074 0.0475,-0.11141 0.26723,-0.55813 0.48852,-0.99272 1.06344,-2.08839 1.31926,-2.63492 1.60903,-3.43742 0.34033,-0.94253 0.38852,-1.10068 0.63606,-2.08726 0.19845,-0.79089 0.28206,-1.11507 0.45306,-1.75635 0.17286,-0.64838 0.17804,-0.83767 0.0308,-1.13042 -0.095,-0.18907 -0.21372,-0.30409 -0.56348,-0.54607 -0.33607,-0.23249 -0.57064,-0.45578 -0.97097,-0.92424 -0.29032,-0.33972 -0.57203,-0.68962 -0.62603,-0.77756 -0.054,-0.0879 -0.24002,-0.37751 -0.41338,-0.6435 -0.51283,-0.78683 -0.98552,-1.94893 -1.14721,-2.82036 -0.13377,-0.72091 -0.1925,-2.46225 -0.10128,-3.00223 0.14209,-0.84093 0.4463,-2.0139 0.64694,-2.49439 0.15173,-0.36338 0.59961,-1.166 0.76314,-1.36758 0.0621,-0.0765 0.1633,-0.24011 0.22492,-0.36348 0.0616,-0.12337 0.21295,-0.34711 0.33633,-0.49719 0.12336,-0.15009 0.34661,-0.42179 0.49609,-0.60379 0.14948,-0.182 0.4086,-0.45691 0.57583,-0.61091 0.38916,-0.35839 1.27526,-1.00678 1.66949,-1.22164 0.168,-0.0916 0.32591,-0.17825 0.35091,-0.19263 0.0754,-0.0435 -0.15397,-0.13809 -1.13999,-0.47019 -0.841,-0.28326 -1.07641,-0.37893 -1.59091,-0.64652 -0.15649,-0.0814 -0.18177,-0.22186 -0.0584,-0.32428 0.12785,-0.10611 0.94667,-0.12261 1.36928,-0.0276 0.54468,0.12245 1.32762,0.40016 1.7998,0.63839 0.23389,0.11801 0.4329,0.20692 0.44222,0.19759 0.0395,-0.0395 -0.56655,-0.77303 -1.11543,-1.35001 -0.43236,-0.4545 -0.59206,-0.65678 -0.59206,-0.74994 0,-0.15931 0.17483,-0.21461 0.4213,-0.13326 0.4003,0.13211 1.17643,0.85206 1.66691,1.54624 l 0.17262,0.24431 0.13494,-0.5243 c 0.13963,-0.54278 0.17662,-0.6465 0.39164,-1.09837 0.13575,-0.28528 0.22503,-0.36502 0.72535,-0.64781 0.5474,-0.30941 0.65385,-0.21275 0.38261,0.34741 -0.2174,0.449 -0.48713,0.91487 -0.6052,1.04534 -0.21011,0.23217 -0.38112,0.97789 -0.22298,0.97233 0.035,-10e-4 0.15527,-0.0355 0.26727,-0.0762 0.112,-0.0407 0.45564,-0.11842 0.76364,-0.17273 0.30799,-0.0543 0.66308,-0.1212 0.78908,-0.14865 0.2853,-0.0621 1.85548,-0.0354 2.52754,0.043 0.53731,0.0627 1.46043,0.25483 1.87608,0.39046 0.88262,0.288 2.03323,1.04278 2.95312,1.93721 1.23714,1.20291 1.68891,1.81142 2.33531,3.14547 0.29548,0.60982 0.37173,0.82159 0.5591,1.55272 0.23942,0.93426 0.26154,1.14153 0.26083,2.44362 -7.2e-4,1.17912 -0.008,1.28342 -0.14514,1.90908 -0.15471,0.70881 -0.43552,1.72292 -0.59209,2.13817 -0.0527,0.14 -0.18839,0.42636 -0.30132,0.63636 -0.11295,0.21 -0.20509,0.41618 -0.20477,0.45818 7.1e-4,0.10141 0.26739,0.39214 0.58219,0.63482 0.43651,0.33649 1.71333,1.64958 2.1011,2.16076 0.8342,1.09972 1.31111,1.81279 1.90965,2.85529 0.21704,0.378 0.49712,0.84763 0.62243,1.04363 0.12531,0.196 0.28501,0.46388 0.35489,0.59529 0.12315,0.23158 1.45808,2.45973 2.01477,3.36287 0.15102,0.245 0.28825,0.44545 0.30497,0.44545 0.0168,0 0.18909,-0.13905 0.38307,-0.309 0.40501,-0.35481 1.17394,-0.88676 1.4727,-1.0188 0.69808,-0.30854 1.91117,-0.42012 4.60724,-0.4238 2.84174,-0.004 5.7888,0.0507 6.18542,0.1145 0.21207,0.0341 1.41796,0.0682 2.97817,0.0842 3.87342,0.0396 4.47723,0.0618 4.99968,0.18403 0.51759,0.12105 0.71507,0.24822 0.69218,0.44573 -0.0125,0.10807 -0.0745,0.16218 -0.31929,0.27875 -0.25727,0.12252 -0.40522,0.15218 -0.96726,0.19385 -0.36493,0.0271 -0.86971,0.0368 -1.12169,0.0216 -0.25201,-0.0152 -1.30582,-0.0422 -2.34182,-0.0599 -1.03599,-0.0177 -1.9021,-0.0432 -1.92471,-0.0565 -0.0226,-0.0133 -0.52658,-0.032 -1.12,-0.0417 -0.5934,-0.01 -1.65163,-0.0577 -2.35161,-0.1068 -1.64864,-0.11573 -6.23916,-0.11276 -6.97451,0.005 -0.252,0.0402 -0.58418,0.0864 -0.73818,0.10268 -1.02063,0.10796 -2.24647,0.64566 -2.81413,1.23439 l -0.19232,0.19947 0.25831,0.46823 c 0.21776,0.39474 0.28644,0.58995 0.43755,1.24366 0.20497,0.88667 0.20701,1.16746 0.0127,1.74196 -0.10921,0.32288 -0.14581,0.37335 -0.39764,0.54824 -0.15254,0.10595 -0.45727,0.24946 -0.67715,0.31892 -0.37516,0.11851 -0.43335,0.12335 -0.94445,0.0785 -0.29956,-0.0263 -0.65822,-0.0733 -0.79704,-0.1044 -0.23678,-0.0531 -0.25803,-0.0493 -0.34377,0.0606 -0.16538,0.21188 -0.15829,0.31749 0.0613,0.91463 0.30402,0.82696 0.39038,1.14332 0.53931,1.97584 0.1665,0.93077 0.15324,1.42015 -0.0544,2.01208 -0.23883,0.68045 -0.43303,0.90441 -1.03809,1.19706 -0.40287,0.19485 -0.77008,0.26269 -1.20742,0.22306 l -0.36908,-0.0334 -0.20888,0.65575 c -0.45371,1.42432 -0.94668,2.77215 -1.2267,3.35391 -0.16174,0.336 -0.33902,0.7369 -0.39394,0.8909 -0.0979,0.27436 -0.63131,1.60645 -0.72375,1.80726 -0.25175,0.54688 -0.40255,0.89868 -0.45829,1.06909 -0.0366,0.112 -0.19243,0.42921 -0.3462,0.70492 -0.15378,0.27571 -0.37616,0.72243 -0.49416,0.99272 -0.11802,0.27029 -0.36568,0.78925 -0.55037,1.15325 -0.32249,0.63565 -0.54506,1.13606 -0.74718,1.67999 -0.0521,0.14 -0.21347,0.52945 -0.35879,0.86545 -0.1453,0.336 -0.34926,0.82854 -0.45321,1.09454 -0.25338,0.64832 -1.09783,2.35982 -1.30952,2.65408 -0.0933,0.12974 -0.1697,0.25603 -0.1697,0.28063 0,0.13236 -0.98217,1.45218 -1.29584,1.74129 -0.25888,0.23864 -0.50682,0.28327 -0.65626,0.11814 z m 10.20956,-19.92038 c 0.50771,-0.10772 0.9791,-0.43806 1.10689,-0.77568 0.16228,-0.42874 0.0982,-1.42674 -0.15405,-2.39979 -0.0871,-0.33599 -0.17035,-0.66278 -0.18499,-0.7262 -0.0146,-0.0634 -0.0436,-0.1258 -0.0643,-0.13864 -0.0616,-0.0381 -0.51149,1.10137 -0.71322,1.80666 -0.0521,0.18199 -0.11809,0.39963 -0.14676,0.48363 -0.0286,0.084 -0.0874,0.38345 -0.1307,0.66544 -0.0432,0.28199 -0.1246,0.6464 -0.18082,0.80978 -0.0562,0.16339 -0.10221,0.30494 -0.10221,0.31456 0,0.0368 0.31185,0.015 0.57023,-0.0397 z m -1.31352,-0.51548 c 0.0407,-0.147 0.15332,-0.55364 0.25012,-0.90363 0.0968,-0.35 0.19039,-0.73368 0.20792,-0.85263 0.0345,-0.23414 0.2122,-0.80196 0.37841,-1.20918 0.36254,-0.88834 0.67822,-1.83187 0.6535,-1.9532 -0.0663,-0.32544 -0.18677,-0.51456 -0.37805,-0.59366 -0.82477,-0.34109 -2.16309,-1.01161 -3.01587,-1.51099 -0.40599,-0.23774 -1.03599,-0.59979 -1.4,-0.80455 -0.69153,-0.38902 -1.70314,-1.03287 -2.2619,-1.43962 -0.18006,-0.13108 -0.33495,-0.23075 -0.34421,-0.22149 -0.0313,0.0313 0.0857,1.45654 0.1584,1.93011 0.0741,0.48301 0.11238,1.10071 0.16154,2.60796 0.0282,0.86683 0.0918,1.74519 0.12848,1.77625 0.16531,0.14003 1.20698,0.85209 1.50563,1.0292 0.0893,0.053 0.47879,0.33116 0.86544,0.61816 0.38665,0.28699 0.88626,0.64096 1.11025,0.78659 0.37597,0.24443 1.78526,1.00317 1.86949,1.0065 0.0202,7.8e-4 0.0702,-0.11882 0.11085,-0.26582 z m 4.66252,-5.75889 c 0.22479,-0.14875 0.45754,-0.55275 0.45836,-0.79562 0.002,-0.37999 -0.50793,-1.92584 -0.64998,-1.97319 -0.0676,-0.0225 -0.724,1.17569 -0.724,1.32157 0,0.0275 -0.0916,0.18062 -0.20362,0.34029 -0.11201,0.15967 -0.20365,0.30955 -0.20365,0.33306 0,0.0235 -0.0797,0.19905 -0.17699,0.39007 -0.0973,0.19101 -0.16034,0.35624 -0.13999,0.36717 0.0689,0.037 0.49412,0.13589 0.67335,0.15659 0.42957,0.0496 0.75029,0.003 0.96652,-0.13994 z m -2.47807,-0.52835 c 0.0648,-0.13299 0.14355,-0.28763 0.17509,-0.34363 0.0316,-0.056 0.175,-0.36862 0.31881,-0.69472 0.29247,-0.66313 0.72164,-1.40323 1.18761,-2.04799 0.0927,-0.12829 0.092,-0.13251 -0.0802,-0.44975 -0.23863,-0.4397 -0.85874,-1.50993 -1.33595,-2.30569 -0.60468,-1.00829 -1.11486,-1.89839 -1.29847,-2.26544 -0.17702,-0.35389 -0.42492,-0.78442 -0.68883,-1.19635 -0.0897,-0.14 -0.25079,-0.40345 -0.35795,-0.58545 -0.40769,-0.69233 -1.13287,-1.71534 -1.37133,-1.93454 -0.0762,-0.07 -0.30581,-0.33345 -0.51035,-0.58545 -0.42476,-0.5233 -1.26088,-1.32893 -1.86281,-1.79487 -0.0704,-0.0545 -0.12624,0.004 -0.41335,0.43552 -0.18255,0.27421 -0.52189,0.69923 -0.75406,0.9445 l -0.42211,0.44594 0.25547,0.26445 c 0.14052,0.14545 0.41196,0.45918 0.6032,0.69718 0.19125,0.238 0.51087,0.616 0.71025,0.84 0.53416,0.60011 0.66379,0.77323 1.34813,1.80048 0.39478,0.59261 0.70438,1.12276 0.84539,1.44761 0.12237,0.28192 0.34504,0.73169 0.4948,0.9995 0.14977,0.26781 0.33624,0.62438 0.41438,0.79237 0.32181,0.69198 0.6053,1.34641 0.74282,1.71488 0.0803,0.21519 0.25999,0.6161 0.39928,0.89091 0.13929,0.2748 0.30983,0.64856 0.37896,0.83056 0.0692,0.182 0.2189,0.53179 0.33281,0.77731 0.11389,0.24553 0.27804,0.67631 0.36475,0.95731 0.14909,0.48314 0.19466,0.55311 0.39326,0.60395 0.006,0.002 0.0656,-0.10559 0.13039,-0.23859 z m -1.35818,-0.30545 c -0.0398,-0.077 -0.12319,-0.31181 -0.1853,-0.52181 -0.0621,-0.21 -0.22444,-0.59351 -0.36074,-0.85224 -0.13629,-0.25873 -0.32583,-0.6711 -0.42119,-0.91636 -0.0954,-0.24526 -0.25797,-0.6292 -0.36139,-0.8532 -0.1034,-0.224 -0.24067,-0.54473 -0.30504,-0.71273 -0.17365,-0.4532 -1.129,-2.34534 -1.34837,-2.67055 -0.10468,-0.15518 -0.37425,-0.62816 -0.59903,-1.05105 -0.52692,-0.99127 -1.1726,-1.9199 -2.00007,-2.87652 -0.39066,-0.45165 -1.01696,-1.06365 -1.0885,-1.06365 -0.0328,0 -0.17926,0.0859 -0.32541,0.19091 -0.14615,0.105 -0.439,0.30351 -0.65076,0.44112 -0.47544,0.30899 -0.56737,0.45678 -0.45349,0.72912 0.0439,0.10536 0.1588,0.50084 0.25498,0.87884 0.0962,0.378 0.22002,0.80539 0.2752,0.94977 0.0551,0.14437 0.14831,0.54379 0.20696,0.88758 0.0587,0.3438 0.11478,0.63823 0.12471,0.65428 0.0704,0.11388 0.18349,0.93113 0.22941,1.65743 0.03,0.476 0.0797,0.98 0.11007,1.11999 0.0622,0.28574 -0.10836,0.1537 1.50567,1.16601 0.44214,0.2773 0.88407,0.55593 0.98206,0.61916 0.33814,0.2182 1.45154,0.87291 1.67999,0.98788 0.126,0.0634 0.49585,0.27297 0.82189,0.46567 0.32603,0.19269 0.60631,0.35036 0.62282,0.35036 0.0165,0 0.17357,0.0711 0.34902,0.15807 0.42988,0.21302 0.86462,0.39714 0.94392,0.39977 0.0508,0.001 0.0491,-0.0284 -0.007,-0.13785 z m -11.43564,-10.53018 c -0.23358,-0.10119 -0.44291,-0.30373 -0.57063,-0.55217 -0.15639,-0.30418 -0.11163,-0.87922 0.10228,-1.31371 0.17165,-0.34866 0.56239,-0.88819 0.81691,-1.12798 0.22223,-0.20935 0.29137,-0.1306 0.33616,0.38289 0.0197,0.2264 0.11606,0.67847 0.21403,1.00461 0.098,0.32614 0.18128,0.70844 0.18516,0.84955 0.007,0.29472 -0.12498,0.57141 -0.32305,0.67165 -0.17473,0.0884 -0.0649,0.0798 0.44877,-0.035 0.60068,-0.13433 1.10382,-0.32314 1.41148,-0.5297 0.14039,-0.0942 0.44997,-0.28863 0.68796,-0.43196 0.23799,-0.14334 0.48941,-0.3051 0.55869,-0.35947 0.12595,-0.0988 0.12595,-0.0989 0.0255,-0.21128 -0.0553,-0.0618 -0.3585,-0.30664 -0.67382,-0.544 -0.57694,-0.43432 -0.97942,-0.83108 -0.97942,-0.9655 0,-0.11335 0.0945,-0.26197 0.20363,-0.3204 0.1246,-0.0667 0.37116,0.0293 0.70551,0.27462 l 0.23631,0.1734 0.007,-0.37171 c 0.006,-0.31305 0.0416,-0.45084 0.22183,-0.87309 0.35557,-0.83287 0.62061,-1.29651 0.93147,-1.62942 0.3873,-0.41477 0.62073,-0.5265 1.1,-0.5265 0.34786,0 0.37977,0.01 0.51615,0.15561 0.08,0.0856 0.20671,0.28101 0.2817,0.43427 0.12722,0.26006 0.13468,0.31272 0.11177,0.78876 -0.0135,0.28055 -0.006,0.49177 0.0158,0.46936 0.0222,-0.0224 0.14632,-0.30419 0.27579,-0.62619 0.23525,-0.58513 0.46427,-1.34525 0.63655,-2.11272 0.0503,-0.224 0.12993,-0.5556 0.177,-0.7369 0.12466,-0.48025 0.14514,-1.43525 0.0459,-2.13944 -0.20578,-1.4598 -0.87376,-3.15499 -1.57025,-3.9851 -0.0992,-0.11818 -0.3481,-0.42108 -0.55321,-0.6731 -0.85274,-1.04784 -2.32575,-2.10266 -3.5219,-2.52205 -0.61122,-0.21431 -0.91165,-0.28393 -1.57817,-0.36579 -0.80921,-0.0994 -2.24411,-0.034 -3.30422,0.15058 -0.9397,0.16359 -0.96543,0.1809 -0.83007,0.55852 0.15712,0.43837 0.0851,0.7788 -0.16478,0.7788 -0.0504,0 -0.16012,0.0137 -0.2436,0.0304 -0.13278,0.0266 -0.18674,-0.004 -0.43084,-0.24182 -0.44203,-0.43117 -0.47968,-0.442 -0.88215,-0.25365 -0.3674,0.17192 -0.52365,0.28401 -1.21376,0.8706 -0.24822,0.21098 -0.5436,0.45476 -0.65642,0.54173 -0.11281,0.087 -0.27627,0.25001 -0.36326,0.36231 -0.087,0.1123 -0.33238,0.42019 -0.54537,0.68422 -0.21297,0.26402 -0.44207,0.56091 -0.50909,0.65975 -0.49507,0.73018 -0.65928,0.99815 -0.89168,1.45509 -0.38326,0.75356 -0.48897,1.23845 -0.52486,2.40773 -0.0324,1.05439 0.0346,2.03111 0.19745,2.87439 0.1809,0.93745 0.96538,2.41284 1.67929,3.1583 0.13407,0.14 0.31591,0.36208 0.40408,0.49352 0.19148,0.28546 1.23045,1.15968 1.60156,1.34762 0.14476,0.0733 0.33194,0.18385 0.41593,0.24565 0.2517,0.18517 1.34236,0.73725 1.83273,0.92771 0.79979,0.31066 1.62543,0.56492 2.04105,0.62857 0.82137,0.12578 0.92394,0.13541 1.49709,0.14047 0.56546,0.005 0.57938,0.003 0.40728,-0.072 z m 0.27798,-3.893 c -0.22995,-0.0669 -0.56739,-0.37933 -0.63681,-0.58968 -0.092,-0.27856 -0.0385,-0.91286 0.0995,-1.18119 0.15209,-0.29574 0.48208,-0.64863 0.79407,-0.84917 0.14009,-0.0901 0.35417,-0.24682 0.47572,-0.34838 0.12156,-0.10156 0.23717,-0.18465 0.25693,-0.18465 0.11419,0 0.15845,0.15869 0.16252,0.58291 0.002,0.25339 0.0206,0.6669 0.0403,0.9189 0.0445,0.56963 -0.01,0.94013 -0.18465,1.26157 -0.20835,0.38279 -0.5615,0.51938 -1.00751,0.38969 z m 0.52511,-0.50603 c 0.24451,-0.14908 0.28271,-0.29674 0.23704,-0.91614 -0.0217,-0.294 -0.0345,-0.64909 -0.0284,-0.78909 l 0.0109,-0.25454 -0.31268,0.30545 c -0.17197,0.168 -0.36387,0.38563 -0.42646,0.48363 -0.13682,0.21424 -0.24474,0.6188 -0.19933,0.74724 0.0568,0.16056 0.27847,0.42909 0.39216,0.47497 0.15017,0.0606 0.14043,0.0621 0.32682,-0.0515 z m 0.59691,-3.02461 c -0.76583,-0.25904 -1.02193,-0.42899 -1.35905,-0.90184 -0.39377,-0.55233 -0.47367,-0.79596 -0.47367,-1.44421 0,-0.72423 0.12807,-1.16083 0.47189,-1.60868 0.28376,-0.36962 0.61152,-0.57344 1.14499,-0.71201 0.45345,-0.11778 0.60534,-0.11989 1.07124,-0.0149 0.46714,0.10527 0.55221,0.15051 0.9528,0.50675 0.56695,0.5042 0.76429,0.90812 0.79073,1.61864 0.0278,0.74434 -0.13677,1.29064 -0.55579,1.84605 -0.27525,0.36486 -0.35901,0.42573 -0.85926,0.62444 -0.54021,0.2146 -0.75666,0.23028 -1.18388,0.0858 z m -0.0496,-0.99444 c -0.11207,-0.2167 -0.0947,-0.62374 0.0487,-1.14237 0.13016,-0.47053 0.21179,-0.60366 0.44361,-0.72354 0.19426,-0.10046 0.64556,-0.0925 0.76262,0.0134 0.0514,0.0465 0.1427,0.10952 0.2029,0.14 0.1355,0.0686 0.24161,0.36298 0.28148,0.78088 0.0168,0.175 0.0468,0.31818 0.067,0.31818 0.0551,0 0.20319,-0.41682 0.20319,-0.57192 0,-0.26372 -0.11518,-0.67869 -0.26518,-0.95535 -0.20405,-0.37635 -0.21206,-0.38447 -0.58563,-0.59339 -0.31935,-0.17859 -0.33541,-0.18189 -0.76859,-0.15771 -0.44562,0.0249 -0.67964,0.10318 -0.83608,0.27982 -0.1189,0.13423 -0.43187,0.92562 -0.47207,1.19366 -0.0706,0.47036 0.25619,1.09559 0.7585,1.45148 0.21451,0.15197 0.25126,0.14433 0.15947,-0.0332 z m 5.04461,-0.65249 c -0.35649,-0.12167 -0.7152,-0.46603 -0.93021,-0.89298 -0.14445,-0.28685 -0.18805,-0.44553 -0.22208,-0.80843 -0.0845,-0.90008 0.0621,-1.55443 0.4352,-1.94385 0.12573,-0.13123 0.28712,-0.26084 0.35864,-0.28803 0.19658,-0.0747 0.54486,-0.0593 0.67207,0.0298 0.25236,0.17675 0.0717,0.4686 -0.36855,0.5956 -0.15275,0.0441 -0.2909,0.12415 -0.34947,0.20259 -0.12224,0.16373 -0.18832,0.50935 -0.151,0.78991 l 0.0288,0.21646 0.22102,-0.20373 c 0.14747,-0.13593 0.268,-0.20363 0.36216,-0.20345 0.26715,3.9e-4 0.53409,0.10971 0.74608,0.30512 0.27442,0.25295 0.43541,0.72149 0.44399,1.29216 0.006,0.36559 -0.006,0.4103 -0.14295,0.58283 -0.27846,0.34946 -0.68397,0.46924 -1.10368,0.32599 z m -5.8263,8.55839 c 0.13552,-0.12263 0.11459,-0.29766 -0.0903,-0.75574 -0.1002,-0.224 -0.20685,-0.48173 -0.23701,-0.57273 -0.0301,-0.091 -0.0713,-0.16545 -0.0912,-0.16545 -0.0634,0 -0.30282,0.71062 -0.30282,0.89885 0,0.26115 0.1432,0.5271 0.32689,0.60708 0.20849,0.0908 0.28348,0.0885 0.39455,-0.012 z m 4.1149,-1.64665 c 0.0679,-0.0439 0.0679,-0.0493 0,-0.0493 -0.042,0 -0.11072,0.0222 -0.15272,0.0493 -0.0679,0.0439 -0.0679,0.0493 0,0.0493 0.042,0 0.11072,-0.0222 0.15272,-0.0493 z m 0.11819,-0.61188 c 0.17086,-0.0639 0.38141,-0.2035 0.55681,-0.36909 0.2312,-0.21826 0.31016,-0.33976 0.43776,-0.67356 0.26011,-0.68042 0.32207,-1.35163 0.15379,-1.66607 -0.0851,-0.15897 -0.32682,-0.2762 -0.52249,-0.25336 -0.56425,0.0659 -1.40587,1.53508 -1.40587,2.45417 0,0.23295 0.0207,0.28518 0.1731,0.43762 0.20216,0.20217 0.24206,0.2068 0.6069,0.0703 z m 25.59077,29.57869 c -0.71233,-0.0791 -2.10286,-0.66858 -3.15634,-1.33809 -0.35001,-0.22244 -0.78528,-0.50206 -0.96727,-0.6214 -0.38761,-0.25415 -1.02581,-0.57854 -1.80168,-0.91576 -0.30492,-0.13254 -0.66713,-0.30743 -0.8049,-0.38866 -0.26957,-0.15895 -0.78949,-0.35033 -0.95174,-0.35033 -0.0549,0 -0.29039,-0.0699 -0.52341,-0.15526 -0.23303,-0.0854 -0.71006,-0.24808 -1.06005,-0.36152 -0.75539,-0.24484 -1.31144,-0.44152 -1.83272,-0.64827 -0.21,-0.0833 -0.59057,-0.20911 -0.84569,-0.27961 -0.25514,-0.0705 -0.58733,-0.18587 -0.73818,-0.25637 -0.15087,-0.0705 -0.5492,-0.22335 -0.8852,-0.33965 -0.33599,-0.11631 -0.64527,-0.24033 -0.68727,-0.27561 -0.0421,-0.0353 -0.15654,-0.10457 -0.25455,-0.15398 -0.25734,-0.12974 -0.75603,-0.53104 -0.789,-0.63489 -0.0155,-0.0488 0.0615,-0.30363 0.17129,-0.56631 0.35425,-0.84832 0.40196,-0.98053 0.49382,-1.3685 0.0496,-0.21 0.13398,-0.48491 0.18728,-0.6109 0.0533,-0.126 0.11516,-0.32073 0.13746,-0.43273 0.0548,-0.2749 0.25107,-0.96005 0.36468,-1.27272 0.0944,-0.2597 0.40563,-1.35277 0.52914,-1.85817 0.0637,-0.26063 0.17275,-1.01735 0.28031,-1.94497 0.025,-0.21574 0.0791,-0.45708 0.11998,-0.5363 0.0409,-0.0792 0.0912,-0.23335 0.11172,-0.3425 0.043,-0.22941 0.23779,-0.43439 0.41272,-0.43439 0.0665,0 0.29798,0.0487 0.51438,0.10814 0.64906,0.17838 2.28478,0.65052 2.96437,0.85563 0.35,0.10564 0.83109,0.24318 1.06908,0.30564 0.238,0.0625 0.74199,0.20285 1.12,0.31196 0.378,0.10911 0.96217,0.2708 1.29816,0.35931 1.63214,0.42992 2.26939,0.60266 2.59635,0.70379 0.72897,0.22547 1.60506,0.4544 2.54544,0.66514 0.64239,0.14397 1.39263,0.3483 1.51055,0.4114 0.0497,0.0266 0.21124,0.0712 0.35898,0.0991 0.14776,0.0279 0.30601,0.0625 0.35168,0.0768 0.0674,0.0212 0.0953,-0.0391 0.14806,-0.31904 0.0357,-0.18983 0.0948,-0.41669 0.1313,-0.50413 0.11046,-0.26491 0.44915,-0.29493 0.9709,-0.0861 0.36763,0.14717 0.71442,0.45527 0.989,0.87864 0.13962,0.21532 0.14678,0.25418 0.14678,0.79849 0,0.569 -0.039,0.83031 -0.27654,1.85153 -0.0684,0.294 -0.15282,0.672 -0.18764,0.83999 -0.0348,0.168 -0.14923,0.55746 -0.25421,0.86545 -0.27793,0.81556 -0.62001,2.18303 -0.83412,3.33453 -0.0442,0.238 -0.12282,0.59308 -0.17458,0.78909 -0.11374,0.43065 -0.49727,2.06742 -0.54278,2.31634 -0.0786,0.42989 -0.46969,1.00848 -0.83864,1.24066 -0.14983,0.0943 -0.59666,0.2378 -0.70965,0.22792 -0.042,-0.004 -0.22527,-0.0232 -0.40727,-0.0434 z m 0.75477,-0.75882 c 0.23132,-0.11802 0.26259,-0.20107 0.2605,-0.6918 -0.003,-0.54829 -0.0652,-0.79009 -0.24795,-0.95335 -0.15004,-0.13406 -0.17705,-0.13999 -0.50114,-0.11 -0.68473,0.0633 -0.75304,-0.20509 -0.39658,-1.55845 0.12905,-0.49 0.32563,-1.34908 0.43685,-1.90908 0.11121,-0.56 0.25598,-1.15563 0.3217,-1.32363 0.0658,-0.16799 0.21664,-0.72927 0.33532,-1.24726 0.11871,-0.518 0.2969,-1.26254 0.39597,-1.65454 0.0991,-0.39199 0.19052,-0.76999 0.20316,-0.83999 0.0221,-0.12189 7.1e-4,-0.13354 -0.50254,-0.27538 -0.28902,-0.0815 -0.76055,-0.23501 -1.04781,-0.34123 -0.28727,-0.10621 -0.76835,-0.25148 -1.06908,-0.32282 -0.30074,-0.0713 -0.70716,-0.18534 -0.90316,-0.25333 -0.90235,-0.31304 -2.46602,-0.74902 -4.21644,-1.17562 -0.41507,-0.10116 -1.19398,-0.32911 -1.73091,-0.50655 -1.11524,-0.36857 -2.37629,-0.74058 -3.03804,-0.89625 -0.098,-0.023 -0.40065,-0.0974 -0.67251,-0.16526 -0.2719,-0.0678 -0.50672,-0.11098 -0.52183,-0.0959 -0.0151,0.0151 -0.0274,0.13695 -0.0274,0.27075 0,0.42663 -0.19846,1.61235 -0.3769,2.25183 -0.095,0.34035 -0.18942,0.699 -0.20986,0.797 -0.0205,0.098 -0.18257,0.61573 -0.36025,1.15051 -0.17767,0.53477 -0.36952,1.17168 -0.42634,1.41535 -0.11616,0.49818 -0.39848,1.28422 -0.6184,1.72175 -0.17616,0.35046 -0.17716,0.3642 -0.0318,0.43721 0.063,0.0317 0.29781,0.16206 0.52181,0.28977 0.224,0.12771 0.53327,0.29138 0.68726,0.36371 0.46489,0.21834 3.39612,1.3148 4.81088,1.79957 2.17528,0.74536 2.33729,0.81153 3.2408,1.32355 0.0745,0.0422 0.27764,0.15288 0.45154,0.24597 0.17389,0.0931 0.60553,0.35938 0.95918,0.59175 0.35364,0.23237 0.895,0.5489 1.20299,0.70341 0.308,0.15451 0.83491,0.42186 1.1709,0.59412 0.84695,0.43419 1.51281,0.5618 1.90021,0.36415 z m -3.51719,-2.98383 c -1.21268,-0.44528 -1.62249,-1.19667 -1.03359,-1.89507 0.20846,-0.24722 0.58242,-0.34252 1.06036,-0.27022 0.66163,0.10009 1.36254,0.54316 1.53294,0.96904 0.0668,0.16705 0.0717,0.25072 0.0271,0.45933 -0.0482,0.22479 -0.0892,0.28159 -0.34498,0.47844 -0.42691,0.3285 -0.82525,0.41141 -1.24176,0.25848 z m 0.89641,-0.48788 c 0.39484,-0.26154 0.48658,-0.4823 0.28867,-0.69473 -0.14386,-0.15441 -0.50321,-0.39432 -0.74016,-0.49415 -0.27761,-0.11696 -0.84383,-0.16074 -1.03811,-0.0803 -0.17876,0.074 -0.38257,0.44148 -0.32887,0.59292 0.0886,0.24988 0.30214,0.44454 0.69722,0.63559 0.53025,0.25643 0.78171,0.26554 1.12125,0.0406 z m -4.56546,-0.58855 c -0.0601,-0.06 -0.0362,-0.4559 0.0404,-0.6732 0.0828,-0.23498 0.22474,-0.4405 0.62619,-0.90734 0.24288,-0.28243 0.26862,-0.33437 0.24036,-0.485 -0.043,-0.22935 0.1414,-0.70945 0.36954,-0.96197 0.17414,-0.19274 0.17802,-0.20646 0.17081,-0.60296 -0.008,-0.46728 0.0699,-0.70604 0.27763,-0.84742 0.0771,-0.0525 0.22028,-0.17089 0.31805,-0.26313 l 0.17772,-0.16772 -0.0438,-0.54501 c -0.0782,-0.97497 -0.0396,-1.23227 0.1855,-1.23227 0.1447,0 0.19284,0.13845 0.12128,0.34888 -0.0508,0.14938 -0.0496,0.28016 0.006,0.66929 0.0712,0.49898 0.0566,0.74441 -0.058,0.9711 -0.071,0.14043 -0.45062,0.50526 -0.52575,0.50526 -0.0898,0 -0.12729,0.18627 -0.12991,0.64417 -0.003,0.45152 -0.007,0.47206 -0.17005,0.66181 -0.27561,0.32241 -0.38375,0.60223 -0.34517,0.89311 l 0.0332,0.25004 -0.32241,0.34088 c -0.41344,0.43713 -0.59594,0.71239 -0.65419,0.98673 -0.0256,0.12078 -0.0584,0.27114 -0.0726,0.33414 -0.0247,0.10925 -0.16865,0.15664 -0.24468,0.0806 z m -0.55853,-0.83917 c -0.11567,-0.0647 -0.10891,-0.19083 0.0175,-0.32534 0.0717,-0.0764 0.1088,-0.19524 0.12006,-0.38509 0.0189,-0.31768 0.11585,-0.57115 0.33596,-0.87765 0.19337,-0.26924 0.23759,-0.52042 0.15343,-0.87123 -0.0366,-0.15233 -0.0497,-0.35144 -0.0301,-0.45561 0.0505,-0.26936 0.29983,-0.52886 0.57451,-0.59803 0.12512,-0.0315 0.23842,-0.0858 0.25177,-0.12056 0.0134,-0.0348 -0.0123,-0.15067 -0.0569,-0.25748 -0.14195,-0.33973 -0.009,-0.79659 0.2078,-0.71345 0.0658,0.0252 0.0766,0.074 0.0516,0.23049 -0.0226,0.1418 -3.8e-4,0.2804 0.078,0.48533 l 0.10977,0.28685 -0.10186,0.13745 c -0.056,0.0756 -0.22573,0.18691 -0.37712,0.24734 -0.38268,0.15277 -0.4414,0.26801 -0.36467,0.71555 0.0731,0.42625 -0.002,0.82386 -0.20601,1.09139 -0.18666,0.24473 -0.29005,0.51297 -0.29005,0.75252 0,0.3738 -0.28177,0.76492 -0.47367,0.65752 z m 5.5391,-0.24067 c -0.12907,-0.0794 -0.38421,-0.13814 -1.48666,-0.34252 -0.17813,-0.033 -0.37342,-0.23364 -0.416,-0.42733 -0.0543,-0.24727 0.0506,-0.8334 0.17362,-0.96932 0.23236,-0.25675 0.53683,-0.31853 0.74866,-0.1519 0.16059,0.12634 0.20494,0.28577 0.10677,0.38394 -0.0951,0.0951 -0.14328,0.0949 -0.23911,-7.9e-4 -0.0956,-0.0956 -0.25646,-0.0985 -0.33332,-0.006 -0.0321,0.0388 -0.0725,0.21959 -0.0894,0.40181 -0.0357,0.38316 -0.0128,0.40873 0.4155,0.46118 0.14,0.0171 0.30609,0.0459 0.36909,0.0639 0.10562,0.0302 0.11454,0.0163 0.11454,-0.17852 0,-0.2497 0.0974,-0.50209 0.24424,-0.63285 0.17252,-0.15364 0.55802,-0.13931 0.81446,0.0303 0.30045,0.1987 0.3886,0.35665 0.39055,0.69987 0.002,0.26098 -0.0174,0.31253 -0.19267,0.52657 -0.2188,0.26718 -0.36263,0.30003 -0.62022,0.14168 z m 0.49283,-0.43879 c 0.12824,-0.28148 -0.10736,-0.65213 -0.45486,-0.71557 -0.19599,-0.0358 -0.2704,0.0317 -0.30301,0.27487 -0.0336,0.25059 0.0273,0.3416 0.31594,0.47295 0.27541,0.12528 0.37341,0.11813 0.44193,-0.0323 z m -10.17492,-0.006 c -0.0174,-0.0454 0.0116,-0.20005 0.0646,-0.34363 0.0742,-0.20101 0.0973,-0.40748 0.10068,-0.89744 0.005,-0.74234 0.0581,-0.91598 0.47186,-1.54651 0.25586,-0.38991 0.26319,-0.41135 0.26319,-0.76996 0,-0.20289 0.0323,-0.46063 0.0719,-0.57276 0.0396,-0.11212 0.0872,-0.33837 0.10583,-0.50276 0.0533,-0.47049 0.12275,-0.63807 0.36988,-0.89345 l 0.23051,-0.23821 -0.057,-0.44094 c -0.0468,-0.36265 -0.0439,-0.47177 0.0155,-0.61452 0.1225,-0.29321 0.21288,-0.22216 0.2487,0.19551 0.0174,0.203 0.0462,0.5007 0.0638,0.66156 0.0391,0.35502 -0.0383,0.57314 -0.24054,0.67772 -0.19345,0.10004 -0.25188,0.22498 -0.30565,0.65343 -0.0249,0.199 -0.0817,0.4713 -0.12616,0.6051 -0.0558,0.16795 -0.0703,0.32037 -0.0466,0.49223 0.0399,0.29008 -0.0479,0.5289 -0.36914,1.00404 -0.29871,0.44183 -0.3856,0.75381 -0.35727,1.28276 0.036,0.67027 -0.14802,1.3304 -0.37066,1.3304 -0.0562,0 -0.11637,-0.0372 -0.1338,-0.0826 z m 6.83968,-0.81683 c -0.0674,-0.0674 -0.0318,-0.42619 0.069,-0.69579 0.0567,-0.15156 0.21693,-0.40553 0.35636,-0.56486 0.23957,-0.27378 0.25333,-0.30507 0.25333,-0.5762 0,-0.15768 -0.0265,-0.41521 -0.0589,-0.57229 -0.0828,-0.40157 -0.0318,-0.54251 0.315,-0.86598 0.28344,-0.26447 0.30445,-0.30072 0.37865,-0.65356 0.0432,-0.20546 0.0672,-0.39186 0.0534,-0.41423 -0.0138,-0.0224 0.009,-0.069 0.0507,-0.10358 0.0605,-0.0502 0.0926,-0.049 0.15863,0.006 0.13313,0.11049 0.0652,0.73119 -0.12464,1.13659 -0.12654,0.27043 -0.18012,0.33253 -0.32929,0.38176 -0.21737,0.0717 -0.25271,0.18205 -0.15857,0.49488 0.0839,0.27871 0.0921,0.67974 0.0193,0.94186 -0.0284,0.10227 -0.13906,0.27409 -0.2459,0.38182 -0.27531,0.2776 -0.35547,0.41854 -0.41421,0.72835 -0.0284,0.14958 -0.0772,0.30287 -0.10859,0.34065 -0.0613,0.0738 -0.15926,0.0897 -0.21423,0.0348 z m -8.00792,-0.49985 c -0.0627,-0.16349 0.0362,-0.55807 0.25409,-1.01349 0.25698,-0.53708 0.32469,-0.73259 0.36344,-1.04921 0.0206,-0.16806 0.11032,-0.35126 0.33627,-0.68645 0.28826,-0.42759 0.30613,-0.47109 0.27606,-0.67163 -0.0178,-0.11793 -0.006,-0.30873 0.0243,-0.42399 0.0454,-0.16842 0.0768,-0.20644 0.16041,-0.19367 0.0939,0.0144 0.10543,0.0579 0.11893,0.44862 0.0171,0.49493 -0.0135,0.59094 -0.34535,1.08339 -0.18082,0.26834 -0.24067,0.41003 -0.26877,0.63636 -0.023,0.1855 -0.12795,0.48512 -0.28918,0.82569 -0.13915,0.294 -0.27907,0.66054 -0.31093,0.81454 -0.0476,0.23045 -0.0782,0.28288 -0.17271,0.2963 -0.0703,0.01 -0.12711,-0.0159 -0.14654,-0.0665 z m 11.79414,-0.30378 c -0.0337,-0.0406 -0.0475,-0.11791 -0.0303,-0.17167 0.0205,-0.0646 -0.0491,-0.23378 -0.20513,-0.49881 -0.12987,-0.22058 -0.23948,-0.40506 -0.2436,-0.40996 -0.005,-0.005 -0.13905,0.0217 -0.2999,0.0591 -0.16085,0.0374 -0.48878,0.0843 -0.7287,0.10432 -0.40041,0.0334 -0.44013,0.0466 -0.48365,0.16099 -0.0646,0.16986 -0.22008,0.13612 -0.24174,-0.0524 -0.018,-0.15609 0.12599,-0.62757 0.22619,-0.74091 0.0347,-0.0393 0.10051,-0.056 0.14826,-0.0376 0.0684,0.0263 0.0789,0.0705 0.0512,0.21819 l -0.0347,0.18523 0.46637,-0.0352 c 0.25652,-0.0194 0.53063,-0.0481 0.60915,-0.0638 l 0.14278,-0.0285 -0.15058,-0.28746 c -0.14034,-0.26793 -0.16752,-0.29139 -0.40019,-0.34527 l -0.24961,-0.0578 -0.10171,0.17235 c -0.11046,0.18723 -0.20851,0.21677 -0.31074,0.0936 -0.0539,-0.0649 -0.0448,-0.14766 0.0513,-0.4709 0.064,-0.21569 0.13216,-0.44779 0.15124,-0.5158 0.0492,-0.17553 0.17637,-0.24499 0.28435,-0.15538 0.0664,0.0552 0.0793,0.12112 0.0562,0.28977 -0.0275,0.20108 -0.0208,0.21834 0.0841,0.21834 0.0627,0 0.44598,0.1142 0.85175,0.25378 0.40578,0.13958 0.75241,0.25413 0.7703,0.25454 0.018,3.9e-4 0.0486,-0.0847 0.0681,-0.1892 0.0196,-0.10449 0.0573,-0.23049 0.0839,-0.28 0.0589,-0.11009 0.24049,-0.11856 0.28096,-0.0131 0.0469,0.12217 -0.0867,0.73024 -0.18766,0.85409 l -0.0918,0.11262 -0.47333,-0.16269 c -0.26035,-0.0895 -0.48342,-0.15261 -0.49573,-0.14031 -0.0124,0.0123 0.0157,0.0644 0.0622,0.11579 0.0466,0.0514 0.0846,0.10562 0.0846,0.12054 0,0.0149 0.0692,0.17976 0.15377,0.3663 0.13532,0.29843 0.16527,0.33304 0.24921,0.28811 0.0706,-0.0377 0.11189,-0.0312 0.15865,0.0251 0.12371,0.14906 -0.0409,0.83802 -0.20021,0.83802 -0.0239,0 -0.0711,-0.0333 -0.10486,-0.0739 z m -8.73695,-2.08197 c -0.016,-0.0419 -0.007,-0.11803 0.0188,-0.16921 0.0263,-0.0512 0.0633,-0.26926 0.0821,-0.48461 0.051,-0.58473 0.14579,-0.8449 0.4142,-1.13593 0.37857,-0.41047 0.39849,-0.4508 0.32801,-0.66436 -0.12122,-0.36728 0.16007,-0.3735 0.29969,-0.007 0.0979,0.25717 0.0447,0.40165 -0.27668,0.7512 -0.3382,0.36788 -0.37195,0.44951 -0.42544,1.02925 -0.0298,0.32325 -0.0707,0.49126 -0.1428,0.58801 -0.11787,0.15804 -0.25626,0.2009 -0.29792,0.0923 z m -2.90493,-0.61903 c -0.0391,-0.10172 0.0124,-0.3717 0.1621,-0.85143 0.0676,-0.2165 0.14531,-0.63057 0.17275,-0.92015 0.0609,-0.64269 0.0993,-0.75007 0.33435,-0.93437 0.10139,-0.0795 0.21611,-0.21901 0.25493,-0.31001 0.0735,-0.17232 0.19722,-0.21863 0.2458,-0.092 0.0513,0.13381 -0.061,0.39094 -0.26959,0.6173 -0.11324,0.12284 -0.20607,0.25249 -0.20632,0.28811 -0.003,0.47079 -0.11921,1.23656 -0.22794,1.50417 -0.0704,0.17322 -0.12798,0.36757 -0.12798,0.43189 0,0.24402 -0.2662,0.45385 -0.3381,0.2665 z m 7.0382,-0.15611 c -0.0178,-0.0463 0.0336,-0.17366 0.12182,-0.3019 0.19704,-0.28637 0.19224,-0.41424 -0.0277,-0.74114 -0.19778,-0.2939 -0.20868,-0.42109 -0.0382,-0.44547 0.13135,-0.0188 0.36728,0.27622 0.50105,0.62653 0.102,0.26705 0.0538,0.4632 -0.18467,0.75258 -0.1639,0.19884 -0.32034,0.24481 -0.3723,0.1094 z m -5.4104,-1.47633 c -0.0185,-0.0482 -0.004,-0.15871 0.0326,-0.24558 0.0365,-0.0869 0.0876,-0.31831 0.11389,-0.5143 0.0588,-0.44032 0.13548,-0.60583 0.29052,-0.62807 0.10835,-0.0156 0.11611,-0.003 0.0823,0.12728 -0.0205,0.0794 -0.0523,0.32769 -0.0704,0.55169 -0.0221,0.27074 -0.068,0.46695 -0.13766,0.58529 -0.11708,0.19932 -0.26032,0.25625 -0.31118,0.12369 z m 12.22248,8.4546 c 0.21142,-1.1058 0.75717,-3.26907 0.88955,-3.526 0.0628,-0.12207 0.28836,-0.87905 0.48883,-1.64124 0.0921,-0.35 0.22928,-0.86545 0.30493,-1.14544 0.26311,-0.97395 0.22747,-1.80411 -0.0903,-2.10262 -0.10862,-0.10204 -0.48848,-0.28801 -0.52067,-0.2549 -0.0259,0.0268 -0.52147,2.06983 -0.65597,2.7051 -0.0702,0.33117 -0.25325,0.99553 -0.40694,1.47635 -0.47281,1.47914 -1.19013,4.37071 -1.22028,4.91912 -0.006,0.10533 0.0328,0.13976 0.24608,0.2196 0.13912,0.0521 0.35677,0.17019 0.48363,0.26248 0.19762,0.14373 0.23607,0.15604 0.2683,0.0859 0.0208,-0.0451 0.11646,-0.4943 0.21282,-0.9983 z m -12.21399,3.50495 c -0.19601,-0.009 -0.72291,-0.0506 -1.17092,-0.0919 -0.95283,-0.0879 -2.10008,-0.1572 -3.86905,-0.2336 -0.7,-0.0302 -1.37582,-0.0774 -1.50182,-0.10479 -0.126,-0.0274 -0.42382,-0.083 -0.66181,-0.12359 -0.84833,-0.14461 -1.00587,-0.21396 -1.18645,-0.52228 -0.12754,-0.21778 -0.12916,-0.61482 -0.004,-0.83129 0.12937,-0.22265 0.54845,-0.47255 0.91639,-0.54644 0.15972,-0.0321 0.49133,-0.0583 0.73691,-0.0583 h 0.44648 l -0.0284,-0.17542 c -0.038,-0.23412 0.0141,-0.42077 0.13548,-0.48575 0.18764,-0.10042 0.94369,-0.20829 1.65574,-0.23623 0.67637,-0.0266 0.74354,-0.0201 1.31676,0.12725 0.81544,0.20953 1.01675,0.35066 0.81622,0.57225 -0.1022,0.11292 -0.29335,0.11292 -1.06389,0 -0.19601,-0.0287 -0.50777,-0.0677 -0.69282,-0.0865 -0.33642,-0.0343 -0.33645,-0.0343 -0.37191,0.10697 -0.0195,0.0777 -0.0171,0.15861 0.006,0.17979 0.0226,0.0212 0.43045,0.0538 0.90645,0.0724 0.7729,0.0303 1.06221,0.0617 2.11272,0.22956 0.74102,0.11839 1.03335,0.14902 1.52726,0.16003 0.52041,0.0116 1.28445,0.16375 1.43755,0.28628 0.0353,0.0283 0.12114,0.0689 0.19066,0.0903 0.0696,0.0214 0.28716,0.11247 0.48364,0.20243 0.19647,0.09 0.42595,0.17975 0.50996,0.19954 0.0841,0.0198 0.2329,0.0881 0.3309,0.15188 0.098,0.0637 0.24216,0.13176 0.32036,0.15114 0.16934,0.042 0.2097,0.12316 0.14537,0.29237 -0.0537,0.1413 -0.28713,0.21583 -1.58572,0.50631 -0.72577,0.16234 -1.1519,0.20077 -1.85817,0.1676 z m 1.95998,-0.59294 c 0.2995,-0.0556 0.33236,-0.0739 0.34626,-0.19354 0.0141,-0.12068 -0.0146,-0.1432 -0.33091,-0.25966 -0.19045,-0.0701 -0.38512,-0.14432 -0.4326,-0.16484 -0.0771,-0.0333 -0.0853,0.001 -0.0764,0.32325 0.0112,0.40787 -0.0189,0.38988 0.49362,0.29479 z m -1.05361,-0.0584 c 0.1057,-0.1057 0.035,-0.4284 -0.14244,-0.65089 l -0.14341,-0.17973 -0.56482,-0.0345 c -0.31064,-0.019 -0.78244,-0.0664 -1.04844,-0.10525 -0.89286,-0.1305 -2.70651,-0.25865 -4.34717,-0.30716 l -1.01265,-0.0299 0.027,0.16878 c 0.027,0.16895 -0.0191,0.55526 -0.0846,0.70841 -0.03,0.0701 0.0311,0.0861 0.43861,0.11487 0.26037,0.0183 0.6567,0.0551 0.88069,0.0816 0.224,0.0265 0.854,0.0614 1.39999,0.0776 0.546,0.0162 1.31345,0.0539 1.70545,0.0839 0.6268,0.048 1.8791,0.11502 2.57998,0.13816 0.14914,0.005 0.26572,-0.0197 0.31185,-0.0658 z m -7.78492,-0.51 c 0.10446,-0.15943 0.10422,-0.34804 -7.2e-4,-0.62302 -0.0745,-0.19485 -0.0968,-0.21433 -0.21637,-0.18809 -0.3517,0.0772 -0.60986,0.18719 -0.75892,0.32333 -0.17358,0.15855 -0.20369,0.26301 -0.0999,0.34655 0.0492,0.0396 0.79044,0.24222 0.96141,0.26282 0.0178,0.002 0.0693,-0.0526 0.11455,-0.12159 z m -12.74809,-20.70924 c -0.37636,-0.22497 -0.51813,-0.48571 -0.54838,-1.00856 -0.0221,-0.38047 -0.0159,-0.40592 0.21104,-0.88514 0.29167,-0.61574 0.62485,-1.1203 1.01551,-1.53792 0.31537,-0.33712 0.3886,-0.37357 0.49441,-0.24609 0.0525,0.0632 0.0393,0.11215 -0.0748,0.27666 -0.29743,0.42918 -0.27841,0.72213 0.0977,1.5047 0.31204,0.64931 0.3245,0.68186 0.3875,1.01259 0.11726,0.61554 -0.30004,1.04921 -1.00963,1.04921 -0.24391,0 -0.34576,-0.0294 -0.57339,-0.16545 z m 0.99038,-0.37272 c 0.10086,-0.10086 0.10232,-0.32803 0.004,-0.56422 -0.0421,-0.10052 -0.0764,-0.22039 -0.0764,-0.26639 0,-0.046 -0.0497,-0.17492 -0.11042,-0.28651 -0.0607,-0.11158 -0.17281,-0.34918 -0.2491,-0.52798 l -0.13868,-0.32511 -0.11054,0.24874 c -0.33844,0.76159 -0.38171,1.17748 -0.15555,1.4951 0.19668,0.27621 0.66147,0.40191 0.83701,0.22637 z m 12.2472,-2.49834 c -0.34451,-0.11229 -0.4818,-0.21108 -0.66185,-0.4762 -0.38351,-0.56474 -0.38099,-0.55234 -0.38142,-1.88836 -3e-4,-0.93821 -0.0155,-1.21945 -0.0697,-1.2848 -0.0382,-0.046 -0.0561,-0.11832 -0.0398,-0.16068 0.0222,-0.0579 -0.007,-0.077 -0.11968,-0.077 -0.19261,0 -0.65636,-0.18217 -0.7965,-0.31288 -0.15605,-0.14554 -0.21226,-0.43008 -0.24487,-1.23983 -0.0357,-0.88589 -0.0991,-1.1236 -0.46341,-1.73834 -0.0747,-0.12605 -0.082,-0.1757 -0.0344,-0.23309 0.0512,-0.0616 0.20828,3.6e-4 1.01031,0.39822 1.07081,0.53118 1.29971,0.71232 1.53012,1.21087 0.16147,0.34941 0.1867,0.76371 0.0686,1.12597 -0.0901,0.27629 -0.34941,0.62963 -0.53106,0.72356 -0.13964,0.0722 -0.14295,0.0806 -0.0513,0.13089 0.29303,0.16093 0.92732,0.69878 1.1732,0.99485 0.40144,0.48336 0.57267,0.84581 0.6369,1.34816 0.0487,0.38158 0.0437,0.44253 -0.0592,0.71645 -0.13978,0.37167 -0.40567,0.67437 -0.6526,0.74295 -0.20147,0.056 -0.20074,0.0559 -0.31316,0.0193 z m 0.2834,-0.61416 c 0.13802,-0.13802 0.22565,-0.39788 0.22565,-0.66911 0,-0.33105 -0.17915,-0.66357 -0.63636,-1.18114 l -0.35636,-0.4034 -0.0594,0.47037 c -0.0984,0.7806 -0.086,1.03435 0.0657,1.34431 0.22399,0.45783 0.55234,0.64731 0.76068,0.43897 z m -1.32755,-3.86272 c 0.17381,-0.11389 0.38235,-0.49162 0.38202,-0.69197 -3.9e-4,-0.34174 -0.10329,-0.56865 -0.37613,-0.83093 -0.24636,-0.23682 -0.68488,-0.53083 -0.92176,-0.61797 -0.0864,-0.0318 -0.0923,-0.0258 -0.0388,0.0401 0.1634,0.20132 0.22934,0.53526 0.24212,1.22603 0.0155,0.84059 0.0619,0.95546 0.38516,0.95546 0.11235,0 0.25969,-0.0363 0.32745,-0.0807 z m 11.17495,-1.33335 c -0.34942,-0.044 -1.23091,-0.29089 -1.95998,-0.54888 -0.90124,-0.3189 -1.8838,-0.80731 -2.37671,-1.1814 -0.59469,-0.45135 -1.63114,-1.63052 -1.9123,-2.17562 -0.0433,-0.084 -0.13008,-0.22145 -0.19282,-0.30545 -0.12928,-0.17316 -0.35801,-0.6163 -0.45796,-0.88727 -0.0369,-0.1 -0.15066,-0.37654 -0.25283,-0.61454 -0.30811,-0.71761 -0.38682,-1.07243 -0.48553,-2.18815 -0.0745,-0.84197 0.076,-1.99213 0.38891,-2.97343 0.19661,-0.61646 0.56478,-1.50178 0.75393,-1.81292 0.0936,-0.154 0.21936,-0.37749 0.27942,-0.49666 0.10717,-0.21264 0.55321,-0.72644 0.93796,-1.08047 1.46814,-1.35091 2.18785,-1.87 2.97357,-2.14473 2.34598,-0.82029 3.57145,-0.8395 6.0716,-0.0952 0.60995,0.18159 1.48825,0.58712 2.01089,0.92848 0.35069,0.22904 1.3721,1.1389 1.61393,1.43767 0.068,0.084 0.17798,0.24436 0.24445,0.35636 0.0664,0.11199 0.21543,0.32963 0.33109,0.48363 0.30398,0.40478 0.59546,1.00393 0.93578,1.92346 0.36874,0.99636 0.39137,1.10175 0.46714,2.17469 0.0916,1.29717 0.0484,1.85427 -0.22914,2.95271 -0.19257,0.76216 -0.28359,1.02037 -0.54091,1.53444 -0.17018,0.33995 -0.41286,0.7393 -0.53933,0.88745 -0.12647,0.14816 -0.30511,0.38547 -0.39701,0.52737 -0.15047,0.23235 -0.41194,0.49922 -1.31266,1.33976 -0.59972,0.55964 -2.23411,1.52836 -2.83878,1.68256 -0.65494,0.16703 -2.9481,0.34729 -3.51271,0.27612 z m 1.62277,-0.74982 c 1.47131,-0.17426 2.34047,-0.45732 3.26448,-1.06316 1.0909,-0.71527 1.09706,-0.72083 2.04156,-1.83837 0.63553,-0.75196 1.14076,-1.59002 1.44543,-2.39762 0.17904,-0.4746 0.28026,-1.17773 0.31074,-2.15872 0.0296,-0.95319 0.004,-1.17511 -0.2517,-2.13816 -0.18453,-0.69644 -0.44412,-1.3502 -0.85909,-2.16363 -0.39813,-0.78039 -0.73806,-1.25474 -1.05816,-1.47657 -0.11409,-0.0791 -0.27465,-0.22029 -0.35679,-0.31385 -0.53705,-0.61166 -1.2028,-1.04301 -2.079,-1.34703 -0.24214,-0.084 -0.60062,-0.21779 -0.79662,-0.29728 -0.9181,-0.37235 -2.14769,-0.54553 -3.06567,-0.43177 -1.78683,0.22143 -3.41807,1.00012 -4.49428,2.14541 -0.98962,1.05313 -1.37109,1.53941 -1.66052,2.11664 -0.63951,1.27554 -0.93278,2.63474 -0.86969,4.03066 0.0538,1.19126 0.35226,2.28296 0.90971,3.328 0.75199,1.40977 1.96222,2.51446 3.43532,3.13574 0.22556,0.0951 0.50104,0.21935 0.61219,0.27605 0.27948,0.14259 0.69936,0.27898 1.41661,0.46017 0.92342,0.23329 1.11032,0.24543 2.05548,0.13349 z m -1.03308,-6.66793 c -0.25455,-0.0907 -0.425,-0.26203 -0.51156,-0.51417 -0.0664,-0.19331 -0.0773,-0.20054 -0.3606,-0.23667 -0.32642,-0.0416 -0.60236,-0.13691 -1.27924,-0.44169 -1.08347,-0.48786 -1.60274,-0.94369 -1.51743,-1.33207 0.0418,-0.19045 0.16006,-0.22078 0.73332,-0.1881 0.31838,0.0182 0.52959,0.0618 0.7459,0.15408 0.16597,0.0708 0.41271,0.16827 0.54831,0.21656 0.32778,0.11673 0.95475,0.54045 1.11969,0.7567 l 0.13219,0.1733 0.16714,-0.0822 0.16715,-0.0822 v -1.01948 c 0,-1.7638 0.0821,-2.75524 0.35856,-4.32855 0.18033,-1.02629 0.32846,-1.32846 0.58547,-1.19417 0.22067,0.1153 0.45946,1.68087 0.45392,2.97597 -0.005,0.97372 -0.30657,2.66029 -0.6125,3.4161 -0.0588,0.14529 -0.0521,0.17351 0.0844,0.3524 0.13232,0.17349 0.14832,0.2343 0.14832,0.56378 0,0.4265 -0.0834,0.5826 -0.41206,0.77049 -0.23082,0.13199 -0.28203,0.13569 -0.55098,0.0399 z m 0.34929,-0.68352 c 0.0498,-0.0806 -0.0298,-0.20824 -0.12987,-0.20824 -0.0943,0 -0.1359,0.14715 -0.0624,0.22061 0.0487,0.0488 0.15886,0.0418 0.19232,-0.0124 z m -13.94246,6.20425 c -0.24017,-0.22138 -0.2949,-0.3208 -0.51003,-0.92648 -0.17978,-0.50615 -0.46819,-0.9325 -0.90321,-1.33528 -0.19075,-0.1766 -0.34681,-0.35523 -0.34681,-0.39696 0,-0.0994 0.13328,-0.20818 0.20256,-0.16536 0.0299,0.0185 0.4375,0.0786 0.90586,0.13361 0.99932,0.11741 1.16406,0.15641 1.53827,0.36426 0.60309,0.33495 0.80378,0.59714 0.8495,1.10984 0.0243,0.27226 0.009,0.3452 -0.1291,0.6262 -0.22677,0.46063 -0.72271,0.79583 -1.17753,0.79583 -0.17038,0 -0.24533,-0.0359 -0.42951,-0.20566 z m 0.62245,-0.37525 c 0.4248,-0.22192 0.62767,-0.69221 0.44776,-1.03797 -0.16524,-0.31762 -0.44194,-0.47375 -1.15009,-0.64896 -0.69445,-0.17183 -0.69569,-0.17145 -0.45948,0.14062 0.11268,0.14888 0.28562,0.48972 0.39375,0.77597 0.1905,0.50436 0.41391,0.84216 0.55698,0.84216 0.0406,0 0.13549,-0.0323 0.21108,-0.0718 z"
     id="path882" /></svg>
