<?xml version="1.0" encoding="UTF-8" standalone="no"?>
<svg
   height="800mm"
   viewBox="0 0 600.00002 800"
   width="600mm"
   version="1.1"
   id="svg277"
   sodipodi:docname="untereBox.svg"
   inkscape:version="1.2.2 (732a01da63, 2022-12-09)"
   xmlns:inkscape="http://www.inkscape.org/namespaces/inkscape"
   xmlns:sodipodi="http://sodipodi.sourceforge.net/DTD/sodipodi-0.dtd"
   xmlns="http://www.w3.org/2000/svg"
   xmlns:svg="http://www.w3.org/2000/svg"
   xmlns:rdf="http://www.w3.org/1999/02/22-rdf-syntax-ns#"
   xmlns:cc="http://creativecommons.org/ns#"
   xmlns:dc="http://purl.org/dc/elements/1.1/">
  <defs
     id="defs281" />
  <sodipodi:namedview
     id="namedview279"
     pagecolor="#ffffff"
     bordercolor="#000000"
     borderopacity="0.25"
     inkscape:showpageshadow="2"
     inkscape:pageopacity="0.0"
     inkscape:pagecheckerboard="0"
     inkscape:deskcolor="#d1d1d1"
     inkscape:document-units="mm"
     showgrid="false"
     inkscape:zoom="0.35689399"
     inkscape:cx="1050.7322"
     inkscape:cy="1592.91"
     inkscape:window-width="2560"
     inkscape:window-height="1378"
     inkscape:window-x="2729"
     inkscape:window-y="571"
     inkscape:window-maximized="1"
     inkscape:current-layer="svg277" />
  <!--
UniversalBox - Box with various options for different styles and lids

Created with Boxes.py (https://festi.info/boxes.py)
Creation date: 2024-01-29 13:14:06
Command line (remove spaces between dashes): boxes UniversalBox - -Lid_handle=knob - -top_edge=i - -x=600.0 - -y=120.0 - -h=200.0
Url: http://www.festi.info/boxes.py/UniversalBox?FingerJoint_angle=90.0&FingerJoint_style=rectangular&FingerJoint_surroundingspaces=2.0&FingerJoint_bottom_lip=0.0&FingerJoint_edge_width=1.0&FingerJoint_extra_length=0.0&FingerJoint_finger=2.0&FingerJoint_play=0.0&FingerJoint_space=2.0&FingerJoint_width=1.0&Stackable_angle=60&Stackable_bottom_stabilizers=0.0&Stackable_height=2.0&Stackable_holedistance=1.0&Stackable_width=4.0&Hinge_grip_percentage=0&Hinge_outset=0&Hinge_outset=1&Hinge_pinwidth=0.5&Hinge_style=outset&Hinge_axle=2.0&Hinge_grip_length=0&Hinge_hingestrength=1&CabinetHinge_bore=3.2&CabinetHinge_eyes_per_hinge=5&CabinetHinge_hinges=2&CabinetHinge_style=inside&CabinetHinge_eye=1.5&CabinetHinge_play=0.05&CabinetHinge_spacing=2.0&SlideOnLid_angle=90.0&SlideOnLid_hole_width=0&SlideOnLid_second_pin=0&SlideOnLid_second_pin=1&SlideOnLid_spring=both&SlideOnLid_style=rectangular&SlideOnLid_surroundingspaces=2.0&SlideOnLid_bottom_lip=0.0&SlideOnLid_edge_width=1.0&SlideOnLid_extra_length=0.0&SlideOnLid_finger=3.0&SlideOnLid_play=0.05&SlideOnLid_space=2.0&SlideOnLid_width=1.0&Click_angle=5.0&Click_bottom_radius=0.1&Click_depth=3.0&RoundedTriangleEdge_height=50.0&RoundedTriangleEdge_r_hole=2.0&RoundedTriangleEdge_radius=30.0&RoundedTriangleEdge_outset=1.0&Mounting_d_head=6.5&Mounting_d_shaft=3.0&Mounting_margin=0.125&Mounting_num=2&Mounting_side=back&Mounting_style=straight+edge%2C+within&HandleEdge_height=20.0&HandleEdge_hole_height=75.0&HandleEdge_hole_width=40%3A40&HandleEdge_on_sides=0&HandleEdge_on_sides=1&HandleEdge_radius=10.0&HandleEdge_outset=1.0&Flex_stretch=1.05&Flex_connection=1.0&Flex_distance=0.5&Flex_width=5.0&Lid_handle=knob&Lid_style=none&Lid_handle_height=8.0&Lid_height=4.0&Lid_play=0.1&top_edge=i&bottom_edge=h&x=600.0&y=120.0&h=200.0&outside=0&outside=1&vertical_edges=finger+joints&thickness=3.0&format=svg&tabs=0.0&qr_code=0&debug=0&labels=0&labels=1&reference=100&inner_corners=loop&burn=0.1&language=en&render=2
Url short: http://www.festi.info/boxes.py/UniversalBox?Lid_handle=knob&top_edge=i&x=600.0&y=120.0&h=200.0
SettingsUrl: http://www.festi.info/boxes.py/UniversalBox?FingerJoint_angle=90.0&FingerJoint_style=rectangular&FingerJoint_surroundingspaces=2.0&FingerJoint_bottom_lip=0.0&FingerJoint_edge_width=1.0&FingerJoint_extra_length=0.0&FingerJoint_finger=2.0&FingerJoint_play=0.0&FingerJoint_space=2.0&FingerJoint_width=1.0&Stackable_angle=60&Stackable_bottom_stabilizers=0.0&Stackable_height=2.0&Stackable_holedistance=1.0&Stackable_width=4.0&Hinge_grip_percentage=0&Hinge_outset=0&Hinge_outset=1&Hinge_pinwidth=0.5&Hinge_style=outset&Hinge_axle=2.0&Hinge_grip_length=0&Hinge_hingestrength=1&CabinetHinge_bore=3.2&CabinetHinge_eyes_per_hinge=5&CabinetHinge_hinges=2&CabinetHinge_style=inside&CabinetHinge_eye=1.5&CabinetHinge_play=0.05&CabinetHinge_spacing=2.0&SlideOnLid_angle=90.0&SlideOnLid_hole_width=0&SlideOnLid_second_pin=0&SlideOnLid_second_pin=1&SlideOnLid_spring=both&SlideOnLid_style=rectangular&SlideOnLid_surroundingspaces=2.0&SlideOnLid_bottom_lip=0.0&SlideOnLid_edge_width=1.0&SlideOnLid_extra_length=0.0&SlideOnLid_finger=3.0&SlideOnLid_play=0.05&SlideOnLid_space=2.0&SlideOnLid_width=1.0&Click_angle=5.0&Click_bottom_radius=0.1&Click_depth=3.0&RoundedTriangleEdge_height=50.0&RoundedTriangleEdge_r_hole=2.0&RoundedTriangleEdge_radius=30.0&RoundedTriangleEdge_outset=1.0&Mounting_d_head=6.5&Mounting_d_shaft=3.0&Mounting_margin=0.125&Mounting_num=2&Mounting_side=back&Mounting_style=straight+edge%2C+within&HandleEdge_height=20.0&HandleEdge_hole_height=75.0&HandleEdge_hole_width=40%3A40&HandleEdge_on_sides=0&HandleEdge_on_sides=1&HandleEdge_radius=10.0&HandleEdge_outset=1.0&Flex_stretch=1.05&Flex_connection=1.0&Flex_distance=0.5&Flex_width=5.0&Lid_handle=knob&Lid_style=none&Lid_handle_height=8.0&Lid_height=4.0&Lid_play=0.1&top_edge=i&bottom_edge=h&x=600.0&y=120.0&h=200.0&outside=0&outside=1&vertical_edges=finger+joints&thickness=3.0&format=svg&tabs=0.0&qr_code=0&debug=0&labels=0&labels=1&reference=100&inner_corners=loop&burn=0.1&language=en&render=2
SettingsUrl short: http://www.festi.info/boxes.py/UniversalBox?Lid_handle=knob&top_edge=i&x=600.0&y=120.0&h=200.0
-->
  <title
     id="title2">UniversalBox</title>
  <metadata
     id="metadata4">
    <rdf:RDF>
      <cc:Work>
        <dc:title>Box - UniversalBox</dc:title>
        <dc:date>2024-01-29 13:14:06</dc:date>
        <dc:source>http://www.festi.info/boxes.py/UniversalBox?FingerJoint_angle=90.0&amp;FingerJoint_style=rectangular&amp;FingerJoint_surroundingspaces=2.0&amp;FingerJoint_bottom_lip=0.0&amp;FingerJoint_edge_width=1.0&amp;FingerJoint_extra_length=0.0&amp;FingerJoint_finger=2.0&amp;FingerJoint_play=0.0&amp;FingerJoint_space=2.0&amp;FingerJoint_width=1.0&amp;Stackable_angle=60&amp;Stackable_bottom_stabilizers=0.0&amp;Stackable_height=2.0&amp;Stackable_holedistance=1.0&amp;Stackable_width=4.0&amp;Hinge_grip_percentage=0&amp;Hinge_outset=0&amp;Hinge_outset=1&amp;Hinge_pinwidth=0.5&amp;Hinge_style=outset&amp;Hinge_axle=2.0&amp;Hinge_grip_length=0&amp;Hinge_hingestrength=1&amp;CabinetHinge_bore=3.2&amp;CabinetHinge_eyes_per_hinge=5&amp;CabinetHinge_hinges=2&amp;CabinetHinge_style=inside&amp;CabinetHinge_eye=1.5&amp;CabinetHinge_play=0.05&amp;CabinetHinge_spacing=2.0&amp;SlideOnLid_angle=90.0&amp;SlideOnLid_hole_width=0&amp;SlideOnLid_second_pin=0&amp;SlideOnLid_second_pin=1&amp;SlideOnLid_spring=both&amp;SlideOnLid_style=rectangular&amp;SlideOnLid_surroundingspaces=2.0&amp;SlideOnLid_bottom_lip=0.0&amp;SlideOnLid_edge_width=1.0&amp;SlideOnLid_extra_length=0.0&amp;SlideOnLid_finger=3.0&amp;SlideOnLid_play=0.05&amp;SlideOnLid_space=2.0&amp;SlideOnLid_width=1.0&amp;Click_angle=5.0&amp;Click_bottom_radius=0.1&amp;Click_depth=3.0&amp;RoundedTriangleEdge_height=50.0&amp;RoundedTriangleEdge_r_hole=2.0&amp;RoundedTriangleEdge_radius=30.0&amp;RoundedTriangleEdge_outset=1.0&amp;Mounting_d_head=6.5&amp;Mounting_d_shaft=3.0&amp;Mounting_margin=0.125&amp;Mounting_num=2&amp;Mounting_side=back&amp;Mounting_style=straight+edge%2C+within&amp;HandleEdge_height=20.0&amp;HandleEdge_hole_height=75.0&amp;HandleEdge_hole_width=40%3A40&amp;HandleEdge_on_sides=0&amp;HandleEdge_on_sides=1&amp;HandleEdge_radius=10.0&amp;HandleEdge_outset=1.0&amp;Flex_stretch=1.05&amp;Flex_connection=1.0&amp;Flex_distance=0.5&amp;Flex_width=5.0&amp;Lid_handle=knob&amp;Lid_style=none&amp;Lid_handle_height=8.0&amp;Lid_height=4.0&amp;Lid_play=0.1&amp;top_edge=i&amp;bottom_edge=h&amp;x=600.0&amp;y=120.0&amp;h=200.0&amp;outside=0&amp;outside=1&amp;vertical_edges=finger+joints&amp;thickness=3.0&amp;format=svg&amp;tabs=0.0&amp;qr_code=0&amp;debug=0&amp;labels=0&amp;labels=1&amp;reference=100&amp;inner_corners=loop&amp;burn=0.1&amp;language=en&amp;render=2</dc:source>
        <dc:source>http://www.festi.info/boxes.py/UniversalBox?Lid_handle=knob&amp;top_edge=i&amp;x=600.0&amp;y=120.0&amp;h=200.0</dc:source>
        <dc:description>Box with various options for different styles and lids

Created with Boxes.py (https://festi.info/boxes.py)
Command line: boxes UniversalBox --FingerJoint_angle=90.0 --FingerJoint_style=rectangular --FingerJoint_surroundingspaces=2.0 --FingerJoint_bottom_lip=0.0 --FingerJoint_edge_width=1.0 --FingerJoint_extra_length=0.0 --FingerJoint_finger=2.0 --FingerJoint_play=0.0 --FingerJoint_space=2.0 --FingerJoint_width=1.0 --Stackable_angle=60 --Stackable_bottom_stabilizers=0.0 --Stackable_height=2.0 --Stackable_holedistance=1.0 --Stackable_width=4.0 --Hinge_grip_percentage=0 --Hinge_outset=0 --Hinge_outset=1 --Hinge_pinwidth=0.5 --Hinge_style=outset --Hinge_axle=2.0 --Hinge_grip_length=0 --Hinge_hingestrength=1 --CabinetHinge_bore=3.2 --CabinetHinge_eyes_per_hinge=5 --CabinetHinge_hinges=2 --CabinetHinge_style=inside --CabinetHinge_eye=1.5 --CabinetHinge_play=0.05 --CabinetHinge_spacing=2.0 --SlideOnLid_angle=90.0 --SlideOnLid_hole_width=0 --SlideOnLid_second_pin=0 --SlideOnLid_second_pin=1 --SlideOnLid_spring=both --SlideOnLid_style=rectangular --SlideOnLid_surroundingspaces=2.0 --SlideOnLid_bottom_lip=0.0 --SlideOnLid_edge_width=1.0 --SlideOnLid_extra_length=0.0 --SlideOnLid_finger=3.0 --SlideOnLid_play=0.05 --SlideOnLid_space=2.0 --SlideOnLid_width=1.0 --Click_angle=5.0 --Click_bottom_radius=0.1 --Click_depth=3.0 --RoundedTriangleEdge_height=50.0 --RoundedTriangleEdge_r_hole=2.0 --RoundedTriangleEdge_radius=30.0 --RoundedTriangleEdge_outset=1.0 --Mounting_d_head=6.5 --Mounting_d_shaft=3.0 --Mounting_margin=0.125 --Mounting_num=2 --Mounting_side=back '--Mounting_style=straight edge, within' --HandleEdge_height=20.0 --HandleEdge_hole_height=75.0 --HandleEdge_hole_width=40:40 --HandleEdge_on_sides=0 --HandleEdge_on_sides=1 --HandleEdge_radius=10.0 --HandleEdge_outset=1.0 --Flex_stretch=1.05 --Flex_connection=1.0 --Flex_distance=0.5 --Flex_width=5.0 --Lid_handle=knob --Lid_style=none --Lid_handle_height=8.0 --Lid_height=4.0 --Lid_play=0.1 --top_edge=i --bottom_edge=h --x=600.0 --y=120.0 --h=200.0 --outside=0 --outside=1 '--vertical_edges=finger joints' --thickness=3.0 --format=svg --tabs=0.0 --qr_code=0 --debug=0 --labels=0 --labels=1 --reference=100 --inner_corners=loop --burn=0.1
Command line short: boxes UniversalBox --Lid_handle=knob --top_edge=i --x=600.0 --y=120.0 --h=200.0
Url: http://www.festi.info/boxes.py/UniversalBox?FingerJoint_angle=90.0&amp;FingerJoint_style=rectangular&amp;FingerJoint_surroundingspaces=2.0&amp;FingerJoint_bottom_lip=0.0&amp;FingerJoint_edge_width=1.0&amp;FingerJoint_extra_length=0.0&amp;FingerJoint_finger=2.0&amp;FingerJoint_play=0.0&amp;FingerJoint_space=2.0&amp;FingerJoint_width=1.0&amp;Stackable_angle=60&amp;Stackable_bottom_stabilizers=0.0&amp;Stackable_height=2.0&amp;Stackable_holedistance=1.0&amp;Stackable_width=4.0&amp;Hinge_grip_percentage=0&amp;Hinge_outset=0&amp;Hinge_outset=1&amp;Hinge_pinwidth=0.5&amp;Hinge_style=outset&amp;Hinge_axle=2.0&amp;Hinge_grip_length=0&amp;Hinge_hingestrength=1&amp;CabinetHinge_bore=3.2&amp;CabinetHinge_eyes_per_hinge=5&amp;CabinetHinge_hinges=2&amp;CabinetHinge_style=inside&amp;CabinetHinge_eye=1.5&amp;CabinetHinge_play=0.05&amp;CabinetHinge_spacing=2.0&amp;SlideOnLid_angle=90.0&amp;SlideOnLid_hole_width=0&amp;SlideOnLid_second_pin=0&amp;SlideOnLid_second_pin=1&amp;SlideOnLid_spring=both&amp;SlideOnLid_style=rectangular&amp;SlideOnLid_surroundingspaces=2.0&amp;SlideOnLid_bottom_lip=0.0&amp;SlideOnLid_edge_width=1.0&amp;SlideOnLid_extra_length=0.0&amp;SlideOnLid_finger=3.0&amp;SlideOnLid_play=0.05&amp;SlideOnLid_space=2.0&amp;SlideOnLid_width=1.0&amp;Click_angle=5.0&amp;Click_bottom_radius=0.1&amp;Click_depth=3.0&amp;RoundedTriangleEdge_height=50.0&amp;RoundedTriangleEdge_r_hole=2.0&amp;RoundedTriangleEdge_radius=30.0&amp;RoundedTriangleEdge_outset=1.0&amp;Mounting_d_head=6.5&amp;Mounting_d_shaft=3.0&amp;Mounting_margin=0.125&amp;Mounting_num=2&amp;Mounting_side=back&amp;Mounting_style=straight+edge%2C+within&amp;HandleEdge_height=20.0&amp;HandleEdge_hole_height=75.0&amp;HandleEdge_hole_width=40%3A40&amp;HandleEdge_on_sides=0&amp;HandleEdge_on_sides=1&amp;HandleEdge_radius=10.0&amp;HandleEdge_outset=1.0&amp;Flex_stretch=1.05&amp;Flex_connection=1.0&amp;Flex_distance=0.5&amp;Flex_width=5.0&amp;Lid_handle=knob&amp;Lid_style=none&amp;Lid_handle_height=8.0&amp;Lid_height=4.0&amp;Lid_play=0.1&amp;top_edge=i&amp;bottom_edge=h&amp;x=600.0&amp;y=120.0&amp;h=200.0&amp;outside=0&amp;outside=1&amp;vertical_edges=finger+joints&amp;thickness=3.0&amp;format=svg&amp;tabs=0.0&amp;qr_code=0&amp;debug=0&amp;labels=0&amp;labels=1&amp;reference=100&amp;inner_corners=loop&amp;burn=0.1&amp;language=en&amp;render=2
Url short: http://www.festi.info/boxes.py/UniversalBox?Lid_handle=knob&amp;top_edge=i&amp;x=600.0&amp;y=120.0&amp;h=200.0
SettingsUrl: http://www.festi.info/boxes.py/UniversalBox?FingerJoint_angle=90.0&amp;FingerJoint_style=rectangular&amp;FingerJoint_surroundingspaces=2.0&amp;FingerJoint_bottom_lip=0.0&amp;FingerJoint_edge_width=1.0&amp;FingerJoint_extra_length=0.0&amp;FingerJoint_finger=2.0&amp;FingerJoint_play=0.0&amp;FingerJoint_space=2.0&amp;FingerJoint_width=1.0&amp;Stackable_angle=60&amp;Stackable_bottom_stabilizers=0.0&amp;Stackable_height=2.0&amp;Stackable_holedistance=1.0&amp;Stackable_width=4.0&amp;Hinge_grip_percentage=0&amp;Hinge_outset=0&amp;Hinge_outset=1&amp;Hinge_pinwidth=0.5&amp;Hinge_style=outset&amp;Hinge_axle=2.0&amp;Hinge_grip_length=0&amp;Hinge_hingestrength=1&amp;CabinetHinge_bore=3.2&amp;CabinetHinge_eyes_per_hinge=5&amp;CabinetHinge_hinges=2&amp;CabinetHinge_style=inside&amp;CabinetHinge_eye=1.5&amp;CabinetHinge_play=0.05&amp;CabinetHinge_spacing=2.0&amp;SlideOnLid_angle=90.0&amp;SlideOnLid_hole_width=0&amp;SlideOnLid_second_pin=0&amp;SlideOnLid_second_pin=1&amp;SlideOnLid_spring=both&amp;SlideOnLid_style=rectangular&amp;SlideOnLid_surroundingspaces=2.0&amp;SlideOnLid_bottom_lip=0.0&amp;SlideOnLid_edge_width=1.0&amp;SlideOnLid_extra_length=0.0&amp;SlideOnLid_finger=3.0&amp;SlideOnLid_play=0.05&amp;SlideOnLid_space=2.0&amp;SlideOnLid_width=1.0&amp;Click_angle=5.0&amp;Click_bottom_radius=0.1&amp;Click_depth=3.0&amp;RoundedTriangleEdge_height=50.0&amp;RoundedTriangleEdge_r_hole=2.0&amp;RoundedTriangleEdge_radius=30.0&amp;RoundedTriangleEdge_outset=1.0&amp;Mounting_d_head=6.5&amp;Mounting_d_shaft=3.0&amp;Mounting_margin=0.125&amp;Mounting_num=2&amp;Mounting_side=back&amp;Mounting_style=straight+edge%2C+within&amp;HandleEdge_height=20.0&amp;HandleEdge_hole_height=75.0&amp;HandleEdge_hole_width=40%3A40&amp;HandleEdge_on_sides=0&amp;HandleEdge_on_sides=1&amp;HandleEdge_radius=10.0&amp;HandleEdge_outset=1.0&amp;Flex_stretch=1.05&amp;Flex_connection=1.0&amp;Flex_distance=0.5&amp;Flex_width=5.0&amp;Lid_handle=knob&amp;Lid_style=none&amp;Lid_handle_height=8.0&amp;Lid_height=4.0&amp;Lid_play=0.1&amp;top_edge=i&amp;bottom_edge=h&amp;x=600.0&amp;y=120.0&amp;h=200.0&amp;outside=0&amp;outside=1&amp;vertical_edges=finger+joints&amp;thickness=3.0&amp;format=svg&amp;tabs=0.0&amp;qr_code=0&amp;debug=0&amp;labels=0&amp;labels=1&amp;reference=100&amp;inner_corners=loop&amp;burn=0.1&amp;language=en&amp;render=2
SettingsUrl short: http://www.festi.info/boxes.py/UniversalBox?Lid_handle=knob&amp;top_edge=i&amp;x=600.0&amp;y=120.0&amp;h=200.0
</dc:description>
      </cc:Work>
    </rdf:RDF>
  </metadata>
  <g
     id="g2417"
     style="stroke:#000000;stroke-width:0.014;stroke-dasharray:none;stroke-opacity:1"
     transform="translate(-18.693,-8.2468094)">
    <path
       d="m 30.8,631.99773 h -2.9 c -0.1,0 0,0.13156 0,0 v -3.68372 c 0,-0.13157 -0.1,0 0,0 h 5.8 c 0.1,0 0,-0.13157 0,0 v 3.68372 c 0,0.13156 0.1,0 0,0 z"
       stroke="#0000ff"
       stroke-width="0.2"
       id="path11"
       style="fill:none;stroke:#000000;stroke-width:0.014;stroke-linecap:round;stroke-linejoin:round;stroke-dasharray:none;stroke-opacity:1" />
    <path
       d="m 42.8,631.99773 h -2.9 c -0.1,0 0,0.13156 0,0 v -3.68372 c 0,-0.13157 -0.1,0 0,0 h 5.8 c 0.1,0 0,-0.13157 0,0 v 3.68372 c 0,0.13156 0.1,0 0,0 z"
       stroke="#0000ff"
       stroke-width="0.2"
       id="path13"
       style="fill:none;stroke:#000000;stroke-width:0.014;stroke-linecap:round;stroke-linejoin:round;stroke-dasharray:none;stroke-opacity:1" />
    <path
       d="m 54.8,631.99773 h -2.9 c -0.1,0 0,0.13156 0,0 v -3.68372 c 0,-0.13157 -0.1,0 0,0 h 5.8 c 0.1,0 0,-0.13157 0,0 v 3.68372 c 0,0.13156 0.1,0 0,0 z"
       stroke="#0000ff"
       stroke-width="0.2"
       id="path15"
       style="fill:none;stroke:#000000;stroke-width:0.014;stroke-linecap:round;stroke-linejoin:round;stroke-dasharray:none;stroke-opacity:1" />
    <path
       d="m 66.8,631.99773 h -2.9 c -0.1,0 0,0.13156 0,0 v -3.68372 c 0,-0.13157 -0.1,0 0,0 h 5.8 c 0.1,0 0,-0.13157 0,0 v 3.68372 c 0,0.13156 0.1,0 0,0 z"
       stroke="#0000ff"
       stroke-width="0.2"
       id="path17"
       style="fill:none;stroke:#000000;stroke-width:0.014;stroke-linecap:round;stroke-linejoin:round;stroke-dasharray:none;stroke-opacity:1" />
    <path
       d="m 78.8,631.99773 h -2.9 c -0.1,0 0,0.13156 0,0 v -3.68372 c 0,-0.13157 -0.1,0 0,0 h 5.8 c 0.1,0 0,-0.13157 0,0 v 3.68372 c 0,0.13156 0.1,0 0,0 z"
       stroke="#0000ff"
       stroke-width="0.2"
       id="path19"
       style="fill:none;stroke:#000000;stroke-width:0.014;stroke-linecap:round;stroke-linejoin:round;stroke-dasharray:none;stroke-opacity:1" />
    <path
       d="m 90.8,631.99773 h -2.9 c -0.1,0 0,0.13156 0,0 v -3.68372 c 0,-0.13157 -0.1,0 0,0 h 5.8 c 0.1,0 0,-0.13157 0,0 v 3.68372 c 0,0.13156 0.1,0 0,0 z"
       stroke="#0000ff"
       stroke-width="0.2"
       id="path21"
       style="fill:none;stroke:#000000;stroke-width:0.014;stroke-linecap:round;stroke-linejoin:round;stroke-dasharray:none;stroke-opacity:1" />
    <path
       d="m 102.8,631.99773 h -2.9 c -0.1,0 0,0.13156 0,0 v -3.68372 c 0,-0.13157 -0.1,0 0,0 h 5.8 c 0.1,0 0,-0.13157 0,0 v 3.68372 c 0,0.13156 0.1,0 0,0 z"
       stroke="#0000ff"
       stroke-width="0.2"
       id="path23"
       style="fill:none;stroke:#000000;stroke-width:0.014;stroke-linecap:round;stroke-linejoin:round;stroke-dasharray:none;stroke-opacity:1" />
    <path
       d="m 114.8,631.99773 h -2.9 c -0.1,0 0,0.13156 0,0 v -3.68372 c 0,-0.13157 -0.1,0 0,0 h 5.8 c 0.1,0 0,-0.13157 0,0 v 3.68372 c 0,0.13156 0.1,0 0,0 z"
       stroke="#0000ff"
       stroke-width="0.2"
       id="path25"
       style="fill:none;stroke:#000000;stroke-width:0.014;stroke-linecap:round;stroke-linejoin:round;stroke-dasharray:none;stroke-opacity:1" />
    <path
       d="m 126.8,631.99773 h -2.9 c -0.1,0 0,0.13156 0,0 v -3.68372 c 0,-0.13157 -0.1,0 0,0 h 5.8 c 0.1,0 0,-0.13157 0,0 v 3.68372 c 0,0.13156 0.1,0 0,0 z"
       stroke="#0000ff"
       stroke-width="0.2"
       id="path27"
       style="fill:none;stroke:#000000;stroke-width:0.014;stroke-linecap:round;stroke-linejoin:round;stroke-dasharray:none;stroke-opacity:1" />
    <path
       d="m 138.8,631.99773 h -2.9 c -0.1,0 0,0.13156 0,0 v -3.68372 c 0,-0.13157 -0.1,0 0,0 h 5.8 c 0.1,0 0,-0.13157 0,0 v 3.68372 c 0,0.13156 0.1,0 0,0 z"
       stroke="#0000ff"
       stroke-width="0.2"
       id="path29"
       style="fill:none;stroke:#000000;stroke-width:0.014;stroke-linecap:round;stroke-linejoin:round;stroke-dasharray:none;stroke-opacity:1" />
    <path
       d="m 150.8,631.99773 h -2.9 c -0.1,0 0,0.13156 0,0 v -3.68372 c 0,-0.13157 -0.1,0 0,0 h 5.8 c 0.1,0 0,-0.13157 0,0 v 3.68372 c 0,0.13156 0.1,0 0,0 z"
       stroke="#0000ff"
       stroke-width="0.2"
       id="path31"
       style="fill:none;stroke:#000000;stroke-width:0.014;stroke-linecap:round;stroke-linejoin:round;stroke-dasharray:none;stroke-opacity:1" />
    <path
       d="m 162.8,631.99773 h -2.9 c -0.1,0 0,0.13156 0,0 v -3.68372 c 0,-0.13157 -0.1,0 0,0 h 5.8 c 0.1,0 0,-0.13157 0,0 v 3.68372 c 0,0.13156 0.1,0 0,0 z"
       stroke="#0000ff"
       stroke-width="0.2"
       id="path33"
       style="fill:none;stroke:#000000;stroke-width:0.014;stroke-linecap:round;stroke-linejoin:round;stroke-dasharray:none;stroke-opacity:1" />
    <path
       d="m 174.8,631.99773 h -2.9 c -0.1,0 0,0.13156 0,0 v -3.68372 c 0,-0.13157 -0.1,0 0,0 h 5.8 c 0.1,0 0,-0.13157 0,0 v 3.68372 c 0,0.13156 0.1,0 0,0 z"
       stroke="#0000ff"
       stroke-width="0.2"
       id="path35"
       style="fill:none;stroke:#000000;stroke-width:0.014;stroke-linecap:round;stroke-linejoin:round;stroke-dasharray:none;stroke-opacity:1" />
    <path
       d="m 186.8,631.99773 h -2.9 c -0.1,0 0,0.13156 0,0 v -3.68372 c 0,-0.13157 -0.1,0 0,0 h 5.8 c 0.1,0 0,-0.13157 0,0 v 3.68372 c 0,0.13156 0.1,0 0,0 z"
       stroke="#0000ff"
       stroke-width="0.2"
       id="path37"
       style="fill:none;stroke:#000000;stroke-width:0.014;stroke-linecap:round;stroke-linejoin:round;stroke-dasharray:none;stroke-opacity:1" />
    <path
       d="m 198.8,631.99773 h -2.9 c -0.1,0 0,0.13156 0,0 v -3.68372 c 0,-0.13157 -0.1,0 0,0 h 5.8 c 0.1,0 0,-0.13157 0,0 v 3.68372 c 0,0.13156 0.1,0 0,0 z"
       stroke="#0000ff"
       stroke-width="0.2"
       id="path39"
       style="fill:none;stroke:#000000;stroke-width:0.014;stroke-linecap:round;stroke-linejoin:round;stroke-dasharray:none;stroke-opacity:1" />
    <path
       d="m 210.8,631.99773 h -2.9 c -0.1,0 0,0.13156 0,0 v -3.68372 c 0,-0.13157 -0.1,0 0,0 h 5.8 c 0.1,0 0,-0.13157 0,0 v 3.68372 c 0,0.13156 0.1,0 0,0 z"
       stroke="#0000ff"
       stroke-width="0.2"
       id="path41"
       style="fill:none;stroke:#000000;stroke-width:0.014;stroke-linecap:round;stroke-linejoin:round;stroke-dasharray:none;stroke-opacity:1" />
    <path
       d="m 222.8,631.99773 h -2.9 c -0.1,0 0,0.13156 0,0 v -3.68372 c 0,-0.13157 -0.1,0 0,0 h 5.8 c 0.1,0 0,-0.13157 0,0 v 3.68372 c 0,0.13156 0.1,0 0,0 z"
       stroke="#0000ff"
       stroke-width="0.2"
       id="path43"
       style="fill:none;stroke:#000000;stroke-width:0.014;stroke-linecap:round;stroke-linejoin:round;stroke-dasharray:none;stroke-opacity:1" />
    <path
       d="m 234.8,631.99773 h -2.9 c -0.1,0 0,0.13156 0,0 v -3.68372 c 0,-0.13157 -0.1,0 0,0 h 5.8 c 0.1,0 0,-0.13157 0,0 v 3.68372 c 0,0.13156 0.1,0 0,0 z"
       stroke="#0000ff"
       stroke-width="0.2"
       id="path45"
       style="fill:none;stroke:#000000;stroke-width:0.014;stroke-linecap:round;stroke-linejoin:round;stroke-dasharray:none;stroke-opacity:1" />
    <path
       d="m 246.8,631.99773 h -2.9 c -0.1,0 0,0.13156 0,0 v -3.68372 c 0,-0.13157 -0.1,0 0,0 h 5.8 c 0.1,0 0,-0.13157 0,0 v 3.68372 c 0,0.13156 0.1,0 0,0 z"
       stroke="#0000ff"
       stroke-width="0.2"
       id="path47"
       style="fill:none;stroke:#000000;stroke-width:0.014;stroke-linecap:round;stroke-linejoin:round;stroke-dasharray:none;stroke-opacity:1" />
    <path
       d="m 258.8,631.99773 h -2.9 c -0.1,0 0,0.13156 0,0 v -3.68372 c 0,-0.13157 -0.1,0 0,0 h 5.8 c 0.1,0 0,-0.13157 0,0 v 3.68372 c 0,0.13156 0.1,0 0,0 z"
       stroke="#0000ff"
       stroke-width="0.2"
       id="path49"
       style="fill:none;stroke:#000000;stroke-width:0.014;stroke-linecap:round;stroke-linejoin:round;stroke-dasharray:none;stroke-opacity:1" />
    <path
       d="m 270.8,631.99773 h -2.9 c -0.1,0 0,0.13156 0,0 v -3.68372 c 0,-0.13157 -0.1,0 0,0 h 5.8 c 0.1,0 0,-0.13157 0,0 v 3.68372 c 0,0.13156 0.1,0 0,0 z"
       stroke="#0000ff"
       stroke-width="0.2"
       id="path51"
       style="fill:none;stroke:#000000;stroke-width:0.014;stroke-linecap:round;stroke-linejoin:round;stroke-dasharray:none;stroke-opacity:1" />
    <path
       d="m 282.8,631.99773 h -2.9 c -0.1,0 0,0.13156 0,0 v -3.68372 c 0,-0.13157 -0.1,0 0,0 h 5.8 c 0.1,0 0,-0.13157 0,0 v 3.68372 c 0,0.13156 0.1,0 0,0 z"
       stroke="#0000ff"
       stroke-width="0.2"
       id="path53"
       style="fill:none;stroke:#000000;stroke-width:0.014;stroke-linecap:round;stroke-linejoin:round;stroke-dasharray:none;stroke-opacity:1" />
    <path
       d="m 294.8,631.99773 h -2.9 c -0.1,0 0,0.13156 0,0 v -3.68372 c 0,-0.13157 -0.1,0 0,0 h 5.8 c 0.1,0 0,-0.13157 0,0 v 3.68372 c 0,0.13156 0.1,0 0,0 z"
       stroke="#0000ff"
       stroke-width="0.2"
       id="path55"
       style="fill:none;stroke:#000000;stroke-width:0.014;stroke-linecap:round;stroke-linejoin:round;stroke-dasharray:none;stroke-opacity:1" />
    <path
       d="m 306.8,631.99773 h -2.9 c -0.1,0 0,0.13156 0,0 v -3.68372 c 0,-0.13157 -0.1,0 0,0 h 5.8 c 0.1,0 0,-0.13157 0,0 v 3.68372 c 0,0.13156 0.1,0 0,0 z"
       stroke="#0000ff"
       stroke-width="0.2"
       id="path57"
       style="fill:none;stroke:#000000;stroke-width:0.014;stroke-linecap:round;stroke-linejoin:round;stroke-dasharray:none;stroke-opacity:1" />
    <path
       d="m 318.8,631.99773 h -2.9 c -0.1,0 0,0.13156 0,0 v -3.68372 c 0,-0.13157 -0.1,0 0,0 h 5.8 c 0.1,0 0,-0.13157 0,0 v 3.68372 c 0,0.13156 0.1,0 0,0 z"
       stroke="#0000ff"
       stroke-width="0.2"
       id="path59"
       style="fill:none;stroke:#000000;stroke-width:0.014;stroke-linecap:round;stroke-linejoin:round;stroke-dasharray:none;stroke-opacity:1" />
    <path
       d="m 330.8,631.99773 h -2.9 c -0.1,0 0,0.13156 0,0 v -3.68372 c 0,-0.13157 -0.1,0 0,0 h 5.8 c 0.1,0 0,-0.13157 0,0 v 3.68372 c 0,0.13156 0.1,0 0,0 z"
       stroke="#0000ff"
       stroke-width="0.2"
       id="path61"
       style="fill:none;stroke:#000000;stroke-width:0.014;stroke-linecap:round;stroke-linejoin:round;stroke-dasharray:none;stroke-opacity:1" />
    <path
       d="m 342.8,631.99773 h -2.9 c -0.1,0 0,0.13156 0,0 v -3.68372 c 0,-0.13157 -0.1,0 0,0 h 5.8 c 0.1,0 0,-0.13157 0,0 v 3.68372 c 0,0.13156 0.1,0 0,0 z"
       stroke="#0000ff"
       stroke-width="0.2"
       id="path63"
       style="fill:none;stroke:#000000;stroke-width:0.014;stroke-linecap:round;stroke-linejoin:round;stroke-dasharray:none;stroke-opacity:1" />
    <path
       d="m 354.8,631.99773 h -2.9 c -0.1,0 0,0.13156 0,0 v -3.68372 c 0,-0.13157 -0.1,0 0,0 h 5.8 c 0.1,0 0,-0.13157 0,0 v 3.68372 c 0,0.13156 0.1,0 0,0 z"
       stroke="#0000ff"
       stroke-width="0.2"
       id="path65"
       style="fill:none;stroke:#000000;stroke-width:0.014;stroke-linecap:round;stroke-linejoin:round;stroke-dasharray:none;stroke-opacity:1" />
    <path
       d="m 366.8,631.99773 h -2.9 c -0.1,0 0,0.13156 0,0 v -3.68372 c 0,-0.13157 -0.1,0 0,0 h 5.8 c 0.1,0 0,-0.13157 0,0 v 3.68372 c 0,0.13156 0.1,0 0,0 z"
       stroke="#0000ff"
       stroke-width="0.2"
       id="path67"
       style="fill:none;stroke:#000000;stroke-width:0.014;stroke-linecap:round;stroke-linejoin:round;stroke-dasharray:none;stroke-opacity:1" />
    <path
       d="m 378.8,631.99773 h -2.9 c -0.1,0 0,0.13156 0,0 v -3.68372 c 0,-0.13157 -0.1,0 0,0 h 5.8 c 0.1,0 0,-0.13157 0,0 v 3.68372 c 0,0.13156 0.1,0 0,0 z"
       stroke="#0000ff"
       stroke-width="0.2"
       id="path69"
       style="fill:none;stroke:#000000;stroke-width:0.014;stroke-linecap:round;stroke-linejoin:round;stroke-dasharray:none;stroke-opacity:1" />
    <path
       d="m 390.8,631.99773 h -2.9 c -0.1,0 0,0.13156 0,0 v -3.68372 c 0,-0.13157 -0.1,0 0,0 h 5.8 c 0.1,0 0,-0.13157 0,0 v 3.68372 c 0,0.13156 0.1,0 0,0 z"
       stroke="#0000ff"
       stroke-width="0.2"
       id="path71"
       style="fill:none;stroke:#000000;stroke-width:0.014;stroke-linecap:round;stroke-linejoin:round;stroke-dasharray:none;stroke-opacity:1" />
    <path
       d="m 402.8,631.99773 h -2.9 c -0.1,0 0,0.13156 0,0 v -3.68372 c 0,-0.13157 -0.1,0 0,0 h 5.8 c 0.1,0 0,-0.13157 0,0 v 3.68372 c 0,0.13156 0.1,0 0,0 z"
       stroke="#0000ff"
       stroke-width="0.2"
       id="path73"
       style="fill:none;stroke:#000000;stroke-width:0.014;stroke-linecap:round;stroke-linejoin:round;stroke-dasharray:none;stroke-opacity:1" />
    <path
       d="m 414.8,631.99773 h -2.9 c -0.1,0 0,0.13156 0,0 v -3.68372 c 0,-0.13157 -0.1,0 0,0 h 5.8 c 0.1,0 0,-0.13157 0,0 v 3.68372 c 0,0.13156 0.1,0 0,0 z"
       stroke="#0000ff"
       stroke-width="0.2"
       id="path75"
       style="fill:none;stroke:#000000;stroke-width:0.014;stroke-linecap:round;stroke-linejoin:round;stroke-dasharray:none;stroke-opacity:1" />
    <path
       d="m 426.8,631.99773 h -2.9 c -0.1,0 0,0.13156 0,0 v -3.68372 c 0,-0.13157 -0.1,0 0,0 h 5.8 c 0.1,0 0,-0.13157 0,0 v 3.68372 c 0,0.13156 0.1,0 0,0 z"
       stroke="#0000ff"
       stroke-width="0.2"
       id="path77"
       style="fill:none;stroke:#000000;stroke-width:0.014;stroke-linecap:round;stroke-linejoin:round;stroke-dasharray:none;stroke-opacity:1" />
    <path
       d="m 438.8,631.99773 h -2.9 c -0.1,0 0,0.13156 0,0 v -3.68372 c 0,-0.13157 -0.1,0 0,0 h 5.8 c 0.1,0 0,-0.13157 0,0 v 3.68372 c 0,0.13156 0.1,0 0,0 z"
       stroke="#0000ff"
       stroke-width="0.2"
       id="path79"
       style="fill:none;stroke:#000000;stroke-width:0.014;stroke-linecap:round;stroke-linejoin:round;stroke-dasharray:none;stroke-opacity:1" />
    <path
       d="m 450.8,631.99773 h -2.9 c -0.1,0 0,0.13156 0,0 v -3.68372 c 0,-0.13157 -0.1,0 0,0 h 5.8 c 0.1,0 0,-0.13157 0,0 v 3.68372 c 0,0.13156 0.1,0 0,0 z"
       stroke="#0000ff"
       stroke-width="0.2"
       id="path81"
       style="fill:none;stroke:#000000;stroke-width:0.014;stroke-linecap:round;stroke-linejoin:round;stroke-dasharray:none;stroke-opacity:1" />
    <path
       d="m 462.8,631.99773 h -2.9 c -0.1,0 0,0.13156 0,0 v -3.68372 c 0,-0.13157 -0.1,0 0,0 h 5.8 c 0.1,0 0,-0.13157 0,0 v 3.68372 c 0,0.13156 0.1,0 0,0 z"
       stroke="#0000ff"
       stroke-width="0.2"
       id="path83"
       style="fill:none;stroke:#000000;stroke-width:0.014;stroke-linecap:round;stroke-linejoin:round;stroke-dasharray:none;stroke-opacity:1" />
    <path
       d="m 474.8,631.99773 h -2.9 c -0.1,0 0,0.13156 0,0 v -3.68372 c 0,-0.13157 -0.1,0 0,0 h 5.8 c 0.1,0 0,-0.13157 0,0 v 3.68372 c 0,0.13156 0.1,0 0,0 z"
       stroke="#0000ff"
       stroke-width="0.2"
       id="path85"
       style="fill:none;stroke:#000000;stroke-width:0.014;stroke-linecap:round;stroke-linejoin:round;stroke-dasharray:none;stroke-opacity:1" />
    <path
       d="m 486.8,631.99773 h -2.9 c -0.1,0 0,0.13156 0,0 v -3.68372 c 0,-0.13157 -0.1,0 0,0 h 5.8 c 0.1,0 0,-0.13157 0,0 v 3.68372 c 0,0.13156 0.1,0 0,0 z"
       stroke="#0000ff"
       stroke-width="0.2"
       id="path87"
       style="fill:none;stroke:#000000;stroke-width:0.014;stroke-linecap:round;stroke-linejoin:round;stroke-dasharray:none;stroke-opacity:1" />
    <path
       d="m 498.8,631.99773 h -2.9 c -0.1,0 0,0.13156 0,0 v -3.68372 c 0,-0.13157 -0.1,0 0,0 h 5.8 c 0.1,0 0,-0.13157 0,0 v 3.68372 c 0,0.13156 0.1,0 0,0 z"
       stroke="#0000ff"
       stroke-width="0.2"
       id="path89"
       style="fill:none;stroke:#000000;stroke-width:0.014;stroke-linecap:round;stroke-linejoin:round;stroke-dasharray:none;stroke-opacity:1" />
    <path
       d="m 510.8,631.99773 h -2.9 c -0.1,0 0,0.13156 0,0 v -3.68372 c 0,-0.13157 -0.1,0 0,0 h 5.8 c 0.1,0 0,-0.13157 0,0 v 3.68372 c 0,0.13156 0.1,0 0,0 z"
       stroke="#0000ff"
       stroke-width="0.2"
       id="path91"
       style="fill:none;stroke:#000000;stroke-width:0.014;stroke-linecap:round;stroke-linejoin:round;stroke-dasharray:none;stroke-opacity:1" />
    <path
       d="m 522.8,631.99773 h -2.9 c -0.1,0 0,0.13156 0,0 v -3.68372 c 0,-0.13157 -0.1,0 0,0 h 5.8 c 0.1,0 0,-0.13157 0,0 v 3.68372 c 0,0.13156 0.1,0 0,0 z"
       stroke="#0000ff"
       stroke-width="0.2"
       id="path93"
       style="fill:none;stroke:#000000;stroke-width:0.014;stroke-linecap:round;stroke-linejoin:round;stroke-dasharray:none;stroke-opacity:1" />
    <path
       d="m 534.8,631.99773 h -2.9 c -0.1,0 0,0.13156 0,0 v -3.68372 c 0,-0.13157 -0.1,0 0,0 h 5.8 c 0.1,0 0,-0.13157 0,0 v 3.68372 c 0,0.13156 0.1,0 0,0 z"
       stroke="#0000ff"
       stroke-width="0.2"
       id="path95"
       style="fill:none;stroke:#000000;stroke-width:0.014;stroke-linecap:round;stroke-linejoin:round;stroke-dasharray:none;stroke-opacity:1" />
    <path
       d="m 546.8,631.99773 h -2.9 c -0.1,0 0,0.13156 0,0 v -3.68372 c 0,-0.13157 -0.1,0 0,0 h 5.8 c 0.1,0 0,-0.13157 0,0 v 3.68372 c 0,0.13156 0.1,0 0,0 z"
       stroke="#0000ff"
       stroke-width="0.2"
       id="path97"
       style="fill:none;stroke:#000000;stroke-width:0.014;stroke-linecap:round;stroke-linejoin:round;stroke-dasharray:none;stroke-opacity:1" />
    <path
       d="m 558.8,631.99773 h -2.9 c -0.1,0 0,0.13156 0,0 v -3.68372 c 0,-0.13157 -0.1,0 0,0 h 5.8 c 0.1,0 0,-0.13157 0,0 v 3.68372 c 0,0.13156 0.1,0 0,0 z"
       stroke="#0000ff"
       stroke-width="0.2"
       id="path99"
       style="fill:none;stroke:#000000;stroke-width:0.014;stroke-linecap:round;stroke-linejoin:round;stroke-dasharray:none;stroke-opacity:1" />
    <path
       d="m 570.8,631.99773 h -2.9 c -0.1,0 0,0.13156 0,0 v -3.68372 c 0,-0.13157 -0.1,0 0,0 h 5.8 c 0.1,0 0,-0.13157 0,0 v 3.68372 c 0,0.13156 0.1,0 0,0 z"
       stroke="#0000ff"
       stroke-width="0.2"
       id="path101"
       style="fill:none;stroke:#000000;stroke-width:0.014;stroke-linecap:round;stroke-linejoin:round;stroke-dasharray:none;stroke-opacity:1" />
    <path
       d="m 582.8,631.99773 h -2.9 c -0.1,0 0,0.13156 0,0 v -3.68372 c 0,-0.13157 -0.1,0 0,0 h 5.8 c 0.1,0 0,-0.13157 0,0 v 3.68372 c 0,0.13156 0.1,0 0,0 z"
       stroke="#0000ff"
       stroke-width="0.2"
       id="path103"
       style="fill:none;stroke:#000000;stroke-width:0.014;stroke-linecap:round;stroke-linejoin:round;stroke-dasharray:none;stroke-opacity:1" />
    <path
       d="m 594.8,631.99773 h -2.9 c -0.1,0 0,0.13156 0,0 v -3.68372 c 0,-0.13157 -0.1,0 0,0 h 5.8 c 0.1,0 0,-0.13157 0,0 v 3.68372 c 0,0.13156 0.1,0 0,0 z"
       stroke="#0000ff"
       stroke-width="0.2"
       id="path105"
       style="fill:none;stroke:#000000;stroke-width:0.014;stroke-linecap:round;stroke-linejoin:round;stroke-dasharray:none;stroke-opacity:1" />
    <path
       d="m 606.8,631.99773 h -2.9 c -0.1,0 0,0.13156 0,0 v -3.68372 c 0,-0.13157 -0.1,0 0,0 h 5.8 c 0.1,0 0,-0.13157 0,0 v 3.68372 c 0,0.13156 0.1,0 0,0 z"
       stroke="#0000ff"
       stroke-width="0.2"
       id="path107"
       style="fill:none;stroke:#000000;stroke-width:0.014;stroke-linecap:round;stroke-linejoin:round;stroke-dasharray:none;stroke-opacity:1" />
    <path
       d="m 21.8,634.3 h 594 3 c 0.055,0 0.1,-0.045 0.1,-0.1 v -8.5 c 0,-0.055 -0.045,-0.1 -0.1,-0.1 h -2.9 c -0.1,0 0,0.1 0,0 v -5.8 c 0,-0.1 -0.1,0 0,0 h 2.9 c 0.055,0 0.1,-0.045 0.1,-0.1 v -6 c 0,-0.055 -0.045,-0.1 -0.1,-0.1 h -2.9 c -0.1,0 0,0.1 0,0 v -5.8 c 0,-0.1 -0.1,0 0,0 h 2.9 c 0.055,0 0.1,-0.045 0.1,-0.1 v -6 c 0,-0.055 -0.045,-0.1 -0.1,-0.1 h -2.9 c -0.1,0 0,0.1 0,0 v -5.8 c 0,-0.1 -0.1,0 0,0 h 2.9 c 0.055,0 0.1,-0.045 0.1,-0.1 v -6 c 0,-0.055 -0.045,-0.1 -0.1,-0.1 h -2.9 c -0.1,0 0,0.1 0,0 v -5.8 c 0,-0.1 -0.1,0 0,0 h 2.9 c 0.055,0 0.1,-0.045 0.1,-0.1 v -6 c 0,-0.055 -0.045,-0.1 -0.1,-0.1 h -2.9 c -0.1,0 0,0.1 0,0 v -5.8 c 0,-0.1 -0.1,0 0,0 h 2.9 c 0.055,0 0.1,-0.045 0.1,-0.1 v -6 c 0,-0.055 -0.045,-0.1 -0.1,-0.1 h -2.9 c -0.1,0 0,0.1 0,0 v -5.8 c 0,-0.1 -0.1,0 0,0 h 2.9 c 0.055,0 0.1,-0.045 0.1,-0.1 v -6 c 0,-0.055 -0.045,-0.1 -0.1,-0.1 h -2.9 c -0.1,0 0,0.1 0,0 v -5.8 c 0,-0.1 -0.1,0 0,0 h 2.9 c 0.055,0 0.1,-0.045 0.1,-0.1 v -6 c 0,-0.055 -0.045,-0.1 -0.1,-0.1 h -2.9 c -0.1,0 0,0.1 0,0 v -5.8 c 0,-0.1 -0.1,0 0,0 h 2.9 c 0.055,0 0.1,-0.045 0.1,-0.1 v -6 c 0,-0.055 -0.045,-0.1 -0.1,-0.1 h -2.9 c -0.1,0 0,0.1 0,0 v -5.8 c 0,-0.1 -0.1,0 0,0 h 2.9 c 0.055,0 0.1,-0.045 0.1,-0.1 v -6 c 0,-0.055 -0.045,-0.1 -0.1,-0.1 h -2.9 c -0.1,0 0,0.1 0,0 v -5.8 c 0,-0.1 -0.1,0 0,0 h 2.9 c 0.055,0 0.1,-0.045 0.1,-0.1 v -6 c 0,-0.055 -0.045,-0.1 -0.1,-0.1 h -2.9 c -0.1,0 0,0.1 0,0 v -5.8 c 0,-0.1 -0.1,0 0,0 h 2.9 c 0.055,0 0.1,-0.045 0.1,-0.1 v -6 c 0,-0.055 -0.045,-0.1 -0.1,-0.1 h -2.9 c -0.1,0 0,0.1 0,0 v -5.8 c 0,-0.1 -0.1,0 0,0 h 2.9 c 0.055,0 0.1,-0.045 0.1,-0.1 v -6 c 0,-0.055 -0.045,-0.1 -0.1,-0.1 h -2.9 c -0.1,0 0,0.1 0,0 v -5.8 c 0,-0.1 -0.1,0 0,0 h 2.9 c 0.055,0 0.1,-0.045 0.1,-0.1 v -6 c 0,-0.055 -0.045,-0.1 -0.1,-0.1 h -2.9 c -0.1,0 0,0.1 0,0 v -5.8 c 0,-0.1 -0.1,0 0,0 h 2.9 c 0.055,0 0.1,-0.045 0.1,-0.1 v -6 c 0,-0.055 -0.045,-0.1 -0.1,-0.1 h -2.9 c -0.1,0 0,0.1 0,0 v -5.8 c 0,-0.1 -0.1,0 0,0 h 2.9 c 0.055,0 0.1,-0.045 0.1,-0.1 v -8.5 c 0,-0.055 -0.045,-0.1 -0.1,-0.1 h -3 -594 -3 c -0.055,0 -0.1,0.045 -0.1,0.1 v 8.5 c 0,0.055 0.045,0.1 0.1,0.1 h 2.9 c 0.1,0 0,-0.1 0,0 v 5.8 c 0,0.1 0.1,0 0,0 h -2.9 c -0.055,0 -0.1,0.045 -0.1,0.1 v 6 c 0,0.055 0.045,0.1 0.1,0.1 h 2.9 c 0.1,0 0,-0.1 0,0 v 5.8 c 0,0.1 0.1,0 0,0 h -2.9 c -0.055,0 -0.1,0.045 -0.1,0.1 v 6 c 0,0.055 0.045,0.1 0.1,0.1 h 2.9 c 0.1,0 0,-0.1 0,0 v 5.8 c 0,0.1 0.1,0 0,0 h -2.9 c -0.055,0 -0.1,0.045 -0.1,0.1 v 6 c 0,0.055 0.045,0.1 0.1,0.1 h 2.9 c 0.1,0 0,-0.1 0,0 v 5.8 c 0,0.1 0.1,0 0,0 h -2.9 c -0.055,0 -0.1,0.045 -0.1,0.1 v 6 c 0,0.055 0.045,0.1 0.1,0.1 h 2.9 c 0.1,0 0,-0.1 0,0 v 5.8 c 0,0.1 0.1,0 0,0 h -2.9 c -0.055,0 -0.1,0.045 -0.1,0.1 v 6 c 0,0.055 0.045,0.1 0.1,0.1 h 2.9 c 0.1,0 0,-0.1 0,0 v 5.8 c 0,0.1 0.1,0 0,0 h -2.9 c -0.055,0 -0.1,0.045 -0.1,0.1 v 6 c 0,0.055 0.045,0.1 0.1,0.1 h 2.9 c 0.1,0 0,-0.1 0,0 v 5.8 c 0,0.1 0.1,0 0,0 h -2.9 c -0.055,0 -0.1,0.045 -0.1,0.1 v 6 c 0,0.055 0.045,0.1 0.1,0.1 h 2.9 c 0.1,0 0,-0.1 0,0 v 5.8 c 0,0.1 0.1,0 0,0 h -2.9 c -0.055,0 -0.1,0.045 -0.1,0.1 v 6 c 0,0.055 0.045,0.1 0.1,0.1 h 2.9 c 0.1,0 0,-0.1 0,0 v 5.8 c 0,0.1 0.1,0 0,0 h -2.9 c -0.055,0 -0.1,0.045 -0.1,0.1 v 6 c 0,0.055 0.045,0.1 0.1,0.1 h 2.9 c 0.1,0 0,-0.1 0,0 v 5.8 c 0,0.1 0.1,0 0,0 h -2.9 c -0.055,0 -0.1,0.045 -0.1,0.1 v 6 c 0,0.055 0.045,0.1 0.1,0.1 h 2.9 c 0.1,0 0,-0.1 0,0 v 5.8 c 0,0.1 0.1,0 0,0 h -2.9 c -0.055,0 -0.1,0.045 -0.1,0.1 v 6 c 0,0.055 0.045,0.1 0.1,0.1 h 2.9 c 0.1,0 0,-0.1 0,0 v 5.8 c 0,0.1 0.1,0 0,0 h -2.9 c -0.055,0 -0.1,0.045 -0.1,0.1 v 6 c 0,0.055 0.045,0.1 0.1,0.1 h 2.9 c 0.1,0 0,-0.1 0,0 v 5.8 c 0,0.1 0.1,0 0,0 h -2.9 c -0.055,0 -0.1,0.045 -0.1,0.1 v 6 c 0,0.055 0.045,0.1 0.1,0.1 h 2.9 c 0.1,0 0,-0.1 0,0 v 5.8 c 0,0.1 0.1,0 0,0 h -2.9 c -0.055,0 -0.1,0.045 -0.1,0.1 v 6 c 0,0.055 0.045,0.1 0.1,0.1 h 2.9 c 0.1,0 0,-0.1 0,0 v 5.8 c 0,0.1 0.1,0 0,0 h -2.9 c -0.055,0 -0.1,0.045 -0.1,0.1 v 8.5 c 0,0.055 0.045,0.1 0.1,0.1 h 3"
       stroke="#000000"
       stroke-width="0.2"
       id="path111"
       style="fill:none;stroke:#000000;stroke-width:0.014;stroke-linecap:round;stroke-linejoin:round;stroke-dasharray:none;stroke-opacity:1" />
  </g>
  <g
     id="g2365"
     style="stroke:#000000;stroke-width:0.014;stroke-dasharray:none;stroke-opacity:1"
     transform="translate(-18.693,-8.2468094)">
    <path
       d="m 30.8,439.29774 h -2.9 c -0.1,0 0,0.13156 0,0 v -3.68372 c 0,-0.13156 -0.1,0 0,0 h 5.8 c 0.1,0 0,-0.13156 0,0 v 3.68372 c 0,0.13156 0.1,0 0,0 z"
       stroke="#0000ff"
       stroke-width="0.2"
       id="path114"
       style="fill:none;stroke:#000000;stroke-width:0.014;stroke-linecap:round;stroke-linejoin:round;stroke-dasharray:none;stroke-opacity:1" />
    <path
       d="m 42.8,439.29774 h -2.9 c -0.1,0 0,0.13156 0,0 v -3.68372 c 0,-0.13156 -0.1,0 0,0 h 5.8 c 0.1,0 0,-0.13156 0,0 v 3.68372 c 0,0.13156 0.1,0 0,0 z"
       stroke="#0000ff"
       stroke-width="0.2"
       id="path116"
       style="fill:none;stroke:#000000;stroke-width:0.014;stroke-linecap:round;stroke-linejoin:round;stroke-dasharray:none;stroke-opacity:1" />
    <path
       d="m 54.8,439.29774 h -2.9 c -0.1,0 0,0.13156 0,0 v -3.68372 c 0,-0.13156 -0.1,0 0,0 h 5.8 c 0.1,0 0,-0.13156 0,0 v 3.68372 c 0,0.13156 0.1,0 0,0 z"
       stroke="#0000ff"
       stroke-width="0.2"
       id="path118"
       style="fill:none;stroke:#000000;stroke-width:0.014;stroke-linecap:round;stroke-linejoin:round;stroke-dasharray:none;stroke-opacity:1" />
    <path
       d="m 66.8,439.29774 h -2.9 c -0.1,0 0,0.13156 0,0 v -3.68372 c 0,-0.13156 -0.1,0 0,0 h 5.8 c 0.1,0 0,-0.13156 0,0 v 3.68372 c 0,0.13156 0.1,0 0,0 z"
       stroke="#0000ff"
       stroke-width="0.2"
       id="path120"
       style="fill:none;stroke:#000000;stroke-width:0.014;stroke-linecap:round;stroke-linejoin:round;stroke-dasharray:none;stroke-opacity:1" />
    <path
       d="m 78.8,439.29774 h -2.9 c -0.1,0 0,0.13156 0,0 v -3.68372 c 0,-0.13156 -0.1,0 0,0 h 5.8 c 0.1,0 0,-0.13156 0,0 v 3.68372 c 0,0.13156 0.1,0 0,0 z"
       stroke="#0000ff"
       stroke-width="0.2"
       id="path122"
       style="fill:none;stroke:#000000;stroke-width:0.014;stroke-linecap:round;stroke-linejoin:round;stroke-dasharray:none;stroke-opacity:1" />
    <path
       d="m 90.8,439.29774 h -2.9 c -0.1,0 0,0.13156 0,0 v -3.68372 c 0,-0.13156 -0.1,0 0,0 h 5.8 c 0.1,0 0,-0.13156 0,0 v 3.68372 c 0,0.13156 0.1,0 0,0 z"
       stroke="#0000ff"
       stroke-width="0.2"
       id="path124"
       style="fill:none;stroke:#000000;stroke-width:0.014;stroke-linecap:round;stroke-linejoin:round;stroke-dasharray:none;stroke-opacity:1" />
    <path
       d="m 102.8,439.29774 h -2.9 c -0.1,0 0,0.13156 0,0 v -3.68372 c 0,-0.13156 -0.1,0 0,0 h 5.8 c 0.1,0 0,-0.13156 0,0 v 3.68372 c 0,0.13156 0.1,0 0,0 z"
       stroke="#0000ff"
       stroke-width="0.2"
       id="path126"
       style="fill:none;stroke:#000000;stroke-width:0.014;stroke-linecap:round;stroke-linejoin:round;stroke-dasharray:none;stroke-opacity:1" />
    <path
       d="m 114.8,439.29774 h -2.9 c -0.1,0 0,0.13156 0,0 v -3.68372 c 0,-0.13156 -0.1,0 0,0 h 5.8 c 0.1,0 0,-0.13156 0,0 v 3.68372 c 0,0.13156 0.1,0 0,0 z"
       stroke="#0000ff"
       stroke-width="0.2"
       id="path128"
       style="fill:none;stroke:#000000;stroke-width:0.014;stroke-linecap:round;stroke-linejoin:round;stroke-dasharray:none;stroke-opacity:1" />
    <path
       d="m 126.8,439.29774 h -2.9 c -0.1,0 0,0.13156 0,0 v -3.68372 c 0,-0.13156 -0.1,0 0,0 h 5.8 c 0.1,0 0,-0.13156 0,0 v 3.68372 c 0,0.13156 0.1,0 0,0 z"
       stroke="#0000ff"
       stroke-width="0.2"
       id="path130"
       style="fill:none;stroke:#000000;stroke-width:0.014;stroke-linecap:round;stroke-linejoin:round;stroke-dasharray:none;stroke-opacity:1" />
    <path
       d="m 138.8,439.29774 h -2.9 c -0.1,0 0,0.13156 0,0 v -3.68372 c 0,-0.13156 -0.1,0 0,0 h 5.8 c 0.1,0 0,-0.13156 0,0 v 3.68372 c 0,0.13156 0.1,0 0,0 z"
       stroke="#0000ff"
       stroke-width="0.2"
       id="path132"
       style="fill:none;stroke:#000000;stroke-width:0.014;stroke-linecap:round;stroke-linejoin:round;stroke-dasharray:none;stroke-opacity:1" />
    <path
       d="m 150.8,439.29774 h -2.9 c -0.1,0 0,0.13156 0,0 v -3.68372 c 0,-0.13156 -0.1,0 0,0 h 5.8 c 0.1,0 0,-0.13156 0,0 v 3.68372 c 0,0.13156 0.1,0 0,0 z"
       stroke="#0000ff"
       stroke-width="0.2"
       id="path134"
       style="fill:none;stroke:#000000;stroke-width:0.014;stroke-linecap:round;stroke-linejoin:round;stroke-dasharray:none;stroke-opacity:1" />
    <path
       d="m 162.8,439.29774 h -2.9 c -0.1,0 0,0.13156 0,0 v -3.68372 c 0,-0.13156 -0.1,0 0,0 h 5.8 c 0.1,0 0,-0.13156 0,0 v 3.68372 c 0,0.13156 0.1,0 0,0 z"
       stroke="#0000ff"
       stroke-width="0.2"
       id="path136"
       style="fill:none;stroke:#000000;stroke-width:0.014;stroke-linecap:round;stroke-linejoin:round;stroke-dasharray:none;stroke-opacity:1" />
    <path
       d="m 174.8,439.29774 h -2.9 c -0.1,0 0,0.13156 0,0 v -3.68372 c 0,-0.13156 -0.1,0 0,0 h 5.8 c 0.1,0 0,-0.13156 0,0 v 3.68372 c 0,0.13156 0.1,0 0,0 z"
       stroke="#0000ff"
       stroke-width="0.2"
       id="path138"
       style="fill:none;stroke:#000000;stroke-width:0.014;stroke-linecap:round;stroke-linejoin:round;stroke-dasharray:none;stroke-opacity:1" />
    <path
       d="m 186.8,439.29774 h -2.9 c -0.1,0 0,0.13156 0,0 v -3.68372 c 0,-0.13156 -0.1,0 0,0 h 5.8 c 0.1,0 0,-0.13156 0,0 v 3.68372 c 0,0.13156 0.1,0 0,0 z"
       stroke="#0000ff"
       stroke-width="0.2"
       id="path140"
       style="fill:none;stroke:#000000;stroke-width:0.014;stroke-linecap:round;stroke-linejoin:round;stroke-dasharray:none;stroke-opacity:1" />
    <path
       d="m 198.8,439.29774 h -2.9 c -0.1,0 0,0.13156 0,0 v -3.68372 c 0,-0.13156 -0.1,0 0,0 h 5.8 c 0.1,0 0,-0.13156 0,0 v 3.68372 c 0,0.13156 0.1,0 0,0 z"
       stroke="#0000ff"
       stroke-width="0.2"
       id="path142"
       style="fill:none;stroke:#000000;stroke-width:0.014;stroke-linecap:round;stroke-linejoin:round;stroke-dasharray:none;stroke-opacity:1" />
    <path
       d="m 210.8,439.29774 h -2.9 c -0.1,0 0,0.13156 0,0 v -3.68372 c 0,-0.13156 -0.1,0 0,0 h 5.8 c 0.1,0 0,-0.13156 0,0 v 3.68372 c 0,0.13156 0.1,0 0,0 z"
       stroke="#0000ff"
       stroke-width="0.2"
       id="path144"
       style="fill:none;stroke:#000000;stroke-width:0.014;stroke-linecap:round;stroke-linejoin:round;stroke-dasharray:none;stroke-opacity:1" />
    <path
       d="m 222.8,439.29774 h -2.9 c -0.1,0 0,0.13156 0,0 v -3.68372 c 0,-0.13156 -0.1,0 0,0 h 5.8 c 0.1,0 0,-0.13156 0,0 v 3.68372 c 0,0.13156 0.1,0 0,0 z"
       stroke="#0000ff"
       stroke-width="0.2"
       id="path146"
       style="fill:none;stroke:#000000;stroke-width:0.014;stroke-linecap:round;stroke-linejoin:round;stroke-dasharray:none;stroke-opacity:1" />
    <path
       d="m 234.8,439.29774 h -2.9 c -0.1,0 0,0.13156 0,0 v -3.68372 c 0,-0.13156 -0.1,0 0,0 h 5.8 c 0.1,0 0,-0.13156 0,0 v 3.68372 c 0,0.13156 0.1,0 0,0 z"
       stroke="#0000ff"
       stroke-width="0.2"
       id="path148"
       style="fill:none;stroke:#000000;stroke-width:0.014;stroke-linecap:round;stroke-linejoin:round;stroke-dasharray:none;stroke-opacity:1" />
    <path
       d="m 246.8,439.29774 h -2.9 c -0.1,0 0,0.13156 0,0 v -3.68372 c 0,-0.13156 -0.1,0 0,0 h 5.8 c 0.1,0 0,-0.13156 0,0 v 3.68372 c 0,0.13156 0.1,0 0,0 z"
       stroke="#0000ff"
       stroke-width="0.2"
       id="path150"
       style="fill:none;stroke:#000000;stroke-width:0.014;stroke-linecap:round;stroke-linejoin:round;stroke-dasharray:none;stroke-opacity:1" />
    <path
       d="m 258.8,439.29774 h -2.9 c -0.1,0 0,0.13156 0,0 v -3.68372 c 0,-0.13156 -0.1,0 0,0 h 5.8 c 0.1,0 0,-0.13156 0,0 v 3.68372 c 0,0.13156 0.1,0 0,0 z"
       stroke="#0000ff"
       stroke-width="0.2"
       id="path152"
       style="fill:none;stroke:#000000;stroke-width:0.014;stroke-linecap:round;stroke-linejoin:round;stroke-dasharray:none;stroke-opacity:1" />
    <path
       d="m 270.8,439.29774 h -2.9 c -0.1,0 0,0.13156 0,0 v -3.68372 c 0,-0.13156 -0.1,0 0,0 h 5.8 c 0.1,0 0,-0.13156 0,0 v 3.68372 c 0,0.13156 0.1,0 0,0 z"
       stroke="#0000ff"
       stroke-width="0.2"
       id="path154"
       style="fill:none;stroke:#000000;stroke-width:0.014;stroke-linecap:round;stroke-linejoin:round;stroke-dasharray:none;stroke-opacity:1" />
    <path
       d="m 282.8,439.29774 h -2.9 c -0.1,0 0,0.13156 0,0 v -3.68372 c 0,-0.13156 -0.1,0 0,0 h 5.8 c 0.1,0 0,-0.13156 0,0 v 3.68372 c 0,0.13156 0.1,0 0,0 z"
       stroke="#0000ff"
       stroke-width="0.2"
       id="path156"
       style="fill:none;stroke:#000000;stroke-width:0.014;stroke-linecap:round;stroke-linejoin:round;stroke-dasharray:none;stroke-opacity:1" />
    <path
       d="m 294.8,439.29774 h -2.9 c -0.1,0 0,0.13156 0,0 v -3.68372 c 0,-0.13156 -0.1,0 0,0 h 5.8 c 0.1,0 0,-0.13156 0,0 v 3.68372 c 0,0.13156 0.1,0 0,0 z"
       stroke="#0000ff"
       stroke-width="0.2"
       id="path158"
       style="fill:none;stroke:#000000;stroke-width:0.014;stroke-linecap:round;stroke-linejoin:round;stroke-dasharray:none;stroke-opacity:1" />
    <path
       d="m 306.8,439.29774 h -2.9 c -0.1,0 0,0.13156 0,0 v -3.68372 c 0,-0.13156 -0.1,0 0,0 h 5.8 c 0.1,0 0,-0.13156 0,0 v 3.68372 c 0,0.13156 0.1,0 0,0 z"
       stroke="#0000ff"
       stroke-width="0.2"
       id="path160"
       style="fill:none;stroke:#000000;stroke-width:0.014;stroke-linecap:round;stroke-linejoin:round;stroke-dasharray:none;stroke-opacity:1" />
    <path
       d="m 318.8,439.29774 h -2.9 c -0.1,0 0,0.13156 0,0 v -3.68372 c 0,-0.13156 -0.1,0 0,0 h 5.8 c 0.1,0 0,-0.13156 0,0 v 3.68372 c 0,0.13156 0.1,0 0,0 z"
       stroke="#0000ff"
       stroke-width="0.2"
       id="path162"
       style="fill:none;stroke:#000000;stroke-width:0.014;stroke-linecap:round;stroke-linejoin:round;stroke-dasharray:none;stroke-opacity:1" />
    <path
       d="m 330.8,439.29774 h -2.9 c -0.1,0 0,0.13156 0,0 v -3.68372 c 0,-0.13156 -0.1,0 0,0 h 5.8 c 0.1,0 0,-0.13156 0,0 v 3.68372 c 0,0.13156 0.1,0 0,0 z"
       stroke="#0000ff"
       stroke-width="0.2"
       id="path164"
       style="fill:none;stroke:#000000;stroke-width:0.014;stroke-linecap:round;stroke-linejoin:round;stroke-dasharray:none;stroke-opacity:1" />
    <path
       d="m 342.8,439.29774 h -2.9 c -0.1,0 0,0.13156 0,0 v -3.68372 c 0,-0.13156 -0.1,0 0,0 h 5.8 c 0.1,0 0,-0.13156 0,0 v 3.68372 c 0,0.13156 0.1,0 0,0 z"
       stroke="#0000ff"
       stroke-width="0.2"
       id="path166"
       style="fill:none;stroke:#000000;stroke-width:0.014;stroke-linecap:round;stroke-linejoin:round;stroke-dasharray:none;stroke-opacity:1" />
    <path
       d="m 354.8,439.29774 h -2.9 c -0.1,0 0,0.13156 0,0 v -3.68372 c 0,-0.13156 -0.1,0 0,0 h 5.8 c 0.1,0 0,-0.13156 0,0 v 3.68372 c 0,0.13156 0.1,0 0,0 z"
       stroke="#0000ff"
       stroke-width="0.2"
       id="path168"
       style="fill:none;stroke:#000000;stroke-width:0.014;stroke-linecap:round;stroke-linejoin:round;stroke-dasharray:none;stroke-opacity:1" />
    <path
       d="m 366.8,439.29774 h -2.9 c -0.1,0 0,0.13156 0,0 v -3.68372 c 0,-0.13156 -0.1,0 0,0 h 5.8 c 0.1,0 0,-0.13156 0,0 v 3.68372 c 0,0.13156 0.1,0 0,0 z"
       stroke="#0000ff"
       stroke-width="0.2"
       id="path170"
       style="fill:none;stroke:#000000;stroke-width:0.014;stroke-linecap:round;stroke-linejoin:round;stroke-dasharray:none;stroke-opacity:1" />
    <path
       d="m 378.8,439.29774 h -2.9 c -0.1,0 0,0.13156 0,0 v -3.68372 c 0,-0.13156 -0.1,0 0,0 h 5.8 c 0.1,0 0,-0.13156 0,0 v 3.68372 c 0,0.13156 0.1,0 0,0 z"
       stroke="#0000ff"
       stroke-width="0.2"
       id="path172"
       style="fill:none;stroke:#000000;stroke-width:0.014;stroke-linecap:round;stroke-linejoin:round;stroke-dasharray:none;stroke-opacity:1" />
    <path
       d="m 390.8,439.29774 h -2.9 c -0.1,0 0,0.13156 0,0 v -3.68372 c 0,-0.13156 -0.1,0 0,0 h 5.8 c 0.1,0 0,-0.13156 0,0 v 3.68372 c 0,0.13156 0.1,0 0,0 z"
       stroke="#0000ff"
       stroke-width="0.2"
       id="path174"
       style="fill:none;stroke:#000000;stroke-width:0.014;stroke-linecap:round;stroke-linejoin:round;stroke-dasharray:none;stroke-opacity:1" />
    <path
       d="m 402.8,439.29774 h -2.9 c -0.1,0 0,0.13156 0,0 v -3.68372 c 0,-0.13156 -0.1,0 0,0 h 5.8 c 0.1,0 0,-0.13156 0,0 v 3.68372 c 0,0.13156 0.1,0 0,0 z"
       stroke="#0000ff"
       stroke-width="0.2"
       id="path176"
       style="fill:none;stroke:#000000;stroke-width:0.014;stroke-linecap:round;stroke-linejoin:round;stroke-dasharray:none;stroke-opacity:1" />
    <path
       d="m 414.8,439.29774 h -2.9 c -0.1,0 0,0.13156 0,0 v -3.68372 c 0,-0.13156 -0.1,0 0,0 h 5.8 c 0.1,0 0,-0.13156 0,0 v 3.68372 c 0,0.13156 0.1,0 0,0 z"
       stroke="#0000ff"
       stroke-width="0.2"
       id="path178"
       style="fill:none;stroke:#000000;stroke-width:0.014;stroke-linecap:round;stroke-linejoin:round;stroke-dasharray:none;stroke-opacity:1" />
    <path
       d="m 426.8,439.29774 h -2.9 c -0.1,0 0,0.13156 0,0 v -3.68372 c 0,-0.13156 -0.1,0 0,0 h 5.8 c 0.1,0 0,-0.13156 0,0 v 3.68372 c 0,0.13156 0.1,0 0,0 z"
       stroke="#0000ff"
       stroke-width="0.2"
       id="path180"
       style="fill:none;stroke:#000000;stroke-width:0.014;stroke-linecap:round;stroke-linejoin:round;stroke-dasharray:none;stroke-opacity:1" />
    <path
       d="m 438.8,439.29774 h -2.9 c -0.1,0 0,0.13156 0,0 v -3.68372 c 0,-0.13156 -0.1,0 0,0 h 5.8 c 0.1,0 0,-0.13156 0,0 v 3.68372 c 0,0.13156 0.1,0 0,0 z"
       stroke="#0000ff"
       stroke-width="0.2"
       id="path182"
       style="fill:none;stroke:#000000;stroke-width:0.014;stroke-linecap:round;stroke-linejoin:round;stroke-dasharray:none;stroke-opacity:1" />
    <path
       d="m 450.8,439.29774 h -2.9 c -0.1,0 0,0.13156 0,0 v -3.68372 c 0,-0.13156 -0.1,0 0,0 h 5.8 c 0.1,0 0,-0.13156 0,0 v 3.68372 c 0,0.13156 0.1,0 0,0 z"
       stroke="#0000ff"
       stroke-width="0.2"
       id="path184"
       style="fill:none;stroke:#000000;stroke-width:0.014;stroke-linecap:round;stroke-linejoin:round;stroke-dasharray:none;stroke-opacity:1" />
    <path
       d="m 462.8,439.29774 h -2.9 c -0.1,0 0,0.13156 0,0 v -3.68372 c 0,-0.13156 -0.1,0 0,0 h 5.8 c 0.1,0 0,-0.13156 0,0 v 3.68372 c 0,0.13156 0.1,0 0,0 z"
       stroke="#0000ff"
       stroke-width="0.2"
       id="path186"
       style="fill:none;stroke:#000000;stroke-width:0.014;stroke-linecap:round;stroke-linejoin:round;stroke-dasharray:none;stroke-opacity:1" />
    <path
       d="m 474.8,439.29774 h -2.9 c -0.1,0 0,0.13156 0,0 v -3.68372 c 0,-0.13156 -0.1,0 0,0 h 5.8 c 0.1,0 0,-0.13156 0,0 v 3.68372 c 0,0.13156 0.1,0 0,0 z"
       stroke="#0000ff"
       stroke-width="0.2"
       id="path188"
       style="fill:none;stroke:#000000;stroke-width:0.014;stroke-linecap:round;stroke-linejoin:round;stroke-dasharray:none;stroke-opacity:1" />
    <path
       d="m 486.8,439.29774 h -2.9 c -0.1,0 0,0.13156 0,0 v -3.68372 c 0,-0.13156 -0.1,0 0,0 h 5.8 c 0.1,0 0,-0.13156 0,0 v 3.68372 c 0,0.13156 0.1,0 0,0 z"
       stroke="#0000ff"
       stroke-width="0.2"
       id="path190"
       style="fill:none;stroke:#000000;stroke-width:0.014;stroke-linecap:round;stroke-linejoin:round;stroke-dasharray:none;stroke-opacity:1" />
    <path
       d="m 498.8,439.29774 h -2.9 c -0.1,0 0,0.13156 0,0 v -3.68372 c 0,-0.13156 -0.1,0 0,0 h 5.8 c 0.1,0 0,-0.13156 0,0 v 3.68372 c 0,0.13156 0.1,0 0,0 z"
       stroke="#0000ff"
       stroke-width="0.2"
       id="path192"
       style="fill:none;stroke:#000000;stroke-width:0.014;stroke-linecap:round;stroke-linejoin:round;stroke-dasharray:none;stroke-opacity:1" />
    <path
       d="m 510.8,439.29774 h -2.9 c -0.1,0 0,0.13156 0,0 v -3.68372 c 0,-0.13156 -0.1,0 0,0 h 5.8 c 0.1,0 0,-0.13156 0,0 v 3.68372 c 0,0.13156 0.1,0 0,0 z"
       stroke="#0000ff"
       stroke-width="0.2"
       id="path194"
       style="fill:none;stroke:#000000;stroke-width:0.014;stroke-linecap:round;stroke-linejoin:round;stroke-dasharray:none;stroke-opacity:1" />
    <path
       d="m 522.8,439.29774 h -2.9 c -0.1,0 0,0.13156 0,0 v -3.68372 c 0,-0.13156 -0.1,0 0,0 h 5.8 c 0.1,0 0,-0.13156 0,0 v 3.68372 c 0,0.13156 0.1,0 0,0 z"
       stroke="#0000ff"
       stroke-width="0.2"
       id="path196"
       style="fill:none;stroke:#000000;stroke-width:0.014;stroke-linecap:round;stroke-linejoin:round;stroke-dasharray:none;stroke-opacity:1" />
    <path
       d="m 534.8,439.29774 h -2.9 c -0.1,0 0,0.13156 0,0 v -3.68372 c 0,-0.13156 -0.1,0 0,0 h 5.8 c 0.1,0 0,-0.13156 0,0 v 3.68372 c 0,0.13156 0.1,0 0,0 z"
       stroke="#0000ff"
       stroke-width="0.2"
       id="path198"
       style="fill:none;stroke:#000000;stroke-width:0.014;stroke-linecap:round;stroke-linejoin:round;stroke-dasharray:none;stroke-opacity:1" />
    <path
       d="m 546.8,439.29774 h -2.9 c -0.1,0 0,0.13156 0,0 v -3.68372 c 0,-0.13156 -0.1,0 0,0 h 5.8 c 0.1,0 0,-0.13156 0,0 v 3.68372 c 0,0.13156 0.1,0 0,0 z"
       stroke="#0000ff"
       stroke-width="0.2"
       id="path200"
       style="fill:none;stroke:#000000;stroke-width:0.014;stroke-linecap:round;stroke-linejoin:round;stroke-dasharray:none;stroke-opacity:1" />
    <path
       d="m 558.8,439.29774 h -2.9 c -0.1,0 0,0.13156 0,0 v -3.68372 c 0,-0.13156 -0.1,0 0,0 h 5.8 c 0.1,0 0,-0.13156 0,0 v 3.68372 c 0,0.13156 0.1,0 0,0 z"
       stroke="#0000ff"
       stroke-width="0.2"
       id="path202"
       style="fill:none;stroke:#000000;stroke-width:0.014;stroke-linecap:round;stroke-linejoin:round;stroke-dasharray:none;stroke-opacity:1" />
    <path
       d="m 570.8,439.29774 h -2.9 c -0.1,0 0,0.13156 0,0 v -3.68372 c 0,-0.13156 -0.1,0 0,0 h 5.8 c 0.1,0 0,-0.13156 0,0 v 3.68372 c 0,0.13156 0.1,0 0,0 z"
       stroke="#0000ff"
       stroke-width="0.2"
       id="path204"
       style="fill:none;stroke:#000000;stroke-width:0.014;stroke-linecap:round;stroke-linejoin:round;stroke-dasharray:none;stroke-opacity:1" />
    <path
       d="m 582.8,439.29774 h -2.9 c -0.1,0 0,0.13156 0,0 v -3.68372 c 0,-0.13156 -0.1,0 0,0 h 5.8 c 0.1,0 0,-0.13156 0,0 v 3.68372 c 0,0.13156 0.1,0 0,0 z"
       stroke="#0000ff"
       stroke-width="0.2"
       id="path206"
       style="fill:none;stroke:#000000;stroke-width:0.014;stroke-linecap:round;stroke-linejoin:round;stroke-dasharray:none;stroke-opacity:1" />
    <path
       d="m 594.8,439.29774 h -2.9 c -0.1,0 0,0.13156 0,0 v -3.68372 c 0,-0.13156 -0.1,0 0,0 h 5.8 c 0.1,0 0,-0.13156 0,0 v 3.68372 c 0,0.13156 0.1,0 0,0 z"
       stroke="#0000ff"
       stroke-width="0.2"
       id="path208"
       style="fill:none;stroke:#000000;stroke-width:0.014;stroke-linecap:round;stroke-linejoin:round;stroke-dasharray:none;stroke-opacity:1" />
    <path
       d="m 606.8,439.29774 h -2.9 c -0.1,0 0,0.13156 0,0 v -3.68372 c 0,-0.13156 -0.1,0 0,0 h 5.8 c 0.1,0 0,-0.13156 0,0 v 3.68372 c 0,0.13156 0.1,0 0,0 z"
       stroke="#0000ff"
       stroke-width="0.2"
       id="path210"
       style="fill:none;stroke:#000000;stroke-width:0.014;stroke-linecap:round;stroke-linejoin:round;stroke-dasharray:none;stroke-opacity:1" />
    <path
       d="m 21.8,441.6 h 594 3 c 0.055,0 0.1,-0.045 0.1,-0.1 V 433 c 0,-0.055 -0.045,-0.1 -0.1,-0.1 h -2.9 c -0.1,0 0,0.1 0,0 v -5.8 c 0,-0.1 -0.1,0 0,0 h 2.9 c 0.055,0 0.1,-0.045 0.1,-0.1 v -6 c 0,-0.055 -0.045,-0.1 -0.1,-0.1 h -2.9 c -0.1,0 0,0.1 0,0 v -5.8 c 0,-0.1 -0.1,0 0,0 h 2.9 c 0.055,0 0.1,-0.045 0.1,-0.1 v -6 c 0,-0.055 -0.045,-0.1 -0.1,-0.1 h -2.9 c -0.1,0 0,0.1 0,0 v -5.8 c 0,-0.1 -0.1,0 0,0 h 2.9 c 0.055,0 0.1,-0.045 0.1,-0.1 v -6 c 0,-0.055 -0.045,-0.1 -0.1,-0.1 h -2.9 c -0.1,0 0,0.1 0,0 v -5.8 c 0,-0.1 -0.1,0 0,0 h 2.9 c 0.055,0 0.1,-0.045 0.1,-0.1 v -6 c 0,-0.055 -0.045,-0.1 -0.1,-0.1 h -2.9 c -0.1,0 0,0.1 0,0 v -5.8 c 0,-0.1 -0.1,0 0,0 h 2.9 c 0.055,0 0.1,-0.045 0.1,-0.1 v -6 c 0,-0.055 -0.045,-0.1 -0.1,-0.1 h -2.9 c -0.1,0 0,0.1 0,0 v -5.8 c 0,-0.1 -0.1,0 0,0 h 2.9 c 0.055,0 0.1,-0.045 0.1,-0.1 v -6 c 0,-0.055 -0.045,-0.1 -0.1,-0.1 h -2.9 c -0.1,0 0,0.1 0,0 v -5.8 c 0,-0.1 -0.1,0 0,0 h 2.9 c 0.055,0 0.1,-0.045 0.1,-0.1 v -6 c 0,-0.055 -0.045,-0.1 -0.1,-0.1 h -2.9 c -0.1,0 0,0.1 0,0 v -5.8 c 0,-0.1 -0.1,0 0,0 h 2.9 c 0.055,0 0.1,-0.045 0.1,-0.1 v -6 c 0,-0.055 -0.045,-0.1 -0.1,-0.1 h -2.9 c -0.1,0 0,0.1 0,0 v -5.8 c 0,-0.1 -0.1,0 0,0 h 2.9 c 0.055,0 0.1,-0.045 0.1,-0.1 v -6 c 0,-0.055 -0.045,-0.1 -0.1,-0.1 h -2.9 c -0.1,0 0,0.1 0,0 v -5.8 c 0,-0.1 -0.1,0 0,0 h 2.9 c 0.055,0 0.1,-0.045 0.1,-0.1 v -6 c 0,-0.055 -0.045,-0.1 -0.1,-0.1 h -2.9 c -0.1,0 0,0.1 0,0 v -5.8 c 0,-0.1 -0.1,0 0,0 h 2.9 c 0.055,0 0.1,-0.045 0.1,-0.1 v -6 c 0,-0.055 -0.045,-0.1 -0.1,-0.1 h -2.9 c -0.1,0 0,0.1 0,0 v -5.8 c 0,-0.1 -0.1,0 0,0 h 2.9 c 0.055,0 0.1,-0.045 0.1,-0.1 v -6 c 0,-0.055 -0.045,-0.1 -0.1,-0.1 h -2.9 c -0.1,0 0,0.1 0,0 v -5.8 c 0,-0.1 -0.1,0 0,0 h 2.9 c 0.055,0 0.1,-0.045 0.1,-0.1 v -6 c 0,-0.055 -0.045,-0.1 -0.1,-0.1 h -2.9 c -0.1,0 0,0.1 0,0 v -5.8 c 0,-0.1 -0.1,0 0,0 h 2.9 c 0.055,0 0.1,-0.045 0.1,-0.1 v -6 c 0,-0.055 -0.045,-0.1 -0.1,-0.1 h -2.9 c -0.1,0 0,0.1 0,0 v -5.8 c 0,-0.1 -0.1,0 0,0 h 2.9 c 0.055,0 0.1,-0.045 0.1,-0.1 v -8.5 c 0,-0.055 -0.045,-0.1 -0.1,-0.1 h -3 -594 -3 c -0.055,0 -0.1,0.045 -0.1,0.1 v 8.5 c 0,0.055 0.045,0.1 0.1,0.1 h 2.9 c 0.1,0 0,-0.1 0,0 v 5.8 c 0,0.1 0.1,0 0,0 h -2.9 c -0.055,0 -0.1,0.045 -0.1,0.1 v 6 c 0,0.055 0.045,0.1 0.1,0.1 h 2.9 c 0.1,0 0,-0.1 0,0 v 5.8 c 0,0.1 0.1,0 0,0 h -2.9 c -0.055,0 -0.1,0.045 -0.1,0.1 v 6 c 0,0.055 0.045,0.1 0.1,0.1 h 2.9 c 0.1,0 0,-0.1 0,0 v 5.8 c 0,0.1 0.1,0 0,0 h -2.9 c -0.055,0 -0.1,0.045 -0.1,0.1 v 6 c 0,0.055 0.045,0.1 0.1,0.1 h 2.9 c 0.1,0 0,-0.1 0,0 v 5.8 c 0,0.1 0.1,0 0,0 h -2.9 c -0.055,0 -0.1,0.045 -0.1,0.1 v 6 c 0,0.055 0.045,0.1 0.1,0.1 h 2.9 c 0.1,0 0,-0.1 0,0 v 5.8 c 0,0.1 0.1,0 0,0 h -2.9 c -0.055,0 -0.1,0.045 -0.1,0.1 v 6 c 0,0.055 0.045,0.1 0.1,0.1 h 2.9 c 0.1,0 0,-0.1 0,0 v 5.8 c 0,0.1 0.1,0 0,0 h -2.9 c -0.055,0 -0.1,0.045 -0.1,0.1 v 6 c 0,0.055 0.045,0.1 0.1,0.1 h 2.9 c 0.1,0 0,-0.1 0,0 v 5.8 c 0,0.1 0.1,0 0,0 h -2.9 c -0.055,0 -0.1,0.045 -0.1,0.1 v 6 c 0,0.055 0.045,0.1 0.1,0.1 h 2.9 c 0.1,0 0,-0.1 0,0 v 5.8 c 0,0.1 0.1,0 0,0 h -2.9 c -0.055,0 -0.1,0.045 -0.1,0.1 v 6 c 0,0.055 0.045,0.1 0.1,0.1 h 2.9 c 0.1,0 0,-0.1 0,0 v 5.8 c 0,0.1 0.1,0 0,0 h -2.9 c -0.055,0 -0.1,0.045 -0.1,0.1 v 6 c 0,0.055 0.045,0.1 0.1,0.1 h 2.9 c 0.1,0 0,-0.1 0,0 v 5.8 c 0,0.1 0.1,0 0,0 h -2.9 c -0.055,0 -0.1,0.045 -0.1,0.1 v 6 c 0,0.055 0.045,0.1 0.1,0.1 h 2.9 c 0.1,0 0,-0.1 0,0 v 5.8 c 0,0.1 0.1,0 0,0 h -2.9 c -0.055,0 -0.1,0.045 -0.1,0.1 v 6 c 0,0.055 0.045,0.1 0.1,0.1 h 2.9 c 0.1,0 0,-0.1 0,0 v 5.8 c 0,0.1 0.1,0 0,0 h -2.9 c -0.055,0 -0.1,0.045 -0.1,0.1 v 6 c 0,0.055 0.045,0.1 0.1,0.1 h 2.9 c 0.1,0 0,-0.1 0,0 v 5.8 c 0,0.1 0.1,0 0,0 h -2.9 c -0.055,0 -0.1,0.045 -0.1,0.1 v 6 c 0,0.055 0.045,0.1 0.1,0.1 h 2.9 c 0.1,0 0,-0.1 0,0 v 5.8 c 0,0.1 0.1,0 0,0 h -2.9 c -0.055,0 -0.1,0.045 -0.1,0.1 v 6 c 0,0.055 0.045,0.1 0.1,0.1 h 2.9 c 0.1,0 0,-0.1 0,0 v 5.8 c 0,0.1 0.1,0 0,0 h -2.9 c -0.055,0 -0.1,0.045 -0.1,0.1 v 8.5 c 0,0.055 0.045,0.1 0.1,0.1 h 3"
       stroke="#000000"
       stroke-width="0.2"
       id="path214"
       style="fill:none;stroke:#000000;stroke-width:0.014;stroke-linecap:round;stroke-linejoin:round;stroke-dasharray:none;stroke-opacity:1" />
  </g>
  <g
     id="p-3"
     style="fill:none;stroke:#000000;stroke-width:0.014;stroke-linecap:round;stroke-linejoin:round;stroke-dasharray:none;stroke-opacity:1"
     transform="translate(-18.693,-8.2468094)">
    <path
       d="m 21.8,245.9 h 5.9 c 0.1,0 0,-0.1 0,0 v 2.9 c 0,0.055 0.045,0.1 0.1,0.1 h 6 c 0.055,0 0.1,-0.045 0.1,-0.1 v -2.9 c 0,-0.1 -0.1,0 0,0 h 5.8 c 0.1,0 0,-0.1 0,0 v 2.9 c 0,0.055 0.045,0.1 0.1,0.1 h 6 c 0.055,0 0.1,-0.045 0.1,-0.1 v -2.9 c 0,-0.1 -0.1,0 0,0 h 5.8 c 0.1,0 0,-0.1 0,0 v 2.9 c 0,0.055 0.045,0.1 0.1,0.1 h 6 c 0.055,0 0.1,-0.045 0.1,-0.1 v -2.9 c 0,-0.1 -0.1,0 0,0 h 5.8 c 0.1,0 0,-0.1 0,0 v 2.9 c 0,0.055 0.045,0.1 0.1,0.1 h 6 c 0.055,0 0.1,-0.045 0.1,-0.1 v -2.9 c 0,-0.1 -0.1,0 0,0 h 5.8 c 0.1,0 0,-0.1 0,0 v 2.9 c 0,0.055 0.045,0.1 0.1,0.1 h 6 c 0.055,0 0.1,-0.045 0.1,-0.1 v -2.9 c 0,-0.1 -0.1,0 0,0 h 5.8 c 0.1,0 0,-0.1 0,0 v 2.9 c 0,0.055 0.045,0.1 0.1,0.1 h 6 c 0.055,0 0.1,-0.045 0.1,-0.1 v -2.9 c 0,-0.1 -0.1,0 0,0 h 5.8 c 0.1,0 0,-0.1 0,0 v 2.9 c 0,0.055 0.045,0.1 0.1,0.1 h 6 c 0.055,0 0.1,-0.045 0.1,-0.1 v -2.9 c 0,-0.1 -0.1,0 0,0 h 5.8 c 0.1,0 0,-0.1 0,0 v 2.9 c 0,0.055 0.045,0.1 0.1,0.1 h 6 c 0.055,0 0.1,-0.045 0.1,-0.1 v -2.9 c 0,-0.1 -0.1,0 0,0 h 5.8 c 0.1,0 0,-0.1 0,0 v 2.9 c 0,0.055 0.045,0.1 0.1,0.1 h 6 c 0.055,0 0.1,-0.045 0.1,-0.1 v -2.9 c 0,-0.1 -0.1,0 0,0 h 5.8 c 0.1,0 0,-0.1 0,0 v 2.9 c 0,0.055 0.045,0.1 0.1,0.1 h 6 c 0.055,0 0.1,-0.045 0.1,-0.1 v -2.9 c 0,-0.1 -0.1,0 0,0 h 5.8 c 0.1,0 0,-0.1 0,0 v 2.9 c 0,0.055 0.045,0.1 0.1,0.1 h 6 c 0.055,0 0.1,-0.045 0.1,-0.1 v -2.9 c 0,-0.1 -0.1,0 0,0 h 5.8 c 0.1,0 0,-0.1 0,0 v 2.9 c 0,0.055 0.045,0.1 0.1,0.1 h 6 c 0.055,0 0.1,-0.045 0.1,-0.1 v -2.9 c 0,-0.1 -0.1,0 0,0 h 5.8 c 0.1,0 0,-0.1 0,0 v 2.9 c 0,0.055 0.045,0.1 0.1,0.1 h 6 c 0.055,0 0.1,-0.045 0.1,-0.1 v -2.9 c 0,-0.1 -0.1,0 0,0 h 5.8 c 0.1,0 0,-0.1 0,0 v 2.9 c 0,0.055 0.045,0.1 0.1,0.1 h 6 c 0.055,0 0.1,-0.045 0.1,-0.1 v -2.9 c 0,-0.1 -0.1,0 0,0 h 5.8 c 0.1,0 0,-0.1 0,0 v 2.9 c 0,0.055 0.045,0.1 0.1,0.1 h 6 c 0.055,0 0.1,-0.045 0.1,-0.1 v -2.9 c 0,-0.1 -0.1,0 0,0 h 5.8 c 0.1,0 0,-0.1 0,0 v 2.9 c 0,0.055 0.045,0.1 0.1,0.1 h 6 c 0.055,0 0.1,-0.045 0.1,-0.1 v -2.9 c 0,-0.1 -0.1,0 0,0 h 5.8 c 0.1,0 0,-0.1 0,0 v 2.9 c 0,0.055 0.045,0.1 0.1,0.1 h 6 c 0.055,0 0.1,-0.045 0.1,-0.1 v -2.9 c 0,-0.1 -0.1,0 0,0 h 5.8 c 0.1,0 0,-0.1 0,0 v 2.9 c 0,0.055 0.045,0.1 0.1,0.1 h 6 c 0.055,0 0.1,-0.045 0.1,-0.1 v -2.9 c 0,-0.1 -0.1,0 0,0 h 5.8 c 0.1,0 0,-0.1 0,0 v 2.9 c 0,0.055 0.045,0.1 0.1,0.1 h 6 c 0.055,0 0.1,-0.045 0.1,-0.1 v -2.9 c 0,-0.1 -0.1,0 0,0 h 5.8 c 0.1,0 0,-0.1 0,0 v 2.9 c 0,0.055 0.045,0.1 0.1,0.1 h 6 c 0.055,0 0.1,-0.045 0.1,-0.1 v -2.9 c 0,-0.1 -0.1,0 0,0 h 5.8 c 0.1,0 0,-0.1 0,0 v 2.9 c 0,0.055 0.045,0.1 0.1,0.1 h 6 c 0.055,0 0.1,-0.045 0.1,-0.1 v -2.9 c 0,-0.1 -0.1,0 0,0 h 5.8 c 0.1,0 0,-0.1 0,0 v 2.9 c 0,0.055 0.045,0.1 0.1,0.1 h 6 c 0.055,0 0.1,-0.045 0.1,-0.1 v -2.9 c 0,-0.1 -0.1,0 0,0 h 5.8 c 0.1,0 0,-0.1 0,0 v 2.9 c 0,0.055 0.045,0.1 0.1,0.1 h 6 c 0.055,0 0.1,-0.045 0.1,-0.1 v -2.9 c 0,-0.1 -0.1,0 0,0 h 5.8 c 0.1,0 0,-0.1 0,0 v 2.9 c 0,0.055 0.045,0.1 0.1,0.1 h 6 c 0.055,0 0.1,-0.045 0.1,-0.1 v -2.9 c 0,-0.1 -0.1,0 0,0 h 5.8 c 0.1,0 0,-0.1 0,0 v 2.9 c 0,0.055 0.045,0.1 0.1,0.1 h 6 c 0.055,0 0.1,-0.045 0.1,-0.1 v -2.9 c 0,-0.1 -0.1,0 0,0 h 5.8 c 0.1,0 0,-0.1 0,0 v 2.9 c 0,0.055 0.045,0.1 0.1,0.1 h 6 c 0.055,0 0.1,-0.045 0.1,-0.1 v -2.9 c 0,-0.1 -0.1,0 0,0 h 5.8 c 0.1,0 0,-0.1 0,0 v 2.9 c 0,0.055 0.045,0.1 0.1,0.1 h 6 c 0.055,0 0.1,-0.045 0.1,-0.1 v -2.9 c 0,-0.1 -0.1,0 0,0 h 5.8 c 0.1,0 0,-0.1 0,0 v 2.9 c 0,0.055 0.045,0.1 0.1,0.1 h 6 c 0.055,0 0.1,-0.045 0.1,-0.1 v -2.9 c 0,-0.1 -0.1,0 0,0 h 5.8 c 0.1,0 0,-0.1 0,0 v 2.9 c 0,0.055 0.045,0.1 0.1,0.1 h 6 c 0.055,0 0.1,-0.045 0.1,-0.1 v -2.9 c 0,-0.1 -0.1,0 0,0 h 5.8 c 0.1,0 0,-0.1 0,0 v 2.9 c 0,0.055 0.045,0.1 0.1,0.1 h 6 c 0.055,0 0.1,-0.045 0.1,-0.1 v -2.9 c 0,-0.1 -0.1,0 0,0 h 5.8 c 0.1,0 0,-0.1 0,0 v 2.9 c 0,0.055 0.045,0.1 0.1,0.1 h 6 c 0.055,0 0.1,-0.045 0.1,-0.1 v -2.9 c 0,-0.1 -0.1,0 0,0 h 5.8 c 0.1,0 0,-0.1 0,0 v 2.9 c 0,0.055 0.045,0.1 0.1,0.1 h 6 c 0.055,0 0.1,-0.045 0.1,-0.1 v -2.9 c 0,-0.1 -0.1,0 0,0 h 5.8 c 0.1,0 0,-0.1 0,0 v 2.9 c 0,0.055 0.045,0.1 0.1,0.1 h 6 c 0.055,0 0.1,-0.045 0.1,-0.1 v -2.9 c 0,-0.1 -0.1,0 0,0 h 5.8 c 0.1,0 0,-0.1 0,0 v 2.9 c 0,0.055 0.045,0.1 0.1,0.1 h 6 c 0.055,0 0.1,-0.045 0.1,-0.1 v -2.9 c 0,-0.1 -0.1,0 0,0 h 5.8 c 0.1,0 0,-0.1 0,0 v 2.9 c 0,0.055 0.045,0.1 0.1,0.1 h 6 c 0.055,0 0.1,-0.045 0.1,-0.1 v -2.9 c 0,-0.1 -0.1,0 0,0 h 5.8 c 0.1,0 0,-0.1 0,0 v 2.9 c 0,0.055 0.045,0.1 0.1,0.1 h 6 c 0.055,0 0.1,-0.045 0.1,-0.1 v -2.9 c 0,-0.1 -0.1,0 0,0 h 5.8 c 0.1,0 0,-0.1 0,0 v 2.9 c 0,0.055 0.045,0.1 0.1,0.1 h 6 c 0.055,0 0.1,-0.045 0.1,-0.1 v -2.9 c 0,-0.1 -0.1,0 0,0 h 5.8 c 0.1,0 0,-0.1 0,0 v 2.9 c 0,0.055 0.045,0.1 0.1,0.1 h 6 c 0.055,0 0.1,-0.045 0.1,-0.1 v -2.9 c 0,-0.1 -0.1,0 0,0 h 5.8 c 0.1,0 0,-0.1 0,0 v 2.9 c 0,0.055 0.045,0.1 0.1,0.1 h 6 c 0.055,0 0.1,-0.045 0.1,-0.1 v -2.9 c 0,-0.1 -0.1,0 0,0 h 5.8 c 0.1,0 0,-0.1 0,0 v 2.9 c 0,0.055 0.045,0.1 0.1,0.1 h 6 c 0.055,0 0.1,-0.045 0.1,-0.1 v -2.9 c 0,-0.1 -0.1,0 0,0 h 5.8 c 0.1,0 0,-0.1 0,0 v 2.9 c 0,0.055 0.045,0.1 0.1,0.1 h 6 c 0.055,0 0.1,-0.045 0.1,-0.1 v -2.9 c 0,-0.1 -0.1,0 0,0 h 5.8 c 0.1,0 0,-0.1 0,0 v 2.9 c 0,0.055 0.045,0.1 0.1,0.1 h 6 c 0.055,0 0.1,-0.045 0.1,-0.1 v -2.9 c 0,-0.1 -0.1,0 0,0 h 5.8 c 0.1,0 0,-0.1 0,0 v 2.9 c 0,0.055 0.045,0.1 0.1,0.1 h 6 c 0.055,0 0.1,-0.045 0.1,-0.1 v -2.9 c 0,-0.1 -0.1,0 0,0 h 5.8 c 0.1,0 0,-0.1 0,0 v 2.9 c 0,0.055 0.045,0.1 0.1,0.1 h 6 c 0.055,0 0.1,-0.045 0.1,-0.1 v -2.9 c 0,-0.1 -0.1,0 0,0 h 5.8 c 0.1,0 0,-0.1 0,0 v 2.9 c 0,0.055 0.045,0.1 0.1,0.1 h 6 c 0.055,0 0.1,-0.045 0.1,-0.1 v -2.9 c 0,-0.1 -0.1,0 0,0 h 5.8 c 0.1,0 0,-0.1 0,0 v 2.9 c 0,0.055 0.045,0.1 0.1,0.1 h 6 c 0.055,0 0.1,-0.045 0.1,-0.1 v -2.9 c 0,-0.1 -0.1,0 0,0 h 5.8 c 0.1,0 0,-0.1 0,0 v 2.9 c 0,0.055 0.045,0.1 0.1,0.1 h 6 c 0.055,0 0.1,-0.045 0.1,-0.1 v -2.9 c 0,-0.1 -0.1,0 0,0 h 5.8 c 0.1,0 0,-0.1 0,0 v 2.9 c 0,0.055 0.045,0.1 0.1,0.1 h 6 c 0.055,0 0.1,-0.045 0.1,-0.1 v -2.9 c 0,-0.1 -0.1,0 0,0 h 5.8 c 0.1,0 0,-0.1 0,0 v 2.9 c 0,0.055 0.045,0.1 0.1,0.1 h 6 c 0.055,0 0.1,-0.045 0.1,-0.1 v -2.9 c 0,-0.1 -0.1,0 0,0 h 5.9 c 0.055,0 0.1,-0.045 0.1,-0.1 v -5.9 c 0,-0.1 -0.1,0 0,0 h 2.9 c 0.055,0 0.1,-0.045 0.1,-0.1 v -6 c 0,-0.055 -0.045,-0.1 -0.1,-0.1 h -2.9 c -0.1,0 0,0.1 0,0 v -5.8 c 0,-0.1 -0.1,0 0,0 h 2.9 c 0.055,0 0.1,-0.045 0.1,-0.1 v -6 c 0,-0.055 -0.045,-0.1 -0.1,-0.1 h -2.9 c -0.1,0 0,0.1 0,0 v -5.8 c 0,-0.1 -0.1,0 0,0 h 2.9 c 0.055,0 0.1,-0.045 0.1,-0.1 v -6 c 0,-0.055 -0.045,-0.1 -0.1,-0.1 h -2.9 c -0.1,0 0,0.1 0,0 v -5.8 c 0,-0.1 -0.1,0 0,0 h 2.9 c 0.055,0 0.1,-0.045 0.1,-0.1 v -6 c 0,-0.055 -0.045,-0.1 -0.1,-0.1 h -2.9 c -0.1,0 0,0.1 0,0 v -5.8 c 0,-0.1 -0.1,0 0,0 h 2.9 c 0.055,0 0.1,-0.045 0.1,-0.1 v -6 c 0,-0.055 -0.045,-0.1 -0.1,-0.1 h -2.9 c -0.1,0 0,0.1 0,0 v -5.8 c 0,-0.1 -0.1,0 0,0 h 2.9 c 0.055,0 0.1,-0.045 0.1,-0.1 v -6 c 0,-0.055 -0.045,-0.1 -0.1,-0.1 h -2.9 c -0.1,0 0,0.1 0,0 v -5.8 c 0,-0.1 -0.1,0 0,0 h 2.9 c 0.055,0 0.1,-0.045 0.1,-0.1 v -6 c 0,-0.055 -0.045,-0.1 -0.1,-0.1 h -2.9 c -0.1,0 0,0.1 0,0 v -5.8 c 0,-0.1 -0.1,0 0,0 h 2.9 c 0.055,0 0.1,-0.045 0.1,-0.1 v -6 c 0,-0.055 -0.045,-0.1 -0.1,-0.1 h -2.9 c -0.1,0 0,0.1 0,0 v -5.8 c 0,-0.1 -0.1,0 0,0 h 2.9 c 0.055,0 0.1,-0.045 0.1,-0.1 v -6 c 0,-0.055 -0.045,-0.1 -0.1,-0.1 h -2.9 c -0.1,0 0,0.1 0,0 v -5.9 c 0,-0.055 -0.045,-0.1 -0.1,-0.1 h -5.9 c -0.1,0 0,0.1 0,0 v -2.9 c 0,-0.055 -0.045,-0.1 -0.1,-0.1 h -6 c -0.055,0 -0.1,0.045 -0.1,0.1 v 2.9 c 0,0.1 0.1,0 0,0 h -5.8 c -0.1,0 0,0.1 0,0 v -2.9 c 0,-0.055 -0.045,-0.1 -0.1,-0.1 h -6 c -0.055,0 -0.1,0.045 -0.1,0.1 v 2.9 c 0,0.1 0.1,0 0,0 h -5.8 c -0.1,0 0,0.1 0,0 v -2.9 c 0,-0.055 -0.045,-0.1 -0.1,-0.1 h -6 c -0.055,0 -0.1,0.045 -0.1,0.1 v 2.9 c 0,0.1 0.1,0 0,0 h -5.8 c -0.1,0 0,0.1 0,0 v -2.9 c 0,-0.055 -0.045,-0.1 -0.1,-0.1 h -6 c -0.055,0 -0.1,0.045 -0.1,0.1 v 2.9 c 0,0.1 0.1,0 0,0 h -5.8 c -0.1,0 0,0.1 0,0 v -2.9 c 0,-0.055 -0.045,-0.1 -0.1,-0.1 h -6 c -0.055,0 -0.1,0.045 -0.1,0.1 v 2.9 c 0,0.1 0.1,0 0,0 h -5.8 c -0.1,0 0,0.1 0,0 v -2.9 c 0,-0.055 -0.045,-0.1 -0.1,-0.1 h -6 c -0.055,0 -0.1,0.045 -0.1,0.1 v 2.9 c 0,0.1 0.1,0 0,0 h -5.8 c -0.1,0 0,0.1 0,0 v -2.9 c 0,-0.055 -0.045,-0.1 -0.1,-0.1 h -6 c -0.055,0 -0.1,0.045 -0.1,0.1 v 2.9 c 0,0.1 0.1,0 0,0 h -5.8 c -0.1,0 0,0.1 0,0 v -2.9 c 0,-0.055 -0.045,-0.1 -0.1,-0.1 h -6 c -0.055,0 -0.1,0.045 -0.1,0.1 v 2.9 c 0,0.1 0.1,0 0,0 h -5.8 c -0.1,0 0,0.1 0,0 v -2.9 c 0,-0.055 -0.045,-0.1 -0.1,-0.1 h -6 c -0.055,0 -0.1,0.045 -0.1,0.1 v 2.9 c 0,0.1 0.1,0 0,0 h -5.8 c -0.1,0 0,0.1 0,0 v -2.9 c 0,-0.055 -0.045,-0.1 -0.1,-0.1 h -6 c -0.055,0 -0.1,0.045 -0.1,0.1 v 2.9 c 0,0.1 0.1,0 0,0 h -5.8 c -0.1,0 0,0.1 0,0 v -2.9 c 0,-0.055 -0.045,-0.1 -0.1,-0.1 h -6 c -0.055,0 -0.1,0.045 -0.1,0.1 v 2.9 c 0,0.1 0.1,0 0,0 h -5.8 c -0.1,0 0,0.1 0,0 v -2.9 c 0,-0.055 -0.045,-0.1 -0.1,-0.1 h -6 c -0.055,0 -0.1,0.045 -0.1,0.1 v 2.9 c 0,0.1 0.1,0 0,0 h -5.8 c -0.1,0 0,0.1 0,0 v -2.9 c 0,-0.055 -0.045,-0.1 -0.1,-0.1 h -6 c -0.055,0 -0.1,0.045 -0.1,0.1 v 2.9 c 0,0.1 0.1,0 0,0 h -5.8 c -0.1,0 0,0.1 0,0 v -2.9 c 0,-0.055 -0.045,-0.1 -0.1,-0.1 h -6 c -0.055,0 -0.1,0.045 -0.1,0.1 v 2.9 c 0,0.1 0.1,0 0,0 h -5.8 c -0.1,0 0,0.1 0,0 v -2.9 c 0,-0.055 -0.045,-0.1 -0.1,-0.1 h -6 c -0.055,0 -0.1,0.045 -0.1,0.1 v 2.9 c 0,0.1 0.1,0 0,0 h -5.8 c -0.1,0 0,0.1 0,0 v -2.9 c 0,-0.055 -0.045,-0.1 -0.1,-0.1 h -6 c -0.055,0 -0.1,0.045 -0.1,0.1 v 2.9 c 0,0.1 0.1,0 0,0 h -5.8 c -0.1,0 0,0.1 0,0 v -2.9 c 0,-0.055 -0.045,-0.1 -0.1,-0.1 h -6 c -0.055,0 -0.1,0.045 -0.1,0.1 v 2.9 c 0,0.1 0.1,0 0,0 h -5.8 c -0.1,0 0,0.1 0,0 v -2.9 c 0,-0.055 -0.045,-0.1 -0.1,-0.1 h -6 c -0.055,0 -0.1,0.045 -0.1,0.1 v 2.9 c 0,0.1 0.1,0 0,0 h -5.8 c -0.1,0 0,0.1 0,0 v -2.9 c 0,-0.055 -0.045,-0.1 -0.1,-0.1 h -6 c -0.055,0 -0.1,0.045 -0.1,0.1 v 2.9 c 0,0.1 0.1,0 0,0 h -5.8 c -0.1,0 0,0.1 0,0 v -2.9 c 0,-0.055 -0.045,-0.1 -0.1,-0.1 h -6 c -0.055,0 -0.1,0.045 -0.1,0.1 v 2.9 c 0,0.1 0.1,0 0,0 h -5.8 c -0.1,0 0,0.1 0,0 v -2.9 c 0,-0.055 -0.045,-0.1 -0.1,-0.1 h -6 c -0.055,0 -0.1,0.045 -0.1,0.1 v 2.9 c 0,0.1 0.1,0 0,0 h -5.8 c -0.1,0 0,0.1 0,0 v -2.9 c 0,-0.055 -0.045,-0.1 -0.1,-0.1 h -6 c -0.055,0 -0.1,0.045 -0.1,0.1 v 2.9 c 0,0.1 0.1,0 0,0 h -5.8 c -0.1,0 0,0.1 0,0 v -2.9 c 0,-0.055 -0.045,-0.1 -0.1,-0.1 h -6 c -0.055,0 -0.1,0.045 -0.1,0.1 v 2.9 c 0,0.1 0.1,0 0,0 h -5.8 c -0.1,0 0,0.1 0,0 v -2.9 c 0,-0.055 -0.045,-0.1 -0.1,-0.1 h -6 c -0.055,0 -0.1,0.045 -0.1,0.1 v 2.9 c 0,0.1 0.1,0 0,0 h -5.8 c -0.1,0 0,0.1 0,0 v -2.9 c 0,-0.055 -0.045,-0.1 -0.1,-0.1 h -6 c -0.055,0 -0.1,0.045 -0.1,0.1 v 2.9 c 0,0.1 0.1,0 0,0 h -5.8 c -0.1,0 0,0.1 0,0 v -2.9 c 0,-0.055 -0.045,-0.1 -0.1,-0.1 h -6 c -0.055,0 -0.1,0.045 -0.1,0.1 v 2.9 c 0,0.1 0.1,0 0,0 h -5.8 c -0.1,0 0,0.1 0,0 v -2.9 c 0,-0.055 -0.045,-0.1 -0.1,-0.1 h -6 c -0.055,0 -0.1,0.045 -0.1,0.1 v 2.9 c 0,0.1 0.1,0 0,0 h -5.8 c -0.1,0 0,0.1 0,0 v -2.9 c 0,-0.055 -0.045,-0.1 -0.1,-0.1 h -6 c -0.055,0 -0.1,0.045 -0.1,0.1 v 2.9 c 0,0.1 0.1,0 0,0 h -5.8 c -0.1,0 0,0.1 0,0 v -2.9 c 0,-0.055 -0.045,-0.1 -0.1,-0.1 h -6 c -0.055,0 -0.1,0.045 -0.1,0.1 v 2.9 c 0,0.1 0.1,0 0,0 h -5.8 c -0.1,0 0,0.1 0,0 v -2.9 c 0,-0.055 -0.045,-0.1 -0.1,-0.1 h -6 c -0.055,0 -0.1,0.045 -0.1,0.1 v 2.9 c 0,0.1 0.1,0 0,0 h -5.8 c -0.1,0 0,0.1 0,0 v -2.9 c 0,-0.055 -0.045,-0.1 -0.1,-0.1 h -6 c -0.055,0 -0.1,0.045 -0.1,0.1 v 2.9 c 0,0.1 0.1,0 0,0 h -5.8 c -0.1,0 0,0.1 0,0 v -2.9 c 0,-0.055 -0.045,-0.1 -0.1,-0.1 h -6 c -0.055,0 -0.1,0.045 -0.1,0.1 v 2.9 c 0,0.1 0.1,0 0,0 h -5.8 c -0.1,0 0,0.1 0,0 v -2.9 c 0,-0.055 -0.045,-0.1 -0.1,-0.1 h -6 c -0.055,0 -0.1,0.045 -0.1,0.1 v 2.9 c 0,0.1 0.1,0 0,0 h -5.8 c -0.1,0 0,0.1 0,0 v -2.9 c 0,-0.055 -0.045,-0.1 -0.1,-0.1 h -6 c -0.055,0 -0.1,0.045 -0.1,0.1 v 2.9 c 0,0.1 0.1,0 0,0 h -5.8 c -0.1,0 0,0.1 0,0 v -2.9 c 0,-0.055 -0.045,-0.1 -0.1,-0.1 h -6 c -0.055,0 -0.1,0.045 -0.1,0.1 v 2.9 c 0,0.1 0.1,0 0,0 h -5.8 c -0.1,0 0,0.1 0,0 v -2.9 c 0,-0.055 -0.045,-0.1 -0.1,-0.1 h -6 c -0.055,0 -0.1,0.045 -0.1,0.1 v 2.9 c 0,0.1 0.1,0 0,0 h -5.8 c -0.1,0 0,0.1 0,0 v -2.9 c 0,-0.055 -0.045,-0.1 -0.1,-0.1 h -6 c -0.055,0 -0.1,0.045 -0.1,0.1 v 2.9 c 0,0.1 0.1,0 0,0 h -5.8 c -0.1,0 0,0.1 0,0 v -2.9 c 0,-0.055 -0.045,-0.1 -0.1,-0.1 h -6 c -0.055,0 -0.1,0.045 -0.1,0.1 v 2.9 c 0,0.1 0.1,0 0,0 h -5.8 c -0.1,0 0,0.1 0,0 v -2.9 c 0,-0.055 -0.045,-0.1 -0.1,-0.1 h -6 c -0.055,0 -0.1,0.045 -0.1,0.1 v 2.9 c 0,0.1 0.1,0 0,0 h -5.8 c -0.1,0 0,0.1 0,0 v -2.9 c 0,-0.055 -0.045,-0.1 -0.1,-0.1 h -6 c -0.055,0 -0.1,0.045 -0.1,0.1 v 2.9 c 0,0.1 0.1,0 0,0 h -5.8 c -0.1,0 0,0.1 0,0 v -2.9 c 0,-0.055 -0.045,-0.1 -0.1,-0.1 h -6 c -0.055,0 -0.1,0.045 -0.1,0.1 v 2.9 c 0,0.1 0.1,0 0,0 h -5.8 c -0.1,0 0,0.1 0,0 v -2.9 c 0,-0.055 -0.045,-0.1 -0.1,-0.1 h -6 c -0.055,0 -0.1,0.045 -0.1,0.1 v 2.9 c 0,0.1 0.1,0 0,0 h -5.8 c -0.1,0 0,0.1 0,0 v -2.9 c 0,-0.055 -0.045,-0.1 -0.1,-0.1 h -6 c -0.055,0 -0.1,0.045 -0.1,0.1 v 2.9 c 0,0.1 0.1,0 0,0 h -5.8 c -0.1,0 0,0.1 0,0 v -2.9 c 0,-0.055 -0.045,-0.1 -0.1,-0.1 h -6 c -0.055,0 -0.1,0.045 -0.1,0.1 v 2.9 c 0,0.1 0.1,0 0,0 h -5.8 c -0.1,0 0,0.1 0,0 v -2.9 c 0,-0.055 -0.045,-0.1 -0.1,-0.1 h -6 c -0.055,0 -0.1,0.045 -0.1,0.1 v 2.9 c 0,0.1 0.1,0 0,0 h -5.8 c -0.1,0 0,0.1 0,0 v -2.9 c 0,-0.055 -0.045,-0.1 -0.1,-0.1 h -6 c -0.055,0 -0.1,0.045 -0.1,0.1 v 2.9 c 0,0.1 0.1,0 0,0 h -5.8 c -0.1,0 0,0.1 0,0 v -2.9 c 0,-0.055 -0.045,-0.1 -0.1,-0.1 h -6 c -0.055,0 -0.1,0.045 -0.1,0.1 v 2.9 c 0,0.1 0.1,0 0,0 h -5.8 c -0.1,0 0,0.1 0,0 v -2.9 c 0,-0.055 -0.045,-0.1 -0.1,-0.1 h -6 c -0.055,0 -0.1,0.045 -0.1,0.1 v 2.9 c 0,0.1 0.1,0 0,0 h -5.8 c -0.1,0 0,0.1 0,0 v -2.9 c 0,-0.055 -0.045,-0.1 -0.1,-0.1 h -6 c -0.055,0 -0.1,0.045 -0.1,0.1 v 2.9 c 0,0.1 0.1,0 0,0 h -5.9 c -0.055,0 -0.1,0.045 -0.1,0.1 v 5.9 c 0,0.1 0.1,0 0,0 h -2.9 c -0.055,0 -0.1,0.045 -0.1,0.1 v 6 c 0,0.055 0.045,0.1 0.1,0.1 h 2.9 c 0.1,0 0,-0.1 0,0 v 5.8 c 0,0.1 0.1,0 0,0 h -2.9 c -0.055,0 -0.1,0.045 -0.1,0.1 v 6 c 0,0.055 0.045,0.1 0.1,0.1 h 2.9 c 0.1,0 0,-0.1 0,0 v 5.8 c 0,0.1 0.1,0 0,0 h -2.9 c -0.055,0 -0.1,0.045 -0.1,0.1 v 6 c 0,0.055 0.045,0.1 0.1,0.1 h 2.9 c 0.1,0 0,-0.1 0,0 v 5.8 c 0,0.1 0.1,0 0,0 h -2.9 c -0.055,0 -0.1,0.045 -0.1,0.1 v 6 c 0,0.055 0.045,0.1 0.1,0.1 h 2.9 c 0.1,0 0,-0.1 0,0 v 5.8 c 0,0.1 0.1,0 0,0 h -2.9 c -0.055,0 -0.1,0.045 -0.1,0.1 v 6 c 0,0.055 0.045,0.1 0.1,0.1 h 2.9 c 0.1,0 0,-0.1 0,0 v 5.8 c 0,0.1 0.1,0 0,0 h -2.9 c -0.055,0 -0.1,0.045 -0.1,0.1 v 6 c 0,0.055 0.045,0.1 0.1,0.1 h 2.9 c 0.1,0 0,-0.1 0,0 v 5.8 c 0,0.1 0.1,0 0,0 h -2.9 c -0.055,0 -0.1,0.045 -0.1,0.1 v 6 c 0,0.055 0.045,0.1 0.1,0.1 h 2.9 c 0.1,0 0,-0.1 0,0 v 5.8 c 0,0.1 0.1,0 0,0 h -2.9 c -0.055,0 -0.1,0.045 -0.1,0.1 v 6 c 0,0.055 0.045,0.1 0.1,0.1 h 2.9 c 0.1,0 0,-0.1 0,0 v 5.8 c 0,0.1 0.1,0 0,0 h -2.9 c -0.055,0 -0.1,0.045 -0.1,0.1 v 6 c 0,0.055 0.045,0.1 0.1,0.1 h 2.9 c 0.1,0 0,-0.1 0,0 v 5.9 c 0,0.055 0.045,0.1 0.1,0.1"
       stroke="rgb(0,0,0)"
       stroke-width="0.20"
       id="path219"
       style="stroke:#000000;stroke-width:0.014;stroke-dasharray:none;stroke-opacity:1" />
  </g>
  <g
     id="g2430"
     style="stroke:#000000;stroke-width:0.014;stroke-dasharray:none;stroke-opacity:1"
     transform="rotate(90,335.09198,358.67051)">
    <path
       d="m 632.5,631.99773 h -2.9 c -0.1,0 0,0.13156 0,0 v -3.68372 c 0,-0.13157 -0.1,0 0,0 h 5.8 c 0.1,0 0,-0.13157 0,0 v 3.68372 c 0,0.13156 0.1,0 0,0 z"
       stroke="#0000ff"
       stroke-width="0.2"
       id="path227"
       style="fill:none;stroke:#000000;stroke-width:0.014;stroke-linecap:round;stroke-linejoin:round;stroke-dasharray:none;stroke-opacity:1" />
    <path
       d="m 644.5,631.99773 h -2.9 c -0.1,0 0,0.13156 0,0 v -3.68372 c 0,-0.13157 -0.1,0 0,0 h 5.8 c 0.1,0 0,-0.13157 0,0 v 3.68372 c 0,0.13156 0.1,0 0,0 z"
       stroke="#0000ff"
       stroke-width="0.2"
       id="path229"
       style="fill:none;stroke:#000000;stroke-width:0.014;stroke-linecap:round;stroke-linejoin:round;stroke-dasharray:none;stroke-opacity:1" />
    <path
       d="m 656.5,631.99773 h -2.9 c -0.1,0 0,0.13156 0,0 v -3.68372 c 0,-0.13157 -0.1,0 0,0 h 5.8 c 0.1,0 0,-0.13157 0,0 v 3.68372 c 0,0.13156 0.1,0 0,0 z"
       stroke="#0000ff"
       stroke-width="0.2"
       id="path231"
       style="fill:none;stroke:#000000;stroke-width:0.014;stroke-linecap:round;stroke-linejoin:round;stroke-dasharray:none;stroke-opacity:1" />
    <path
       d="m 668.5,631.99773 h -2.9 c -0.1,0 0,0.13156 0,0 v -3.68372 c 0,-0.13157 -0.1,0 0,0 h 5.8 c 0.1,0 0,-0.13157 0,0 v 3.68372 c 0,0.13156 0.1,0 0,0 z"
       stroke="#0000ff"
       stroke-width="0.2"
       id="path233"
       style="fill:none;stroke:#000000;stroke-width:0.014;stroke-linecap:round;stroke-linejoin:round;stroke-dasharray:none;stroke-opacity:1" />
    <path
       d="m 680.5,631.99773 h -2.9 c -0.1,0 0,0.13156 0,0 v -3.68372 c 0,-0.13157 -0.1,0 0,0 h 5.8 c 0.1,0 0,-0.13157 0,0 v 3.68372 c 0,0.13156 0.1,0 0,0 z"
       stroke="#0000ff"
       stroke-width="0.2"
       id="path235"
       style="fill:none;stroke:#000000;stroke-width:0.014;stroke-linecap:round;stroke-linejoin:round;stroke-dasharray:none;stroke-opacity:1" />
    <path
       d="m 692.5,631.99773 h -2.9 c -0.1,0 0,0.13156 0,0 v -3.68372 c 0,-0.13157 -0.1,0 0,0 h 5.8 c 0.1,0 0,-0.13157 0,0 v 3.68372 c 0,0.13156 0.1,0 0,0 z"
       stroke="#0000ff"
       stroke-width="0.2"
       id="path237"
       style="fill:none;stroke:#000000;stroke-width:0.014;stroke-linecap:round;stroke-linejoin:round;stroke-dasharray:none;stroke-opacity:1" />
    <path
       d="m 704.5,631.99773 h -2.9 c -0.1,0 0,0.13156 0,0 v -3.68372 c 0,-0.13157 -0.1,0 0,0 h 5.8 c 0.1,0 0,-0.13157 0,0 v 3.68372 c 0,0.13156 0.1,0 0,0 z"
       stroke="#0000ff"
       stroke-width="0.2"
       id="path239"
       style="fill:none;stroke:#000000;stroke-width:0.014;stroke-linecap:round;stroke-linejoin:round;stroke-dasharray:none;stroke-opacity:1" />
    <path
       d="m 716.5,631.99773 h -2.9 c -0.1,0 0,0.13156 0,0 v -3.68372 c 0,-0.13157 -0.1,0 0,0 h 5.8 c 0.1,0 0,-0.13157 0,0 v 3.68372 c 0,0.13156 0.1,0 0,0 z"
       stroke="#0000ff"
       stroke-width="0.2"
       id="path241"
       style="fill:none;stroke:#000000;stroke-width:0.014;stroke-linecap:round;stroke-linejoin:round;stroke-dasharray:none;stroke-opacity:1" />
    <path
       d="m 728.5,631.99773 h -2.9 c -0.1,0 0,0.13156 0,0 v -3.68372 c 0,-0.13157 -0.1,0 0,0 h 5.8 c 0.1,0 0,-0.13157 0,0 v 3.68372 c 0,0.13156 0.1,0 0,0 z"
       stroke="#0000ff"
       stroke-width="0.2"
       id="path243"
       style="fill:none;stroke:#000000;stroke-width:0.014;stroke-linecap:round;stroke-linejoin:round;stroke-dasharray:none;stroke-opacity:1" />
    <path
       d="m 623.5,634.3 h 114 c 0.055,0 0.1,-0.045 0.1,-0.1 v -8.4 c 0,-0.1 -0.1,0 0,0 h 2.9 c 0.055,0 0.1,-0.045 0.1,-0.1 v -6 c 0,-0.055 -0.045,-0.1 -0.1,-0.1 h -2.9 c -0.1,0 0,0.1 0,0 v -5.8 c 0,-0.1 -0.1,0 0,0 h 2.9 c 0.055,0 0.1,-0.045 0.1,-0.1 v -6 c 0,-0.055 -0.045,-0.1 -0.1,-0.1 h -2.9 c -0.1,0 0,0.1 0,0 v -5.8 c 0,-0.1 -0.1,0 0,0 h 2.9 c 0.055,0 0.1,-0.045 0.1,-0.1 v -6 c 0,-0.055 -0.045,-0.1 -0.1,-0.1 h -2.9 c -0.1,0 0,0.1 0,0 v -5.8 c 0,-0.1 -0.1,0 0,0 h 2.9 c 0.055,0 0.1,-0.045 0.1,-0.1 v -6 c 0,-0.055 -0.045,-0.1 -0.1,-0.1 h -2.9 c -0.1,0 0,0.1 0,0 v -5.8 c 0,-0.1 -0.1,0 0,0 h 2.9 c 0.055,0 0.1,-0.045 0.1,-0.1 v -6 c 0,-0.055 -0.045,-0.1 -0.1,-0.1 h -2.9 c -0.1,0 0,0.1 0,0 v -5.8 c 0,-0.1 -0.1,0 0,0 h 2.9 c 0.055,0 0.1,-0.045 0.1,-0.1 v -6 c 0,-0.055 -0.045,-0.1 -0.1,-0.1 h -2.9 c -0.1,0 0,0.1 0,0 v -5.8 c 0,-0.1 -0.1,0 0,0 h 2.9 c 0.055,0 0.1,-0.045 0.1,-0.1 v -6 c 0,-0.055 -0.045,-0.1 -0.1,-0.1 h -2.9 c -0.1,0 0,0.1 0,0 v -5.8 c 0,-0.1 -0.1,0 0,0 h 2.9 c 0.055,0 0.1,-0.045 0.1,-0.1 v -6 c 0,-0.055 -0.045,-0.1 -0.1,-0.1 h -2.9 c -0.1,0 0,0.1 0,0 v -5.8 c 0,-0.1 -0.1,0 0,0 h 2.9 c 0.055,0 0.1,-0.045 0.1,-0.1 v -6 c 0,-0.055 -0.045,-0.1 -0.1,-0.1 h -2.9 c -0.1,0 0,0.1 0,0 v -5.8 c 0,-0.1 -0.1,0 0,0 h 2.9 c 0.055,0 0.1,-0.045 0.1,-0.1 v -6 c 0,-0.055 -0.045,-0.1 -0.1,-0.1 h -2.9 c -0.1,0 0,0.1 0,0 v -5.8 c 0,-0.1 -0.1,0 0,0 h 2.9 c 0.055,0 0.1,-0.045 0.1,-0.1 v -6 c 0,-0.055 -0.045,-0.1 -0.1,-0.1 h -2.9 c -0.1,0 0,0.1 0,0 v -5.8 c 0,-0.1 -0.1,0 0,0 h 2.9 c 0.055,0 0.1,-0.045 0.1,-0.1 v -6 c 0,-0.055 -0.045,-0.1 -0.1,-0.1 h -2.9 c -0.1,0 0,0.1 0,0 v -5.8 c 0,-0.1 -0.1,0 0,0 h 2.9 c 0.055,0 0.1,-0.045 0.1,-0.1 v -6 c 0,-0.055 -0.045,-0.1 -0.1,-0.1 h -2.9 c -0.1,0 0,0.1 0,0 v -5.8 c 0,-0.1 -0.1,0 0,0 h 2.9 c 0.055,0 0.1,-0.045 0.1,-0.1 v -6 c 0,-0.055 -0.045,-0.1 -0.1,-0.1 h -2.9 c -0.1,0 0,0.1 0,0 v -5.8 c 0,-0.1 -0.1,0 0,0 h 2.9 c 0.055,0 0.1,-0.045 0.1,-0.1 v -6 c 0,-0.055 -0.045,-0.1 -0.1,-0.1 h -2.9 c -0.1,0 0,0.1 0,0 v -8.4 c 0,-0.055 -0.045,-0.1 -0.1,-0.1 H 633.196 c -0.246,0 -0.487,-0.065 -0.7,-0.188 -0.213,-0.122 -0.389,-0.299 -0.512,-0.512 -0.123,-0.213 -0.188,-0.454 -0.188,-0.7 0,-1 -0.263,-1.983 -0.763,-2.849 -0.5,-0.866 -1.22,-1.586 -2.086,-2.086 -0.866,-0.5 -1.849,-0.763 -2.849,-0.763 -1,0 -1.983,0.263 -2.849,0.763 -0.866,0.5 -1.585,1.22 -2.086,2.086 -0.5,0.866 -0.763,1.849 -0.763,2.849 v 1.5 c 0,0.055 0.045,0.1 0.1,0.1 h 3 c 0.018,0 0.035,-0.005 0.05,-0.013 0.015,-0.009 0.028,-0.022 0.037,-0.037 0.008,-0.015 0.013,-0.032 0.013,-0.05 0,-0.018 -0.005,-0.035 -0.013,-0.05 -0.278,-0.481 -0.412,-1.033 -0.386,-1.588 0.027,-0.555 0.212,-1.091 0.535,-1.544 0.322,-0.453 0.768,-0.804 1.284,-1.01 0.516,-0.207 1.081,-0.261 1.627,-0.156 0.546,0.106 1.05,0.366 1.452,0.749 0.403,0.384 0.686,0.875 0.817,1.415 0.131,0.541 0.104,1.107 -0.077,1.632 -0.182,0.526 -0.511,0.988 -0.948,1.332 -0.437,0.343 -0.964,0.554 -1.517,0.607 -0.554,0.053 -1.111,-0.055 -1.605,-0.309 -0.494,-0.255 -0.904,-0.647 -1.182,-1.128 -0.018,-0.031 -0.051,-0.05 -0.087,-0.05 -0.055,0 -0.1,0.045 -0.1,0.1 v 8.4 c 0,0.1 0.1,0 0,0 h -2.9 c -0.055,0 -0.1,0.045 -0.1,0.1 v 6 c 0,0.055 0.045,0.1 0.1,0.1 h 2.9 c 0.1,0 0,-0.1 0,0 v 5.8 c 0,0.1 0.1,0 0,0 h -2.9 c -0.055,0 -0.1,0.045 -0.1,0.1 v 6 c 0,0.055 0.045,0.1 0.1,0.1 h 2.9 c 0.1,0 0,-0.1 0,0 v 5.8 c 0,0.1 0.1,0 0,0 h -2.9 c -0.055,0 -0.1,0.045 -0.1,0.1 v 6 c 0,0.055 0.045,0.1 0.1,0.1 h 2.9 c 0.1,0 0,-0.1 0,0 v 5.8 c 0,0.1 0.1,0 0,0 h -2.9 c -0.055,0 -0.1,0.045 -0.1,0.1 v 6 c 0,0.055 0.045,0.1 0.1,0.1 h 2.9 c 0.1,0 0,-0.1 0,0 v 5.8 c 0,0.1 0.1,0 0,0 h -2.9 c -0.055,0 -0.1,0.045 -0.1,0.1 v 6 c 0,0.055 0.045,0.1 0.1,0.1 h 2.9 c 0.1,0 0,-0.1 0,0 v 5.8 c 0,0.1 0.1,0 0,0 h -2.9 c -0.055,0 -0.1,0.045 -0.1,0.1 v 6 c 0,0.055 0.045,0.1 0.1,0.1 h 2.9 c 0.1,0 0,-0.1 0,0 v 5.8 c 0,0.1 0.1,0 0,0 h -2.9 c -0.055,0 -0.1,0.045 -0.1,0.1 v 6 c 0,0.055 0.045,0.1 0.1,0.1 h 2.9 c 0.1,0 0,-0.1 0,0 v 5.8 c 0,0.1 0.1,0 0,0 h -2.9 c -0.055,0 -0.1,0.045 -0.1,0.1 v 6 c 0,0.055 0.045,0.1 0.1,0.1 h 2.9 c 0.1,0 0,-0.1 0,0 v 5.8 c 0,0.1 0.1,0 0,0 h -2.9 c -0.055,0 -0.1,0.045 -0.1,0.1 v 6 c 0,0.055 0.045,0.1 0.1,0.1 h 2.9 c 0.1,0 0,-0.1 0,0 v 5.8 c 0,0.1 0.1,0 0,0 h -2.9 c -0.055,0 -0.1,0.045 -0.1,0.1 v 6 c 0,0.055 0.045,0.1 0.1,0.1 h 2.9 c 0.1,0 0,-0.1 0,0 v 5.8 c 0,0.1 0.1,0 0,0 h -2.9 c -0.055,0 -0.1,0.045 -0.1,0.1 v 6 c 0,0.055 0.045,0.1 0.1,0.1 h 2.9 c 0.1,0 0,-0.1 0,0 v 5.8 c 0,0.1 0.1,0 0,0 h -2.9 c -0.055,0 -0.1,0.045 -0.1,0.1 v 6 c 0,0.055 0.045,0.1 0.1,0.1 h 2.9 c 0.1,0 0,-0.1 0,0 v 5.8 c 0,0.1 0.1,0 0,0 h -2.9 c -0.055,0 -0.1,0.045 -0.1,0.1 v 6 c 0,0.055 0.045,0.1 0.1,0.1 h 2.9 c 0.1,0 0,-0.1 0,0 v 5.8 c 0,0.1 0.1,0 0,0 h -2.9 c -0.055,0 -0.1,0.045 -0.1,0.1 v 6 c 0,0.055 0.045,0.1 0.1,0.1 h 2.9 c 0.1,0 0,-0.1 0,0 v 5.8 c 0,0.1 0.1,0 0,0 h -2.9 c -0.055,0 -0.1,0.045 -0.1,0.1 v 6 c 0,0.055 0.045,0.1 0.1,0.1 h 2.9 c 0.1,0 0,-0.1 0,0 v 8.4 c 0,0.055 0.045,0.1 0.1,0.1"
       stroke="#000000"
       stroke-width="0.2"
       id="path247"
       style="fill:none;stroke:#000000;stroke-width:0.014;stroke-linecap:round;stroke-linejoin:round;stroke-dasharray:none;stroke-opacity:1" />
    <path
       d="m 626.098,440.2 h 1.199 c 0.1,0 0,-0.1 0,0 v 2.8 c 0,0.1 0.1,0 0,0 h -2.398 c -0.1,0 0,0.1 0,0 v -2.8 c 0,-0.1 -0.1,0 0,0 z"
       stroke="#0000ff"
       stroke-width="0.2"
       id="path249"
       style="fill:none;stroke:#000000;stroke-width:0.014;stroke-linecap:round;stroke-linejoin:round;stroke-dasharray:none;stroke-opacity:1" />
  </g>
  <g
     id="g2443"
     style="stroke:#000000;stroke-width:0.014;stroke-dasharray:none;stroke-opacity:1"
     transform="rotate(90,335.09198,358.67051)">
    <path
       d="m 632.5,430.29773 h -2.9 c -0.1,0 0,0.13156 0,0 v -3.68372 c 0,-0.13156 -0.1,0 0,0 h 5.8 c 0.1,0 0,-0.13156 0,0 v 3.68372 c 0,0.13156 0.1,0 0,0 z"
       stroke="#0000ff"
       stroke-width="0.2"
       id="path252"
       style="fill:none;stroke:#000000;stroke-width:0.014;stroke-linecap:round;stroke-linejoin:round;stroke-dasharray:none;stroke-opacity:1" />
    <path
       d="m 644.5,430.29773 h -2.9 c -0.1,0 0,0.13156 0,0 v -3.68372 c 0,-0.13156 -0.1,0 0,0 h 5.8 c 0.1,0 0,-0.13156 0,0 v 3.68372 c 0,0.13156 0.1,0 0,0 z"
       stroke="#0000ff"
       stroke-width="0.2"
       id="path254"
       style="fill:none;stroke:#000000;stroke-width:0.014;stroke-linecap:round;stroke-linejoin:round;stroke-dasharray:none;stroke-opacity:1" />
    <path
       d="m 656.5,430.29773 h -2.9 c -0.1,0 0,0.13156 0,0 v -3.68372 c 0,-0.13156 -0.1,0 0,0 h 5.8 c 0.1,0 0,-0.13156 0,0 v 3.68372 c 0,0.13156 0.1,0 0,0 z"
       stroke="#0000ff"
       stroke-width="0.2"
       id="path256"
       style="fill:none;stroke:#000000;stroke-width:0.014;stroke-linecap:round;stroke-linejoin:round;stroke-dasharray:none;stroke-opacity:1" />
    <path
       d="m 668.5,430.29773 h -2.9 c -0.1,0 0,0.13156 0,0 v -3.68372 c 0,-0.13156 -0.1,0 0,0 h 5.8 c 0.1,0 0,-0.13156 0,0 v 3.68372 c 0,0.13156 0.1,0 0,0 z"
       stroke="#0000ff"
       stroke-width="0.2"
       id="path258"
       style="fill:none;stroke:#000000;stroke-width:0.014;stroke-linecap:round;stroke-linejoin:round;stroke-dasharray:none;stroke-opacity:1" />
    <path
       d="m 680.5,430.29773 h -2.9 c -0.1,0 0,0.13156 0,0 v -3.68372 c 0,-0.13156 -0.1,0 0,0 h 5.8 c 0.1,0 0,-0.13156 0,0 v 3.68372 c 0,0.13156 0.1,0 0,0 z"
       stroke="#0000ff"
       stroke-width="0.2"
       id="path260"
       style="fill:none;stroke:#000000;stroke-width:0.014;stroke-linecap:round;stroke-linejoin:round;stroke-dasharray:none;stroke-opacity:1" />
    <path
       d="m 692.5,430.29773 h -2.9 c -0.1,0 0,0.13156 0,0 v -3.68372 c 0,-0.13156 -0.1,0 0,0 h 5.8 c 0.1,0 0,-0.13156 0,0 v 3.68372 c 0,0.13156 0.1,0 0,0 z"
       stroke="#0000ff"
       stroke-width="0.2"
       id="path262"
       style="fill:none;stroke:#000000;stroke-width:0.014;stroke-linecap:round;stroke-linejoin:round;stroke-dasharray:none;stroke-opacity:1" />
    <path
       d="m 704.5,430.29773 h -2.9 c -0.1,0 0,0.13156 0,0 v -3.68372 c 0,-0.13156 -0.1,0 0,0 h 5.8 c 0.1,0 0,-0.13156 0,0 v 3.68372 c 0,0.13156 0.1,0 0,0 z"
       stroke="#0000ff"
       stroke-width="0.2"
       id="path264"
       style="fill:none;stroke:#000000;stroke-width:0.014;stroke-linecap:round;stroke-linejoin:round;stroke-dasharray:none;stroke-opacity:1" />
    <path
       d="m 716.5,430.29773 h -2.9 c -0.1,0 0,0.13156 0,0 v -3.68372 c 0,-0.13156 -0.1,0 0,0 h 5.8 c 0.1,0 0,-0.13156 0,0 v 3.68372 c 0,0.13156 0.1,0 0,0 z"
       stroke="#0000ff"
       stroke-width="0.2"
       id="path266"
       style="fill:none;stroke:#000000;stroke-width:0.014;stroke-linecap:round;stroke-linejoin:round;stroke-dasharray:none;stroke-opacity:1" />
    <path
       d="m 728.5,430.29773 h -2.9 c -0.1,0 0,0.13156 0,0 v -3.68372 c 0,-0.13156 -0.1,0 0,0 h 5.8 c 0.1,0 0,-0.13156 0,0 v 3.68372 c 0,0.13156 0.1,0 0,0 z"
       stroke="#0000ff"
       stroke-width="0.2"
       id="path268"
       style="fill:none;stroke:#000000;stroke-width:0.014;stroke-linecap:round;stroke-linejoin:round;stroke-dasharray:none;stroke-opacity:1" />
    <path
       d="m 623.5,432.6 h 114 c 0.055,0 0.1,-0.045 0.1,-0.1 v -8.4 c 0,-0.1 -0.1,0 0,0 h 2.9 c 0.055,0 0.1,-0.045 0.1,-0.1 v -6 c 0,-0.055 -0.045,-0.1 -0.1,-0.1 h -2.9 c -0.1,0 0,0.1 0,0 v -5.8 c 0,-0.1 -0.1,0 0,0 h 2.9 c 0.055,0 0.1,-0.045 0.1,-0.1 v -6 c 0,-0.055 -0.045,-0.1 -0.1,-0.1 h -2.9 c -0.1,0 0,0.1 0,0 v -5.8 c 0,-0.1 -0.1,0 0,0 h 2.9 c 0.055,0 0.1,-0.045 0.1,-0.1 v -6 c 0,-0.055 -0.045,-0.1 -0.1,-0.1 h -2.9 c -0.1,0 0,0.1 0,0 v -5.8 c 0,-0.1 -0.1,0 0,0 h 2.9 c 0.055,0 0.1,-0.045 0.1,-0.1 v -6 c 0,-0.055 -0.045,-0.1 -0.1,-0.1 h -2.9 c -0.1,0 0,0.1 0,0 v -5.8 c 0,-0.1 -0.1,0 0,0 h 2.9 c 0.055,0 0.1,-0.045 0.1,-0.1 v -6 c 0,-0.055 -0.045,-0.1 -0.1,-0.1 h -2.9 c -0.1,0 0,0.1 0,0 v -5.8 c 0,-0.1 -0.1,0 0,0 h 2.9 c 0.055,0 0.1,-0.045 0.1,-0.1 v -6 c 0,-0.055 -0.045,-0.1 -0.1,-0.1 h -2.9 c -0.1,0 0,0.1 0,0 v -5.8 c 0,-0.1 -0.1,0 0,0 h 2.9 c 0.055,0 0.1,-0.045 0.1,-0.1 v -6 c 0,-0.055 -0.045,-0.1 -0.1,-0.1 h -2.9 c -0.1,0 0,0.1 0,0 v -5.8 c 0,-0.1 -0.1,0 0,0 h 2.9 c 0.055,0 0.1,-0.045 0.1,-0.1 v -6 c 0,-0.055 -0.045,-0.1 -0.1,-0.1 h -2.9 c -0.1,0 0,0.1 0,0 v -5.8 c 0,-0.1 -0.1,0 0,0 h 2.9 c 0.055,0 0.1,-0.045 0.1,-0.1 v -6 c 0,-0.055 -0.045,-0.1 -0.1,-0.1 h -2.9 c -0.1,0 0,0.1 0,0 v -5.8 c 0,-0.1 -0.1,0 0,0 h 2.9 c 0.055,0 0.1,-0.045 0.1,-0.1 v -6 c 0,-0.055 -0.045,-0.1 -0.1,-0.1 h -2.9 c -0.1,0 0,0.1 0,0 v -5.8 c 0,-0.1 -0.1,0 0,0 h 2.9 c 0.055,0 0.1,-0.045 0.1,-0.1 v -6 c 0,-0.055 -0.045,-0.1 -0.1,-0.1 h -2.9 c -0.1,0 0,0.1 0,0 v -5.8 c 0,-0.1 -0.1,0 0,0 h 2.9 c 0.055,0 0.1,-0.045 0.1,-0.1 v -6 c 0,-0.055 -0.045,-0.1 -0.1,-0.1 h -2.9 c -0.1,0 0,0.1 0,0 v -5.8 c 0,-0.1 -0.1,0 0,0 h 2.9 c 0.055,0 0.1,-0.045 0.1,-0.1 v -6 c 0,-0.055 -0.045,-0.1 -0.1,-0.1 h -2.9 c -0.1,0 0,0.1 0,0 v -5.8 c 0,-0.1 -0.1,0 0,0 h 2.9 c 0.055,0 0.1,-0.045 0.1,-0.1 v -6 c 0,-0.055 -0.045,-0.1 -0.1,-0.1 h -2.9 c -0.1,0 0,0.1 0,0 v -5.8 c 0,-0.1 -0.1,0 0,0 h 2.9 c 0.055,0 0.1,-0.045 0.1,-0.1 v -6 c 0,-0.055 -0.045,-0.1 -0.1,-0.1 h -2.9 c -0.1,0 0,0.1 0,0 v -8.4 c 0,-0.055 -0.045,-0.1 -0.1,-0.1 -0.036,0 -0.069,0.019 -0.087,0.05 -0.278,0.481 -0.688,0.873 -1.182,1.128 -0.494,0.254 -1.051,0.362 -1.605,0.309 -0.553,-0.053 -1.08,-0.264 -1.517,-0.607 -0.437,-0.344 -0.766,-0.806 -0.948,-1.332 -0.181,-0.525 -0.208,-1.091 -0.077,-1.632 0.131,-0.54 0.414,-1.031 0.817,-1.415 0.402,-0.383 0.906,-0.643 1.452,-0.749 0.546,-0.105 1.111,-0.051 1.627,0.156 0.516,0.206 0.962,0.557 1.284,1.01 0.323,0.453 0.508,0.989 0.535,1.544 0.026,0.555 -0.108,1.107 -0.386,1.588 -0.008,0.015 -0.013,0.032 -0.013,0.05 0,0.018 0.005,0.035 0.013,0.05 0.009,0.015 0.022,0.028 0.037,0.037 0.015,0.008 0.032,0.013 0.05,0.013 h 3 c 0.055,0 0.1,-0.045 0.1,-0.1 V 240 c 0,-1 -0.263,-1.983 -0.763,-2.849 -0.501,-0.866 -1.22,-1.586 -2.086,-2.086 -0.866,-0.5 -1.849,-0.763 -2.849,-0.763 -1,0 -1.983,0.263 -2.849,0.763 -0.866,0.5 -1.586,1.22 -2.086,2.086 -0.5,0.866 -0.763,1.849 -0.763,2.849 0,0.246 -0.065,0.487 -0.188,0.7 -0.123,0.213 -0.299,0.39 -0.512,0.512 -0.213,0.123 -0.454,0.188 -0.7,0.188 H 623.5 c -0.055,0 -0.1,0.045 -0.1,0.1 v 8.4 c 0,0.1 0.1,0 0,0 h -2.9 c -0.055,0 -0.1,0.045 -0.1,0.1 v 6 c 0,0.055 0.045,0.1 0.1,0.1 h 2.9 c 0.1,0 0,-0.1 0,0 v 5.8 c 0,0.1 0.1,0 0,0 h -2.9 c -0.055,0 -0.1,0.045 -0.1,0.1 v 6 c 0,0.055 0.045,0.1 0.1,0.1 h 2.9 c 0.1,0 0,-0.1 0,0 v 5.8 c 0,0.1 0.1,0 0,0 h -2.9 c -0.055,0 -0.1,0.045 -0.1,0.1 v 6 c 0,0.055 0.045,0.1 0.1,0.1 h 2.9 c 0.1,0 0,-0.1 0,0 v 5.8 c 0,0.1 0.1,0 0,0 h -2.9 c -0.055,0 -0.1,0.045 -0.1,0.1 v 6 c 0,0.055 0.045,0.1 0.1,0.1 h 2.9 c 0.1,0 0,-0.1 0,0 v 5.8 c 0,0.1 0.1,0 0,0 h -2.9 c -0.055,0 -0.1,0.045 -0.1,0.1 v 6 c 0,0.055 0.045,0.1 0.1,0.1 h 2.9 c 0.1,0 0,-0.1 0,0 v 5.8 c 0,0.1 0.1,0 0,0 h -2.9 c -0.055,0 -0.1,0.045 -0.1,0.1 v 6 c 0,0.055 0.045,0.1 0.1,0.1 h 2.9 c 0.1,0 0,-0.1 0,0 v 5.8 c 0,0.1 0.1,0 0,0 h -2.9 c -0.055,0 -0.1,0.045 -0.1,0.1 v 6 c 0,0.055 0.045,0.1 0.1,0.1 h 2.9 c 0.1,0 0,-0.1 0,0 v 5.8 c 0,0.1 0.1,0 0,0 h -2.9 c -0.055,0 -0.1,0.045 -0.1,0.1 v 6 c 0,0.055 0.045,0.1 0.1,0.1 h 2.9 c 0.1,0 0,-0.1 0,0 v 5.8 c 0,0.1 0.1,0 0,0 h -2.9 c -0.055,0 -0.1,0.045 -0.1,0.1 v 6 c 0,0.055 0.045,0.1 0.1,0.1 h 2.9 c 0.1,0 0,-0.1 0,0 v 5.8 c 0,0.1 0.1,0 0,0 h -2.9 c -0.055,0 -0.1,0.045 -0.1,0.1 v 6 c 0,0.055 0.045,0.1 0.1,0.1 h 2.9 c 0.1,0 0,-0.1 0,0 v 5.8 c 0,0.1 0.1,0 0,0 h -2.9 c -0.055,0 -0.1,0.045 -0.1,0.1 v 6 c 0,0.055 0.045,0.1 0.1,0.1 h 2.9 c 0.1,0 0,-0.1 0,0 v 5.8 c 0,0.1 0.1,0 0,0 h -2.9 c -0.055,0 -0.1,0.045 -0.1,0.1 v 6 c 0,0.055 0.045,0.1 0.1,0.1 h 2.9 c 0.1,0 0,-0.1 0,0 v 5.8 c 0,0.1 0.1,0 0,0 h -2.9 c -0.055,0 -0.1,0.045 -0.1,0.1 v 6 c 0,0.055 0.045,0.1 0.1,0.1 h 2.9 c 0.1,0 0,-0.1 0,0 v 5.8 c 0,0.1 0.1,0 0,0 h -2.9 c -0.055,0 -0.1,0.045 -0.1,0.1 v 6 c 0,0.055 0.045,0.1 0.1,0.1 h 2.9 c 0.1,0 0,-0.1 0,0 v 5.8 c 0,0.1 0.1,0 0,0 h -2.9 c -0.055,0 -0.1,0.045 -0.1,0.1 v 6 c 0,0.055 0.045,0.1 0.1,0.1 h 2.9 c 0.1,0 0,-0.1 0,0 v 8.4 c 0,0.055 0.045,0.1 0.1,0.1"
       stroke="#000000"
       stroke-width="0.2"
       id="path272"
       style="fill:none;stroke:#000000;stroke-width:0.014;stroke-linecap:round;stroke-linejoin:round;stroke-dasharray:none;stroke-opacity:1" />
    <path
       d="m 734.902,238.5 h 1.199 c 0.1,0 0,-0.1 0,0 v 2.8 c 0,0.1 0.1,0 0,0 h -2.398 c -0.1,0 0,0.1 0,0 v -2.8 c 0,-0.1 -0.1,0 0,0 z"
       stroke="#0000ff"
       stroke-width="0.2"
       id="path274"
       style="fill:none;stroke:#000000;stroke-width:0.014;stroke-linecap:round;stroke-linejoin:round;stroke-dasharray:none;stroke-opacity:1" />
  </g>
  <g
     id="g1036"
     style="stroke-width:0.014;stroke-dasharray:none"
     transform="translate(-18.693,-9.2468094)">
    <g
       id="p-4"
       style="fill:none;stroke:#000000;stroke-width:0.014;stroke-linecap:round;stroke-linejoin:round;stroke-dasharray:none;stroke-opacity:1"
       transform="translate(0,-0.74619058)">
      <path
         d="m 21.8,127.2 h 594 3 c 0.055,0 0.1,-0.045 0.1,-0.1 v -3 -104.304 c 0,-0.055 -0.045,-0.1 -0.1,-0.1 h -2.9 c -0.1,0 0,0.1 0,0 v -5.599 c 0,-0.1 -0.1,0 0,0 h 2.9 c 0.055,0 0.1,-0.045 0.1,-0.1 v -2.598 c 0,-0.055 -0.045,-0.1 -0.1,-0.1 h -2.9 c -0.1,0 0,0.1 0,0 V 10.1 c 0,-0.055 -0.045,-0.1 -0.1,-0.1 h -594 c -0.055,0 -0.1,0.045 -0.1,0.1 v 1.199 c 0,0.1 0.1,0 0,0 h -2.9 c -0.055,0 -0.1,0.045 -0.1,0.1 v 2.598 c 0,0.055 0.045,0.1 0.1,0.1 h 2.9 c 0.1,0 0,-0.1 0,0 v 5.599 c 0,0.1 0.1,0 0,0 h -2.9 c -0.055,0 -0.1,0.045 -0.1,0.1 v 104.304 3 c 0,0.055 0.045,0.1 0.1,0.1 h 3"
         stroke="#000000"
         stroke-width="0.2"
         id="path224"
         style="stroke:#000000;stroke-width:0.014;stroke-dasharray:none;stroke-opacity:1" />
    </g>
    <rect
       style="fill:none;stroke:#000000;stroke-width:0.014;stroke-dasharray:none;stroke-opacity:1"
       id="rect1365"
       width="24.860001"
       height="24.860001"
       x="-246.56912"
       y="-48.235115"
       ry="1.8328876e-06"
       transform="rotate(-179.89184)" />
  </g>
</svg>
